<?xml version="1.0" standalone="no"?>
<!DOCTYPE svg PUBLIC "-//W3C//DTD SVG 1.1//EN" "http://www.w3.org/Graphics/SVG/1.1/DTD/svg11.dtd" >
<svg xmlns="http://www.w3.org/2000/svg" xmlns:xlink="http://www.w3.org/1999/xlink" version="1.1">
<metadata>
Created by FontForge 20201107 at Tue Feb 27 05:18:18 2024
 By 
Copyright (c) 2013 by . All rights reserved.
</metadata>
<defs>
<font id="Bicyclette-Bold" horiz-adv-x="1228" >
  <font-face 
    font-family="Bicyclette"
    font-weight="700"
    font-stretch="normal"
    units-per-em="2048"
    panose-1="2 0 0 0 0 0 0 0 0 0"
    ascent="1638"
    descent="-410"
    x-height="840"
    cap-height="1229"
    bbox="-264 -623 2355 1815"
    underline-thickness="102"
    underline-position="-255"
    unicode-range="U+0020-FFFB"
  />
<missing-glyph horiz-adv-x="962" 
d="M240 121h481v1261h-481v-1261zM121 0v1501h723v-1501h-723z" />
    <glyph glyph-name="f_f" unicode="ff" horiz-adv-x="1345" 
d="M158 1018q0 169 103.5 261.5t268.5 92.5q93 0 162 -31q31 -15 31 -34q0 -10 -10 -37l-39 -113q-12 -30 -51 -18q-40 12 -72 12q-57 0 -94 -37.5t-37 -114.5v-159h344v178q0 169 104 261.5t269 92.5q123 0 211 -41q30 -15 30 -35q0 -9 -10 -36l-43 -111q-13 -31 -51 -19
q-65 21 -113 21q-61 0 -98 -37t-37 -115v-159h256q9 0 19 -10t10 -19v-164q0 -9 -10 -19t-19 -10h-256v-583q0 -9 -13 -22t-22 -13h-192q-9 0 -22 13t-13 22v583h-344v-583q0 -9 -13 -22t-22 -13h-192q-9 0 -22 13t-13 22v583h-95q-9 0 -18.5 10t-9.5 19v164q0 9 9.5 19
t18.5 10h95v178z" />
    <glyph glyph-name="fi" unicode="fi" horiz-adv-x="1083" 
d="M985 35q0 -9 -13 -22t-22 -13h-192q-9 0 -22 13t-13 22v583h-303v-583q0 -9 -13 -22t-22 -13h-192q-9 0 -22 13t-13 22v583h-95q-9 0 -18.5 10t-9.5 19v164q0 9 9.5 19t18.5 10h95v178q0 169 107 261.5t276 92.5q115 0 214 -37.5t156 -83.5q37 -29 37 -51q0 -18 -12 -37
l-68 -96q-10 -13 -28 -15t-33 9q-132 90 -238 90q-66 0 -107.5 -37.5t-41.5 -114.5v-159h530q9 0 22 -13t13 -22v-770z" />
    <glyph glyph-name="fl" unicode="fl" horiz-adv-x="1128" 
d="M158 1018q0 169 107.5 261.5t295.5 92.5q113 0 236 -25.5t202 -64.5q31 -16 31 -39v-1208q0 -9 -13 -22t-22 -13h-192q-9 0 -22 13t-13 22v1083q-102 33 -186 33q-75 0 -118.5 -37t-43.5 -115v-159h205q9 0 18.5 -10t9.5 -19v-164q0 -9 -9.5 -19t-18.5 -10h-205v-583
q0 -9 -13 -22t-22 -13h-192q-9 0 -22 13t-13 22v583h-95q-9 0 -18.5 10t-9.5 19v164q0 9 9.5 19t18.5 10h95v178z" />
    <glyph glyph-name="f_f_i" unicode="ffi" horiz-adv-x="1689" 
d="M1591 35q0 -9 -13 -22t-22 -13h-192q-9 0 -22 13t-13 22v583h-303v-583q0 -9 -13 -22t-22 -13h-192q-9 0 -22 13t-13 22v583h-344v-583q0 -9 -13 -22t-22 -13h-192q-9 0 -22 13t-13 22v583h-95q-9 0 -18.5 10t-9.5 19v164q0 9 9.5 19t18.5 10h95v178q0 169 103.5 261.5
t268.5 92.5q93 0 162 -31q31 -15 31 -34q0 -10 -10 -37l-39 -113q-12 -30 -51 -18q-40 12 -72 12q-57 0 -94 -37.5t-37 -114.5v-159h344v178q0 169 107 261.5t276 92.5q115 0 214.5 -37.5t156.5 -83.5q36 -28 36 -51q0 -18 -12 -37l-67 -96q-10 -13 -28.5 -15t-33.5 9
q-132 90 -237 90q-66 0 -108 -37.5t-42 -114.5v-159h530q9 0 22 -13t13 -22v-770z" />
    <glyph glyph-name="f_f_l" unicode="ffl" horiz-adv-x="1734" 
d="M158 1018q0 169 103.5 261.5t268.5 92.5q93 0 162 -31q31 -15 31 -34q0 -10 -10 -37l-39 -113q-12 -30 -51 -18q-40 12 -72 12q-57 0 -94 -37.5t-37 -114.5v-159h344v178q0 169 107.5 261.5t295.5 92.5q113 0 236.5 -25.5t202.5 -64.5q30 -15 30 -39v-1208
q0 -9 -12.5 -22t-21.5 -13h-193q-9 0 -22 13t-13 22v1083q-102 33 -186 33q-75 0 -118.5 -37t-43.5 -115v-159h205q9 0 19 -10t10 -19v-164q0 -9 -10 -19t-19 -10h-205v-583q0 -9 -13 -22t-22 -13h-192q-9 0 -22 13t-13 22v583h-344v-583q0 -9 -13 -22t-22 -13h-192
q-9 0 -22 13t-13 22v583h-95q-9 0 -18.5 10t-9.5 19v164q0 9 9.5 19t18.5 10h95v178z" />
    <glyph glyph-name="f_t" unicode="ft" horiz-adv-x="1376" 
d="M420 35q0 -9 -13 -22t-22 -13h-192q-9 0 -22 13t-13 22v583h-95q-9 0 -18.5 10t-9.5 19v164q0 9 9.5 19t18.5 10h95v178q0 169 103.5 261.5t268.5 92.5q114 0 187 -39q31 -15 31 -35q0 -7 -11 -36l-47 -111q-13 -33 -51 -18q-45 18 -88 18q-57 0 -94 -37.5t-37 -114.5
v-159h328v190q0 9 12.5 22t21.5 13h193q9 0 22 -13t13 -22v-190h262q9 0 18.5 -10t9.5 -19v-164q0 -9 -9.5 -19t-18.5 -10h-262v-286q0 -131 123 -131q46 0 122 39q15 7 27.5 1.5t17.5 -18.5l35 -102q8 -28 8 -37q0 -22 -28 -41q-37 -25 -99.5 -44t-128.5 -19
q-155 0 -247 84t-92 245v309h-328v-583z" />
    <glyph glyph-name="uniFB07" unicode="fft" horiz-adv-x="1982" 
d="M1026 35q0 -9 -13 -22t-22 -13h-192q-9 0 -22 13t-13 22v583h-344v-583q0 -9 -13 -22t-22 -13h-192q-9 0 -22 13t-13 22v583h-95q-9 0 -18.5 10t-9.5 19v164q0 9 9.5 19t18.5 10h95v178q0 169 103.5 261.5t268.5 92.5q93 0 162 -31q31 -15 31 -34q0 -10 -10 -37l-39 -113
q-12 -30 -51 -18q-40 12 -72 12q-57 0 -94 -37.5t-37 -114.5v-159h344v178q0 169 104 261.5t269 92.5q113 0 186 -39q31 -15 31 -35q0 -7 -11 -36l-47 -111q-13 -33 -51 -18q-45 18 -88 18q-57 0 -94 -37.5t-37 -114.5v-159h328v190q0 9 13 22t22 13h192q9 0 22 -13t13 -22
v-190h262q9 0 19 -10t10 -19v-164q0 -9 -10 -19t-19 -10h-262v-286q0 -131 123 -131q47 0 123 39q15 7 27.5 1.5t17.5 -18.5l35 -102q8 -28 8 -37q0 -22 -29 -41q-37 -25 -99 -44t-128 -19q-155 0 -247.5 84t-92.5 245v309h-328v-583z" />
    <glyph glyph-name="uniFB08" unicode="fb" horiz-adv-x="1775" 
d="M158 1018q0 169 107.5 261.5t295.5 92.5q113 0 236 -25.5t202 -64.5q31 -16 31 -39v-469h10q47 41 114.5 63.5t137.5 22.5q185 0 293.5 -122t108.5 -316t-119 -318t-295 -124q-147 0 -266 90h-4l-21 -39q-16 -31 -41 -31h-145q-9 0 -22 13t-13 22v1083q-102 33 -186 33
q-75 0 -118.5 -37t-43.5 -115v-159h205q9 0 18.5 -10t9.5 -19v-164q0 -9 -9.5 -19t-18.5 -10h-205v-583q0 -9 -13 -22t-22 -13h-192q-9 0 -22 13t-13 22v583h-95q-9 0 -18.5 10t-9.5 19v164q0 9 9.5 19t18.5 10h95v178zM1432 422q0 98 -53.5 157.5t-141.5 59.5
q-70 0 -126.5 -39.5t-80.5 -101.5v-219q79 -76 201 -76q84 0 142.5 59t58.5 160z" />
    <glyph glyph-name="uniFB09" unicode="fh" horiz-adv-x="1744" 
d="M158 1018q0 169 107.5 261.5t295.5 92.5q113 0 236 -25.5t202 -64.5q31 -16 31 -39v-489h8q46 47 123 76.5t154 29.5q167 0 253.5 -90t86.5 -246v-489q0 -9 -13 -22t-22 -13h-195q-9 0 -21.5 13t-12.5 22v469q0 62 -39 98.5t-101 36.5q-71 0 -131 -40t-90 -103v-461
q0 -9 -13 -22t-22 -13h-192q-9 0 -22 13t-13 22v1083q-102 33 -186 33q-75 0 -118.5 -37t-43.5 -115v-159h205q9 0 18.5 -10t9.5 -19v-164q0 -9 -9.5 -19t-18.5 -10h-205v-583q0 -9 -13 -22t-22 -13h-192q-9 0 -22 13t-13 22v583h-95q-9 0 -18.5 10t-9.5 19v164q0 9 9.5 19
t18.5 10h95v178z" />
    <glyph glyph-name="uniFB0A" unicode="fj" horiz-adv-x="1083" 
d="M985 -152q0 -178 -91.5 -279t-266.5 -101q-63 0 -126 20t-102 49q-28 22 -28 41q0 15 8 29l53 102q15 31 37 31q12 0 25 -8q67 -43 112 -43q57 0 87 38t30 109v782h-303v-583q0 -9 -13 -22t-22 -13h-192q-9 0 -22 13t-13 22v583h-95q-9 0 -18.5 10t-9.5 19v164
q0 9 9.5 19t18.5 10h95v178q0 169 107 261.5t276 92.5q115 0 214 -37.5t156 -83.5q37 -29 37 -51q0 -18 -12 -37l-68 -96q-10 -13 -28 -15t-33 9q-132 90 -238 90q-66 0 -107.5 -37.5t-41.5 -114.5v-159h530q9 0 22 -13t13 -22v-957z" />
    <glyph glyph-name="uniFB0B" unicode="fk" horiz-adv-x="1742" 
d="M1708 45q10 -13 10 -22q0 -23 -30 -23h-215q-33 0 -50 7.5t-39 35.5l-196 258l-158 -158v-108q0 -9 -13 -22t-22 -13h-192q-9 0 -22 13t-13 22v1083q-102 33 -186 33q-75 0 -118.5 -37t-43.5 -115v-159h205q9 0 18.5 -10t9.5 -19v-164q0 -9 -9.5 -19t-18.5 -10h-205v-583
q0 -9 -13 -22t-22 -13h-192q-9 0 -22 13t-13 22v583h-95q-9 0 -18.5 10t-9.5 19v164q0 9 9.5 19t18.5 10h95v178q0 169 107.5 261.5t295.5 92.5q113 0 236 -25.5t202 -64.5q31 -16 31 -39v-770h4q20 29 53 62l252 260q45 45 84 45h242q10 0 16.5 -7t6.5 -16q0 -16 -15 -31
l-301 -301z" />
    <glyph glyph-name="uniFB0C" unicode="fy" horiz-adv-x="1585" 
d="M1030 -487q-6 -15 -14.5 -20t-30.5 -5h-219q-16 0 -16 16q0 10 10 35l190 469l-305 610h-225v-583q0 -9 -13 -22t-22 -13h-192q-9 0 -22 13t-13 22v583h-95q-9 0 -18.5 10t-9.5 19v164q0 9 9.5 19t18.5 10h95v178q0 169 103.5 261.5t268.5 92.5q123 0 211 -41
q31 -15 31 -35q0 -9 -10 -36l-43 -111q-13 -31 -51 -19q-65 21 -113 21q-61 0 -98 -37t-37 -115v-159h368q21 0 31.5 -6t18.5 -21l194 -391q13 -24 23.5 -50t14.5 -40l5 -13h4l199 494q6 16 15 21.5t30 5.5h219q6 0 11.5 -5t5.5 -12q0 -6 -11 -35z" />
    <glyph glyph-name="uniFB0D" unicode="ffb" horiz-adv-x="2381" 
d="M158 1018q0 169 103.5 261.5t268.5 92.5q93 0 162 -31q31 -15 31 -34q0 -10 -10 -37l-39 -113q-12 -30 -51 -18q-40 12 -72 12q-57 0 -94 -37.5t-37 -114.5v-159h344v178q0 169 107.5 261.5t295.5 92.5q113 0 236.5 -25.5t202.5 -64.5q30 -15 30 -39v-469h11
q47 41 114 63.5t137 22.5q185 0 293.5 -122t108.5 -316t-119 -318t-295 -124q-147 0 -266 90h-4l-21 -39q-16 -31 -41 -31h-145q-9 0 -22 13t-13 22v1083q-102 33 -186 33q-75 0 -118.5 -37t-43.5 -115v-159h205q9 0 19 -10t10 -19v-164q0 -9 -10 -19t-19 -10h-205v-583
q0 -9 -13 -22t-22 -13h-192q-9 0 -22 13t-13 22v583h-344v-583q0 -9 -13 -22t-22 -13h-192q-9 0 -22 13t-13 22v583h-95q-9 0 -18.5 10t-9.5 19v164q0 9 9.5 19t18.5 10h95v178zM2038 422q0 98 -53.5 157.5t-141.5 59.5q-70 0 -126.5 -39.5t-80.5 -101.5v-219
q79 -76 201 -76q84 0 142.5 59t58.5 160z" />
    <glyph glyph-name="uniFB0E" unicode="ffh" horiz-adv-x="2351" 
d="M158 1018q0 169 103.5 261.5t268.5 92.5q93 0 162 -31q31 -15 31 -34q0 -10 -10 -37l-39 -113q-12 -30 -51 -18q-40 12 -72 12q-57 0 -94 -37.5t-37 -114.5v-159h344v178q0 169 107.5 261.5t295.5 92.5q113 0 236.5 -25.5t202.5 -64.5q30 -15 30 -39v-489h9
q46 47 122.5 76.5t153.5 29.5q167 0 253.5 -90t86.5 -246v-489q0 -9 -13 -22t-22 -13h-194q-9 0 -22 13t-13 22v469q0 62 -38.5 98.5t-100.5 36.5q-71 0 -131.5 -40t-90.5 -103v-461q0 -9 -12.5 -22t-21.5 -13h-193q-9 0 -22 13t-13 22v1083q-102 33 -186 33
q-75 0 -118.5 -37t-43.5 -115v-159h205q9 0 19 -10t10 -19v-164q0 -9 -10 -19t-19 -10h-205v-583q0 -9 -13 -22t-22 -13h-192q-9 0 -22 13t-13 22v583h-344v-583q0 -9 -13 -22t-22 -13h-192q-9 0 -22 13t-13 22v583h-95q-9 0 -18.5 10t-9.5 19v164q0 9 9.5 19t18.5 10h95
v178z" />
    <glyph glyph-name="uniFB0F" unicode="ffj" horiz-adv-x="1689" 
d="M1591 -152q0 -178 -91.5 -279t-266.5 -101q-63 0 -125.5 20t-101.5 49q-29 23 -29 41q0 15 8 29l53 102q15 31 37 31q12 0 25 -8q67 -43 112 -43q57 0 87 38t30 109v782h-303v-583q0 -9 -13 -22t-22 -13h-192q-9 0 -22 13t-13 22v583h-344v-583q0 -9 -13 -22t-22 -13
h-192q-9 0 -22 13t-13 22v583h-95q-9 0 -18.5 10t-9.5 19v164q0 9 9.5 19t18.5 10h95v178q0 169 103.5 261.5t268.5 92.5q93 0 162 -31q31 -15 31 -34q0 -10 -10 -37l-39 -113q-12 -30 -51 -18q-40 12 -72 12q-57 0 -94 -37.5t-37 -114.5v-159h344v178q0 169 107 261.5
t276 92.5q115 0 214.5 -37.5t156.5 -83.5q36 -28 36 -51q0 -18 -12 -37l-67 -96q-10 -13 -28.5 -15t-33.5 9q-132 90 -237 90q-66 0 -108 -37.5t-42 -114.5v-159h530q9 0 22 -13t13 -22v-957z" />
    <glyph glyph-name="uniFB10" unicode="ffk" horiz-adv-x="2349" 
d="M2314 45q10 -13 10 -22q0 -23 -30 -23h-215q-33 0 -49.5 7.5t-38.5 35.5l-197 258l-158 -158v-108q0 -9 -12.5 -22t-21.5 -13h-193q-9 0 -22 13t-13 22v1083q-102 33 -186 33q-75 0 -118.5 -37t-43.5 -115v-159h205q9 0 19 -10t10 -19v-164q0 -9 -10 -19t-19 -10h-205
v-583q0 -9 -13 -22t-22 -13h-192q-9 0 -22 13t-13 22v583h-344v-583q0 -9 -13 -22t-22 -13h-192q-9 0 -22 13t-13 22v583h-95q-9 0 -18.5 10t-9.5 19v164q0 9 9.5 19t18.5 10h95v178q0 169 103.5 261.5t268.5 92.5q93 0 162 -31q31 -15 31 -34q0 -10 -10 -37l-39 -113
q-12 -30 -51 -18q-40 12 -72 12q-57 0 -94 -37.5t-37 -114.5v-159h344v178q0 169 107.5 261.5t295.5 92.5q113 0 236.5 -25.5t202.5 -64.5q30 -15 30 -39v-770h4q21 29 54 62l252 260q45 45 84 45h241q10 0 16.5 -7t6.5 -16q0 -16 -15 -31l-301 -301z" />
    <glyph glyph-name="uniFB11" unicode="ffy" horiz-adv-x="2191" 
d="M1636 -487q-6 -15 -14.5 -20t-30.5 -5h-219q-16 0 -16 16q0 10 10 35l190 469l-305 610h-225v-583q0 -9 -13 -22t-22 -13h-192q-9 0 -22 13t-13 22v583h-344v-583q0 -9 -13 -22t-22 -13h-192q-9 0 -22 13t-13 22v583h-95q-9 0 -18.5 10t-9.5 19v164q0 9 9.5 19t18.5 10
h95v178q0 169 103.5 261.5t268.5 92.5q93 0 162 -31q31 -15 31 -34q0 -10 -10 -37l-39 -113q-12 -30 -51 -18q-40 12 -72 12q-57 0 -94 -37.5t-37 -114.5v-159h344v178q0 169 104 261.5t269 92.5q123 0 211 -41q30 -15 30 -35q0 -9 -10 -36l-43 -111q-13 -31 -51 -19
q-65 21 -113 21q-61 0 -98 -37t-37 -115v-159h369q21 0 31 -6t18 -21l194 -391q13 -24 23.5 -50t14.5 -40l5 -13h5l198 494q6 16 15 21.5t30 5.5h219q6 0 11.5 -5t5.5 -12q0 -6 -11 -35z" />
    <glyph glyph-name="uniFB19" unicode="tt" horiz-adv-x="1480" 
d="M406 332q0 -131 122 -131q47 0 123 39q15 7 27.5 1.5t17.5 -18.5l35 -102q8 -28 8 -37q0 -22 -28 -41q-37 -25 -99.5 -44t-128.5 -19q-155 0 -247.5 84t-92.5 245v309h-94q-9 0 -19 10t-10 19v164q0 9 10 19t19 10h94v190q0 9 13 22t22 13h193q9 0 22 -13t13 -22v-190
h446v190q0 9 13 22t22 13h192q9 0 22 -13t13 -22v-190h262q9 0 19 -10t10 -19v-164q0 -9 -10 -19t-19 -10h-262v-286q0 -131 123 -131q47 0 123 39q15 7 27.5 1.5t17.5 -18.5l35 -102q8 -28 8 -37q0 -22 -29 -41q-37 -25 -99 -44t-128 -19q-155 0 -247.5 84t-92.5 245v309
h-446v-286z" />
    <glyph glyph-name="uniFB1A" unicode="ty" horiz-adv-x="1673" 
d="M1118 -487q-6 -15 -14.5 -20t-30.5 -5h-219q-16 0 -16 16q0 10 10 35l190 469l-305 610h-327v-286q0 -131 122 -131q47 0 123 39q15 7 27.5 1.5t17.5 -18.5l35 -102q8 -28 8 -37q0 -22 -28 -41q-37 -25 -99.5 -44t-128.5 -19q-155 0 -247.5 84t-92.5 245v309h-94
q-9 0 -19 10t-10 19v164q0 9 10 19t19 10h94v190q0 9 13 22t22 13h193q9 0 22 -13t13 -22v-190h471q21 0 31 -6t18 -21l194 -391q13 -24 23.5 -50t14.5 -40l5 -13h4l199 494q6 16 15 21.5t30 5.5h219q6 0 11.5 -5t5.5 -12q0 -6 -11 -35z" />
    <glyph glyph-name="uniFB1B" unicode="tty" horiz-adv-x="2381" 
d="M406 332q0 -131 122 -131q47 0 123 39q15 7 27.5 1.5t17.5 -18.5l35 -102q8 -28 8 -37q0 -22 -28 -41q-37 -25 -99.5 -44t-128.5 -19q-155 0 -247.5 84t-92.5 245v309h-94q-9 0 -19 10t-10 19v164q0 9 10 19t19 10h94v190q0 9 13 22t22 13h193q9 0 22 -13t13 -22v-190
h446v190q0 9 13 22t22 13h192q9 0 22 -13t13 -22v-190h471q21 0 31 -6t18 -21l195 -391q13 -24 23.5 -50t15.5 -40l4 -13h4l199 494q6 16 15 21.5t30 5.5h219q6 0 11 -5t5 -12q0 -8 -10 -35l-518 -1275q-6 -15 -14.5 -20t-30.5 -5h-219q-6 0 -11.5 4.5t-5.5 11.5q0 10 10 35
l191 469l-305 610h-328v-286q0 -131 123 -131q47 0 123 39q15 7 27.5 1.5t17.5 -18.5l35 -102q8 -28 8 -37q0 -22 -29 -41q-37 -25 -99 -44t-128 -19q-155 0 -247.5 84t-92.5 245v309h-446v-286z" />
    <glyph glyph-name="uniFB34" unicode="fty" horiz-adv-x="2277" 
d="M420 35q0 -9 -13 -22t-22 -13h-192q-9 0 -22 13t-13 22v583h-95q-9 0 -18.5 10t-9.5 19v164q0 9 9.5 19t18.5 10h95v178q0 169 103.5 261.5t268.5 92.5q114 0 187 -39q31 -15 31 -35q0 -7 -11 -36l-47 -111q-13 -33 -51 -18q-45 18 -88 18q-57 0 -94 -37.5t-37 -114.5
v-159h328v190q0 9 12.5 22t21.5 13h193q9 0 22 -13t13 -22v-190h471q21 0 31 -6t18 -21l194 -391q13 -24 23.5 -50t14.5 -40l5 -13h5l198 494q6 16 15 21.5t30 5.5h219q6 0 11.5 -5t5.5 -12q0 -8 -10 -35l-519 -1275q-6 -15 -14.5 -20t-30.5 -5h-219q-16 0 -16 16
q0 10 10 35l190 469l-305 610h-327v-286q0 -131 123 -131q46 0 122 39q15 7 27.5 1.5t17.5 -18.5l35 -102q8 -28 8 -37q0 -22 -28 -41q-37 -25 -99.5 -44t-128.5 -19q-155 0 -247 84t-92 245v309h-328v-583z" />
    <glyph glyph-name=".notdef" horiz-adv-x="962" 
d="M240 121h481v1261h-481v-1261zM121 0v1501h723v-1501h-723z" />
    <glyph glyph-name=".null" horiz-adv-x="0" 
 />
    <glyph glyph-name="nonmarkingreturn" horiz-adv-x="682" 
 />
    <glyph glyph-name="space" unicode=" " horiz-adv-x="450" 
 />
    <glyph glyph-name="exclam" unicode="!" horiz-adv-x="466" 
d="M295 1229q33 0 48 -21.5t15 -50.5v-147q0 -90 -16 -240t-32 -255l-17 -105h-117q-67 397 -67 600v147q0 28 16 50t47 22h123zM98 115q0 57 39 96t96 39t96.5 -39t39.5 -96t-39.5 -96t-96.5 -39t-96 39t-39 96z" />
    <glyph glyph-name="quotedbl" unicode="&#x22;" horiz-adv-x="733" 
d="M215 1249q52 0 76 -28.5t24 -75.5v-27q0 -48 -15.5 -141.5t-31.5 -162.5l-16 -69h-107q-63 264 -63 373v27q0 45 26 74.5t74 29.5h33zM551 1249q52 0 76 -28.5t24 -75.5v-27q0 -48 -15.5 -141.5t-31.5 -162.5l-16 -69h-107q-63 264 -63 373v27q0 45 26 74.5t74 29.5h33z
" />
    <glyph glyph-name="numbersign" unicode="#" horiz-adv-x="1351" 
d="M90 840h291l70 354q2 9 16.5 22t24.5 13h192q9 0 19 -11t10 -20q0 -6 -8 -47l-62 -311h170l70 354q2 9 16.5 22t24.5 13h192q9 0 19 -11t10 -20q0 -6 -8 -47l-62 -311h187v-140h-213l-39 -192h252v-139h-279l-65 -334q-2 -9 -16.5 -22t-24.5 -13h-193q-9 0 -19 13t-8 22
l64 334h-170l-66 -334q-2 -9 -16.5 -22t-24.5 -13h-192q-9 0 -19 13t-8 22l64 334h-199v139h225l39 192h-264v140zM578 508h170l38 192h-170z" />
    <glyph glyph-name="dollar" unicode="$" horiz-adv-x="1308" 
d="M457 0q-178 37 -276.5 136t-98.5 224v17q0 15 11 26t28 11h182q35 0 41 -31q20 -102 111 -145l2 2v286q-184 17 -279.5 97t-95.5 217q0 138 98 246t277 145v162h139v-144h35q11 0 33 -1t34 -1v146h140v-164q169 -38 258.5 -133t89.5 -217q0 -14 -10.5 -24.5t-28.5 -10.5
h-186q-32 0 -37 30q-5 25 -12 43t-25 39.5t-47 36.5l-2 -2v-274q200 -19 294.5 -107.5t94.5 -222.5q0 -50 -14 -98t-45 -95t-75.5 -85t-110 -68t-144.5 -45v-160h-140v144h-34q-13 0 -36 1t-32 1v-146h-139v164zM664 201h34v305l-102 8v-311q20 -2 68 -2zM629 1028
q-23 0 -33 -2v-289l102 -8v297q-23 2 -69 2zM965 375q0 95 -127 117v-267q64 22 95.5 62.5t31.5 87.5zM344 856q0 -39 24.5 -65t88.5 -39v247q-113 -48 -113 -143z" />
    <glyph glyph-name="percent" unicode="%" horiz-adv-x="1523" 
d="M68 952q0 127 87 212t218 85t219 -85t88 -212t-88 -211t-219 -84t-218 84t-87 211zM248 952q0 -58 35 -96.5t90 -38.5t91 39t36 96q0 58 -36 98t-91 40t-90 -40t-35 -98zM1186 1315l129 -98l-977 -1303l-129 98zM844 274q0 127 87 212t218 85t219 -85t88 -212t-88 -210.5
t-219 -83.5t-218 83.5t-87 210.5zM1024 274q0 -58 35 -96.5t90 -38.5t91 39t36 96q0 58 -36 98t-91 40t-90 -40t-35 -98z" />
    <glyph glyph-name="ampersand" unicode="&#x26;" horiz-adv-x="1425" 
d="M1245 655q22 0 29.5 -7.5t7.5 -22.5v-9q0 -101 -34 -203t-103 -180l229 -200q10 -10 10 -19q0 -14 -18 -14h-264q-25 0 -39 12l-90 78q-159 -110 -389 -110q-99 0 -182 21t-139 56t-95 81t-56.5 95t-17.5 99q0 103 57.5 181.5t178.5 139.5q-75 72 -110.5 131.5
t-35.5 128.5q0 144 111.5 240t300.5 96q96 0 175.5 -29.5t129 -78t76.5 -107.5t27 -121q0 -109 -62 -182t-209 -139l225 -193q31 43 46.5 105.5t15.5 122.5q0 28 33 28h192zM584 201q58 0 116 13t91 34l-281 244q-154 -64 -154 -156q0 -55 60 -95t168 -40zM442 913
q0 -40 24.5 -73.5t84.5 -85.5q103 41 148.5 79t45.5 80q0 47 -40 81t-109 34q-68 0 -111 -34t-43 -81z" />
    <glyph glyph-name="quotesingle" unicode="'" horiz-adv-x="397" 
d="M215 1249q52 0 76 -28.5t24 -75.5v-27q0 -48 -15.5 -141.5t-31.5 -162.5l-16 -69h-107q-63 264 -63 373v27q0 45 26 74.5t74 29.5h33z" />
    <glyph glyph-name="parenleft" unicode="(" horiz-adv-x="587" 
d="M328 547q0 -153 11.5 -262t37.5 -188t56 -130.5t79 -111.5q3 -4 9 -11t8.5 -10.5t7 -9t6.5 -8.5t5 -8t4 -8t2 -7t1 -8q0 -21 -34.5 -47.5t-59.5 -26.5q-28 0 -62 27q-58 47 -101 93t-86 115.5t-70 150.5t-43.5 195.5t-16.5 254.5q0 173 23.5 308t70 229.5t98.5 158.5
t125 123q34 27 62 27q26 0 60 -26.5t34 -49.5q0 -4 -1 -7.5t-3.5 -8.5t-4.5 -8.5t-6.5 -9.5l-7.5 -10t-9.5 -12t-10.5 -12q-48 -61 -78 -114t-56 -133.5t-38 -191.5t-12 -263z" />
    <glyph glyph-name="parenright" unicode=")" horiz-adv-x="587" 
d="M260 547q0 152 -12 263t-38 191.5t-56 133.5t-78 114q-4 4 -10.5 12t-9.5 12l-7.5 10t-6.5 9.5t-4.5 8.5t-3.5 8.5t-1 7.5q0 23 34 49.5t60 26.5q27 0 61 -27q58 -47 101.5 -94.5t86 -117.5t70 -153t44 -198.5t16.5 -255.5q0 -173 -23.5 -306t-70.5 -226.5t-98.5 -155
t-125.5 -121.5q-34 -27 -61 -27q-25 0 -59.5 26.5t-34.5 47.5q0 4 1 8t3.5 9t4.5 8.5t7 10t7.5 10t9.5 12t10 12.5q49 60 79 111.5t56 130.5t37.5 188t11.5 262z" />
    <glyph glyph-name="asterisk" unicode="*" horiz-adv-x="1015" 
d="M248 967l180 -97l10 9l-32 202v72q0 96 71 96h62q71 0 71 -96v-72l-35 -202l11 -7l182 95l68 22q93 27 114 -39l19 -59q23 -69 -70 -96l-68 -23l-202 -31l-4 -12l147 -143l41 -58q58 -78 0 -120l-51 -37q-57 -41 -115 37l-41 57l-92 184h-12l-92 -184l-41 -57
q-58 -78 -115 -37l-51 37q-58 42 0 120l41 58l147 143l-4 10l-203 33l-67 23q-93 27 -70 96l19 59q21 66 114 39z" />
    <glyph glyph-name="plus" unicode="+" horiz-adv-x="1024" 
d="M606 483v-307h-188v307h-316v189h316v307h188v-307h316v-189h-316z" />
    <glyph glyph-name="comma" unicode="," horiz-adv-x="446" 
d="M88 115q0 57 39 96t96 39q65 0 108.5 -46.5t43.5 -137.5q0 -116 -53.5 -200.5t-153.5 -119.5q-35 -12 -51 -12q-17 0 -25 16l-31 74q-4 9 -0.5 18.5t11.5 12.5q67 24 95 50.5t32 76.5v4q-48 8 -79.5 43.5t-31.5 85.5z" />
    <glyph glyph-name="hyphen" unicode="-" horiz-adv-x="696" 
d="M92 381v188h512v-188h-512z" />
    <glyph glyph-name="period" unicode="." horiz-adv-x="446" 
d="M88 115q0 57 39 96t96 39t96 -39t39 -96t-39 -96t-96 -39t-96 39t-39 96z" />
    <glyph glyph-name="slash" unicode="/" horiz-adv-x="948" 
d="M731 1393h197l-711 -1598h-197z" />
    <glyph glyph-name="zero" unicode="0" horiz-adv-x="1269" 
d="M88 614q0 285 147 460t400 175t400 -175t147 -460t-147 -459.5t-400 -174.5t-400 174.5t-147 459.5zM367 614q0 -185 70 -293t198 -108t198 108t70 293t-70 293.5t-198 108.5t-198 -108.5t-70 -293.5z" />
    <glyph glyph-name="one" unicode="1" horiz-adv-x="837" 
d="M694 31q0 -9 -10.5 -20t-19.5 -11h-218q-9 0 -19.5 11t-10.5 20v798l-4 2l-217 -161q-11 -7 -24 -6t-19 10l-105 139q-5 7 -4 20t8 19l527 397h116v-1218z" />
    <glyph glyph-name="two" unicode="2" horiz-adv-x="1236" 
d="M659 557q95 63 138 123.5t43 138.5q0 87 -61 142t-169 55q-233 0 -233 -244q0 -39 -33 -39h-211q-16 0 -25.5 9t-9.5 20q0 82 18 153t57.5 133t98.5 106t145 69.5t193 25.5q123 0 222 -36.5t160 -97.5t93.5 -137t32.5 -159q0 -124 -69.5 -226t-217.5 -202l-163 -110
l-78 -39v-9h518q9 0 19 -9.5t10 -18.5v-176q0 -9 -10 -19t-19 -10h-1030v166z" />
    <glyph glyph-name="three" unicode="3" horiz-adv-x="1216" 
d="M469 518q-9 0 -19 10t-10 19v155q0 9 10 19t19 10h135q107 0 155 35.5t48 103.5q0 64 -52.5 105t-156.5 41q-201 0 -215 -154q-3 -33 -31 -33h-213q-16 0 -25.5 8.5t-9.5 18.5q0 75 31 144.5t90 125.5t154.5 89.5t214.5 33.5q104 0 188.5 -21t140 -56.5t93 -83t53.5 -99
t16 -106.5q0 -71 -33.5 -130t-93.5 -94v-6q87 -37 133 -111t46 -161q0 -81 -32 -152t-95.5 -127.5t-168 -89t-239.5 -32.5q-133 0 -236 32t-165.5 88t-94.5 126.5t-32 152.5q0 13 9 21t26 8h210q30 0 33 -33q5 -73 68.5 -124.5t181.5 -51.5q125 0 190.5 50.5t65.5 131.5
q0 137 -215 137h-174z" />
    <glyph glyph-name="four" unicode="4" horiz-adv-x="1214" 
d="M1008 31q0 -9 -11 -20t-20 -11h-223q-9 0 -20 11t-11 20v207h-676v204l658 787h303v-758h127q9 0 18.5 -10t9.5 -19v-176q0 -9 -9.5 -18.5t-18.5 -9.5h-127v-207zM729 788l8 127l-6 3q-43 -68 -74 -105l-243 -291q-15 -16 -30 -29.5t-22 -18.5l-8 -5l2 -4q51 6 80 6h293
v317z" />
    <glyph glyph-name="five" unicode="5" horiz-adv-x="1206" 
d="M416 995l-31 -239l4 -2q115 65 264 65q121 0 214.5 -34.5t148 -92.5t81.5 -127t27 -145q0 -195 -141 -317.5t-377 -122.5q-122 0 -231.5 35t-188.5 106t-100 166q-4 18 -4 41q0 15 13 27t28 12h201q25 0 36 -25q22 -56 90 -92.5t156 -36.5q123 0 181.5 58.5t58.5 134.5
q0 29 -11.5 58t-36 57.5t-72 46.5t-110.5 18q-110 0 -215 -64q-42 -24 -57 -24q-29 0 -65 20l-164 92q-12 7 -16 16.5t-1 32.5l76 570h817q9 0 19 -10t10 -19v-176q0 -9 -10 -19t-19 -10h-575z" />
    <glyph glyph-name="six" unicode="6" horiz-adv-x="1249" 
d="M643 -20q-271 0 -413 163t-142 451q0 309 149.5 482t409.5 173q216 0 340.5 -98.5t124.5 -243.5q0 -28 -33 -28h-205q-15 0 -21.5 5.5t-12.5 22.5q-19 50 -71.5 79.5t-125.5 29.5q-55 0 -101 -16.5t-85.5 -52.5t-63.5 -102.5t-26 -158.5h6q42 50 123.5 83.5t179.5 33.5
q104 0 189 -24.5t139 -64t90.5 -91.5t51.5 -104t15 -105q0 -89 -34 -167.5t-97.5 -138t-163.5 -94t-223 -34.5zM643 569q-118 0 -187 -49.5t-69 -116.5q0 -79 69 -134.5t187 -55.5q117 0 178.5 53.5t61.5 132.5q0 68 -62 119t-178 51z" />
    <glyph glyph-name="seven" unicode="7" horiz-adv-x="1013" 
d="M55 995q-9 0 -18.5 10t-9.5 19v176q0 9 9.5 19t18.5 10h965v-25l-590 -1181q-12 -23 -47 -23h-256q-12 0 -12 12q0 11 6 23l493 956v4h-559z" />
    <glyph glyph-name="eight" unicode="8" horiz-adv-x="1232" 
d="M616 1249q228 0 360 -104t132 -260q0 -152 -141 -240v-2q84 -43 134 -117t50 -161q0 -181 -147.5 -283t-387.5 -102t-387 102t-147 283q0 87 50 161t134 117v2q-141 88 -141 240q0 155 132 259.5t359 104.5zM872 369q0 69 -66.5 114t-189.5 45t-189.5 -45t-66.5 -114
q0 -70 66 -113t190 -43t190 43t66 113zM838 879q0 58 -54 97.5t-168 39.5t-167.5 -39.5t-53.5 -97.5t53.5 -98t167.5 -40t168 40t54 98z" />
    <glyph glyph-name="nine" unicode="9" horiz-adv-x="1243" 
d="M600 1249q271 0 413 -161t142 -453q0 -309 -149.5 -482t-409.5 -173q-114 0 -206.5 30.5t-148.5 80.5t-86 109.5t-30 121.5q0 28 33 28h211q15 0 21.5 -5.5t12.5 -22.5q19 -50 71.5 -79.5t125.5 -29.5q55 0 103 18t86.5 55t62 100t25.5 146h-7q-41 -48 -121.5 -77
t-181.5 -29q-104 0 -189 24.5t-139 64t-90.5 91.5t-51.5 104t-15 105q0 89 35.5 167.5t100.5 138t164 94t218 34.5zM600 659q118 0 187 49.5t69 116.5q0 79 -69 135t-187 56q-117 0 -178.5 -54t-61.5 -133q0 -68 62 -119t178 -51z" />
    <glyph glyph-name="colon" unicode=":" horiz-adv-x="446" 
d="M88 115q0 57 39 96t96 39t96 -39t39 -96t-39 -96t-96 -39t-96 39t-39 96zM88 664q0 57 39 96t96 39t96 -39t39 -96t-39 -96.5t-96 -39.5t-96 39.5t-39 96.5z" />
    <glyph glyph-name="semicolon" unicode=";" horiz-adv-x="446" 
d="M86 664q0 57 39 96t96 39t96 -39t39 -96t-39 -96.5t-96 -39.5t-96 39.5t-39 96.5zM88 115q0 57 39 96t96 39q65 0 108.5 -46.5t43.5 -137.5q0 -116 -53.5 -200.5t-153.5 -119.5q-35 -12 -51 -12q-17 0 -25 16l-31 74q-4 9 -0.5 18.5t11.5 12.5q67 24 95 50.5t32 76.5v4
q-48 8 -79.5 43.5t-31.5 85.5z" />
    <glyph glyph-name="less" unicode="&#x3c;" horiz-adv-x="1024" 
d="M883 55h-62l-680 426v78l680 430h62v-168l-469 -297v-6l469 -293v-170z" />
    <glyph glyph-name="equal" unicode="=" horiz-adv-x="1024" 
d="M102 332v188h820v-188h-820zM102 643v188h820v-188h-820z" />
    <glyph glyph-name="greater" unicode="&#x3e;" horiz-adv-x="1024" 
d="M141 225q29 18 467 293v6q-90 55 -254.5 160t-212.5 135v170h62q291 -185 680 -430v-78q-42 -27 -294.5 -185.5t-385.5 -242.5h-62v172z" />
    <glyph glyph-name="question" unicode="?" horiz-adv-x="868" 
d="M84 903q-33 0 -33 31q0 142 105 228.5t268 86.5q168 0 275.5 -90t107.5 -241q0 -97 -47.5 -169.5t-151.5 -130.5l-28 -16q-31 -19 -43.5 -43.5t-12.5 -66.5v-72q0 -9 -13 -22t-22 -13h-180q-9 0 -22 13t-13 22v92q0 92 34.5 148t125.5 106l41 22q82 46 82 130
q0 51 -36.5 84.5t-96.5 33.5q-56 0 -89.5 -28.5t-33.5 -73.5q0 -31 -33 -31h-184zM264 115q0 57 39 96t96 39t96.5 -39t39.5 -96t-39.5 -96t-96.5 -39t-96 39t-39 96z" />
    <glyph glyph-name="at" unicode="@" horiz-adv-x="1751" 
d="M1419 -135q-249 -111 -538 -111q-164 0 -308 51.5t-251.5 145t-169.5 235t-62 312.5q0 172 61.5 315t168 237.5t249 146.5t305.5 52q164 0 309.5 -49t250.5 -135t166 -208.5t61 -262.5q0 -127 -51 -230.5t-150.5 -166t-230.5 -62.5q-189 0 -254 133h-8
q-93 -112 -226 -112q-116 0 -191 79.5t-75 210.5q0 108 46 202t135 153t202 59q128 0 193 -80h4l24 37q16 27 41 27h125q10 0 18.5 -9t8.5 -18t-6 -33l-95 -376q-15 -58 14 -93.5t85 -35.5q104 0 178 92.5t74 222.5q0 109 -48.5 204.5t-133.5 164t-206 108t-260 39.5
q-186 0 -332.5 -76.5t-229.5 -216t-83 -319.5q0 -177 83 -314.5t231.5 -213.5t337.5 -76q250 0 497 100zM795 336q83 0 161 123l31 127q-10 44 -41.5 69t-73.5 25q-75 0 -125.5 -68.5t-50.5 -156.5q0 -55 27.5 -87t71.5 -32z" />
    <glyph glyph-name="A" unicode="A" horiz-adv-x="1425" 
d="M1010 213h-598l-88 -186q-9 -18 -16.5 -22.5t-26.5 -4.5h-244q-17 0 -17 14q0 7 9 25l577 1190h213l578 -1190q8 -16 8 -25q0 -14 -16 -14h-244q-19 0 -26.5 4.5t-16.5 22.5zM510 430h405l-110 227q-19 39 -40.5 94t-33.5 91l-12 35h-12q-43 -132 -86 -220z" />
    <glyph glyph-name="B" unicode="B" horiz-adv-x="1325" 
d="M168 0q-9 0 -17 8t-8 17v1179q0 9 8 17t17 8h629q202 0 314 -95t112 -243q0 -145 -107 -232v-4q154 -98 154 -286q0 -176 -122.5 -272.5t-344.5 -96.5h-635zM774 233q115 0 166 36.5t51 111.5q0 70 -55.5 110.5t-167.5 40.5h-346v-299h352zM422 995v-250h356
q86 0 126 34.5t40 88.5q0 56 -46.5 91.5t-139.5 35.5h-336z" />
    <glyph glyph-name="C" unicode="C" horiz-adv-x="1437" 
d="M1112 733q-30 0 -35 33q-15 108 -107 179t-227 71q-161 0 -272 -112.5t-111 -289.5t108.5 -289t274.5 -112q138 0 227.5 62.5t106.5 166.5q3 20 11.5 27.5t27.5 7.5h205q13 0 24 -8.5t11 -22.5q0 -200 -171 -333t-442 -133q-185 0 -335 78.5t-238 224t-88 331.5
q0 139 51.5 258t140 201.5t210 129t259.5 46.5q141 0 259 -42t194 -111t118 -156.5t42 -179.5q0 -27 -33 -27h-211z" />
    <glyph glyph-name="D" unicode="D" horiz-adv-x="1449" 
d="M170 0q-9 0 -17 8t-8 17v1179q0 9 8 17t17 8h518q194 0 348 -74.5t243 -215.5t89 -325q0 -282 -178.5 -448t-497.5 -166h-522zM424 995v-762h268q192 0 295 101.5t103 279.5q0 173 -112.5 277t-289.5 104h-264z" />
    <glyph glyph-name="E" unicode="E" horiz-adv-x="1245" 
d="M424 512v-279h721q9 0 19 -9.5t10 -18.5v-176q0 -9 -10 -19t-19 -10h-975q-9 0 -17 8t-8 17v1179q0 9 8 17t17 8h963q9 0 18.5 -10t9.5 -19v-176q0 -9 -9.5 -19t-18.5 -10h-709v-250h647q9 0 19 -9.5t10 -18.5v-176q0 -9 -10 -19t-19 -10h-647z" />
    <glyph glyph-name="F" unicode="F" horiz-adv-x="1173" 
d="M170 0q-9 0 -17 8t-8 17v1179q0 9 8 17t17 8h922q9 0 18.5 -10t9.5 -19v-176q0 -9 -9.5 -19t-18.5 -10h-668v-307h598q9 0 19 -10t10 -19v-176q0 -9 -10 -18.5t-19 -9.5h-598v-430q0 -9 -8 -17t-17 -8h-229z" />
    <glyph glyph-name="G" unicode="G" horiz-adv-x="1488" 
d="M1407 553q0 -119 -42 -222.5t-121.5 -182t-204 -123.5t-279.5 -45q-139 0 -262.5 45t-215.5 125.5t-146 201t-54 262.5q0 184 89.5 330t244 225.5t344.5 79.5q122 0 225 -28.5t171 -74.5t116.5 -105t70.5 -118t23 -116q0 -27 -33 -27h-211q-25 0 -30 21
q-20 86 -103 150.5t-229 64.5q-169 0 -284.5 -113.5t-115.5 -288.5q0 -125 56.5 -218t146 -138t197.5 -45q159 0 257.5 67.5t104.5 161.5h-452q-9 0 -19 10t-10 19v156q0 9 10 18.5t19 9.5h737v-102z" />
    <glyph glyph-name="H" unicode="H" horiz-adv-x="1554" 
d="M1409 25q0 -9 -8 -17t-17 -8h-229q-9 0 -17 8t-8 17v436h-706v-436q0 -9 -8 -17t-17 -8h-229q-9 0 -17 8t-8 17v1179q0 9 8 17t17 8h229q9 0 17 -8t8 -17v-510h706v510q0 9 8 17t17 8h229q9 0 17 -8t8 -17v-1179z" />
    <glyph glyph-name="I" unicode="I" horiz-adv-x="569" 
d="M424 25q0 -9 -8 -17t-17 -8h-229q-9 0 -17 8t-8 17v1179q0 9 8 17t17 8h229q9 0 17 -8t8 -17v-1179z" />
    <glyph glyph-name="J" unicode="J" horiz-adv-x="1128" 
d="M295 377q0 -73 55 -118.5t142 -45.5q114 0 170.5 62t56.5 174v755q0 9 7.5 17t16.5 8h230q9 0 16.5 -8t7.5 -17v-753q0 -215 -127.5 -343t-377.5 -128q-117 0 -210.5 31.5t-150 84t-86 116t-29.5 132.5v64q0 11 11 21.5t24 10.5h215q9 0 19 -9.5t10 -18.5v-35z" />
    <glyph glyph-name="K" unicode="K" horiz-adv-x="1388" 
d="M1358 35q10 -10 10 -21q0 -14 -18 -14h-295q-30 0 -45 18l-406 467l-180 -174v-286q0 -9 -8 -17t-17 -8h-229q-9 0 -17 8t-8 17v1179q0 9 8 17t17 8h229q9 0 17 -8t8 -17v-542h4q35 38 78 79l475 465q23 23 53 23h291q9 0 13.5 -5t4.5 -10q0 -8 -14 -22l-530 -516z" />
    <glyph glyph-name="L" unicode="L" horiz-adv-x="1099" 
d="M1030 233q9 0 19 -9.5t10 -18.5v-176q0 -9 -10 -19t-19 -10h-860q-9 0 -17 8t-8 17v1179q0 9 8 17t17 8h229q9 0 17 -8t8 -17v-971h606z" />
    <glyph glyph-name="M" unicode="M" horiz-adv-x="1736" 
d="M1567 1229q9 0 16.5 -8t7.5 -17v-1179q0 -9 -7.5 -17t-16.5 -8h-230q-9 0 -16.5 8t-7.5 17v751h-6q-25 -61 -76 -131l-363 -510l-364 510q-22 31 -40.5 64t-25.5 50l-8 17h-6v-751q0 -9 -8 -17t-17 -8h-229q-9 0 -17 8t-8 17v1179q0 9 8 17t17 8h180q24 0 39 -21
l477 -667h4l478 667q15 21 38 21h181z" />
    <glyph glyph-name="N" unicode="N" horiz-adv-x="1554" 
d="M569 639q-29 29 -64 68.5t-55 64.5l-20 25h-6v-772q0 -9 -8 -17t-17 -8h-229q-9 0 -17 8t-8 17v1179q0 9 8 17t17 8h188l621 -631q30 -30 66 -71.5t57 -68.5l20 -26h8v772q0 9 8 17t17 8h229q9 0 17 -8t8 -17v-1179q0 -9 -8 -17t-17 -8h-188z" />
    <glyph glyph-name="O" unicode="O" horiz-adv-x="1519" 
d="M760 1249q138 0 261.5 -46.5t216 -128.5t146.5 -201.5t54 -258.5q0 -187 -93 -333.5t-246.5 -223.5t-338.5 -77t-338.5 77t-246.5 223.5t-93 333.5q0 139 54 258.5t146.5 201.5t216 128.5t261.5 46.5zM760 1016q-168 0 -284 -110.5t-116 -291.5t116 -291t284 -110
t283.5 110t115.5 291t-115.5 291.5t-283.5 110.5z" />
    <glyph glyph-name="P" unicode="P" horiz-adv-x="1257" 
d="M170 0q-9 0 -17 8t-8 17v1179q0 9 8 17t17 8h524q226 0 368 -125.5t142 -335.5q0 -139 -67.5 -243t-182.5 -157t-260 -53h-270v-290q0 -9 -8 -17t-17 -8h-229zM424 995v-458h248q119 0 186.5 63t67.5 168t-69.5 166t-184.5 61h-248z" />
    <glyph glyph-name="Q" unicode="Q" horiz-adv-x="1519" 
d="M760 1249q138 0 261.5 -46.5t216 -128.5t146.5 -201.5t54 -258.5q0 -265 -178 -440l137 -180q12 -15 12 -29q0 -17 -23 -35l-129 -92q-17 -12 -32 -12q-21 0 -35 20l-143 189q-138 -55 -287 -55q-185 0 -338.5 77t-246.5 223.5t-93 333.5q0 139 54 258.5t146.5 201.5
t216 128.5t261.5 46.5zM760 1016q-168 0 -284 -110.5t-116 -291.5t116 -291t284 -110t283.5 110t115.5 291t-115.5 291.5t-283.5 110.5z" />
    <glyph glyph-name="R" unicode="R" horiz-adv-x="1335" 
d="M145 1204q0 9 8 17t17 8h569q228 0 370 -116t142 -314q0 -135 -74 -230t-202 -139v-4q36 -39 65 -82l207 -303q13 -18 13 -27q0 -14 -17 -14h-272q-20 0 -33 20l-250 365h-264v-360q0 -9 -8 -17t-17 -8h-229q-9 0 -17 8t-8 17v1179zM424 995v-389h297q116 0 184 51.5
t68 141.5q0 91 -68 143.5t-184 52.5h-297z" />
    <glyph glyph-name="S" unicode="S" horiz-adv-x="1308" 
d="M319 414q35 0 41 -31q33 -170 304 -170q140 0 212 45.5t72 116.5q0 47 -39 79.5t-125 39.5l-319 26q-186 15 -284.5 98t-98.5 222q0 81 35.5 154t102.5 130t173.5 91t237.5 34q136 0 241.5 -30t169 -81.5t95.5 -117t32 -141.5q0 -14 -10.5 -24.5t-28.5 -10.5h-202
q-32 0 -37 30q-10 61 -73.5 101.5t-188.5 40.5t-197 -45t-72 -115q0 -93 150 -104l317 -27q204 -18 302 -109.5t98 -228.5q0 -75 -33 -145.5t-98.5 -130t-177 -95.5t-254.5 -36q-270 0 -426 110t-156 270v17q0 15 11 26t28 11h198z" />
    <glyph glyph-name="T" unicode="T" horiz-adv-x="1261" 
d="M49 995q-9 0 -19 10t-10 19v176q0 9 10 19t19 10h1163q9 0 19 -10t10 -19v-176q0 -9 -10 -19t-19 -10h-442v-970q0 -9 -8 -17t-17 -8h-229q-9 0 -16.5 8t-7.5 17v970h-443z" />
    <glyph glyph-name="U" unicode="U" horiz-adv-x="1515" 
d="M1106 1204q0 9 7.5 17t16.5 8h230q9 0 16.5 -8t7.5 -17v-616q0 -292 -168.5 -450t-457.5 -158t-458 158t-169 450v616q0 9 8 17t17 8h229q9 0 17 -8t8 -17v-614q0 -188 89.5 -282.5t258.5 -94.5t258.5 94.5t89.5 282.5v614z" />
    <glyph glyph-name="V" unicode="V" horiz-adv-x="1392" 
d="M610 610q19 -39 39 -89.5t31 -81.5l10 -31h12q37 114 80 202l285 592q9 18 16.5 22.5t26.5 4.5h246q16 0 16 -12q0 -7 -12 -31l-567 -1186h-193l-567 1186q-13 26 -13 31q0 12 17 12h246q19 0 26.5 -4.5t16.5 -22.5z" />
    <glyph glyph-name="W" unicode="W" horiz-adv-x="2121" 
d="M1546 0h-170l-282 672l-31 86h-4q-15 -51 -29 -86l-285 -672h-170l-546 1192q-9 18 -9 25q0 12 17 12h246q20 0 26 -4t15 -23l276 -588q14 -28 30.5 -72.5t25.5 -75.5l10 -30h8q20 78 49 144l272 649h131l273 -649q13 -30 25 -66t18 -57l6 -21h8q35 115 66 178l276 588
q9 19 15.5 23t25.5 4h246q16 0 16 -12q0 -9 -8 -25z" />
    <glyph glyph-name="X" unicode="X" horiz-adv-x="1366" 
d="M1333 29q8 -11 8 -17q0 -12 -12 -12h-291q-20 0 -28 4t-21 21l-321 399h-4q-84 -119 -125 -172l-179 -227q-13 -18 -21 -21.5t-28 -3.5h-274q-12 0 -12 12q0 6 8 17l469 606l-451 565q-8 11 -8 17q0 12 12 12h287q21 0 31 -5t24 -24l301 -375h4q39 62 86 123l197 252
q23 29 49 29h277q12 0 12 -12q0 -8 -8 -19l-455 -580z" />
    <glyph glyph-name="Y" unicode="Y" horiz-adv-x="1318" 
d="M31 1194q-11 16 -11 23q0 12 13 12h260q19 0 29 -5t20 -20l211 -297q20 -27 45.5 -68.5t41.5 -69.5l15 -28h9q55 100 102 166l211 297q17 25 49 25h260q12 0 12 -12q0 -8 -10 -23l-489 -702v-467q0 -9 -8 -17t-17 -8h-229q-9 0 -17 8t-8 17v467z" />
    <glyph glyph-name="Z" unicode="Z" horiz-adv-x="1380" 
d="M721 868q22 28 48 58t41 46l15 17v6h-704q-9 0 -19 10t-10 19v176q0 9 10 19t19 10h1208v-4l-690 -889q-19 -24 -41 -48.5t-34 -37.5l-13 -12v-5h729q9 0 19 -9.5t10 -18.5v-176q0 -9 -10 -19t-19 -10h-1229v4z" />
    <glyph glyph-name="bracketleft" unicode="[" horiz-adv-x="575" 
d="M145 1427h394v-163h-185v-1360h185v-164h-394v1687z" />
    <glyph glyph-name="backslash" unicode="\" horiz-adv-x="950" 
d="M930 -205h-197l-713 1598h197z" />
    <glyph glyph-name="bracketright" unicode="]" horiz-adv-x="575" 
d="M430 -260h-393v164h184v1360h-184v163h393v-1687z" />
    <glyph glyph-name="asciicircum" unicode="^" horiz-adv-x="1024" 
d="M72 614l368 615h144l368 -615h-221l-215 365h-8l-217 -365h-219z" />
    <glyph glyph-name="underscore" unicode="_" horiz-adv-x="1024" 
d="M1024 -283h-1024v140h1024v-140z" />
    <glyph glyph-name="grave" unicode="`" horiz-adv-x="593" 
d="M168 1384q24 21 57 21q45 0 74 -45l207 -293q12 -17 12 -29q0 -14 -18 -14h-99q-27 0 -41 12l-227 191q-33 28 -33 65q0 26 23 49z" />
    <glyph glyph-name="a" unicode="a" horiz-adv-x="1062" 
d="M537 645q57 0 106.5 -29.5t75.5 -80.5l-2 -173q-25 -82 -75.5 -127t-117.5 -45q-51 0 -104 39q-46 46 -58 113q-13 74 0 138.5t50 107.5q45 57 125 57zM522 -16q76 0 142 32q38 20 75 60l11 -23q8 -23 27 -37t36 -14h78q20 0 43 23q20 25 20 43l-2 682v28q-3 20 -22.5 38
t-40.5 18h-76q-39 0 -68 -48q-104 66 -229 66q-99 0 -168 -35q-75 -35 -127 -96q-63 -73 -85.5 -174t-2.5 -215q28 -160 141 -256q109 -92 248 -92z" />
    <glyph glyph-name="b" unicode="b" horiz-adv-x="1105" 
d="M371 774q47 41 114.5 63.5t137.5 22.5q184 0 292.5 -122t108.5 -316t-119 -318t-295 -124q-147 0 -266 90h-4l-21 -39q-16 -31 -40 -31h-146q-9 0 -22 13t-13 22v1282q0 9 13 22t22 13h193q9 0 21.5 -13t12.5 -22v-543h11zM762 422q0 98 -53.5 157.5t-141.5 59.5
q-70 0 -126.5 -39.5t-80.5 -101.5v-219q79 -76 201 -76q84 0 142.5 59t58.5 160z" />
    <glyph glyph-name="c" unicode="c" horiz-adv-x="1095" 
d="M1012 555q2 -12 2 -29q0 -15 -13 -28t-28 -13h-178q-12 0 -22 8t-13 19q-43 127 -195 127q-95 0 -157 -62.5t-62 -156.5t63.5 -156.5t168.5 -62.5q74 0 137 27t131 79q26 21 47 21q24 0 39 -23l65 -86q15 -20 15 -35q0 -22 -29 -51q-75 -70 -180 -111.5t-230 -41.5
q-138 0 -248.5 50.5t-176.5 151.5t-66 238q0 130 66 231.5t175.5 155t241.5 53.5q180 0 301 -82t146 -223z" />
    <glyph glyph-name="d" unicode="d" horiz-adv-x="1105" 
d="M764 84q-119 -104 -281 -104q-170 0 -285.5 121.5t-115.5 318.5q0 189 119.5 314.5t308.5 125.5q66 0 128.5 -18t96.5 -47h10v522q0 9 13 22t22 13h193q9 0 22 -13t13 -22v-1282q0 -9 -13 -22t-22 -13h-146q-19 0 -34 29l-25 55h-4zM344 420q0 -102 57.5 -160.5
t143.5 -58.5q106 0 200 90v233q-26 54 -77.5 84.5t-116.5 30.5q-91 0 -149 -61t-58 -158z" />
    <glyph glyph-name="e" unicode="e" horiz-adv-x="1110" 
d="M352 348q11 -76 79.5 -111.5t176.5 -35.5q125 0 256 78q26 16 47 16q25 0 37 -23l51 -100q11 -22 11 -33q0 -20 -27 -41q-150 -118 -385 -118q-147 0 -262.5 50t-184.5 151t-69 239q0 190 132.5 315t354.5 125t340.5 -110t118.5 -277q0 -28 -2.5 -59.5t-5.5 -48.5l-2 -17
h-666zM571 659q-78 0 -137.5 -35t-77.5 -100h410q-3 58 -53.5 96.5t-141.5 38.5z" />
    <glyph glyph-name="f" unicode="f" horiz-adv-x="739" 
d="M158 1018q0 169 103.5 261.5t268.5 92.5q123 0 211 -41q31 -15 31 -35q0 -9 -10 -36l-43 -111q-13 -31 -51 -19q-65 21 -113 21q-61 0 -98 -37t-37 -115v-159h256q9 0 19 -10t10 -19v-164q0 -9 -10 -19t-19 -10h-256v-583q0 -9 -13 -22t-22 -13h-192q-9 0 -22 13t-13 22
v583h-95q-9 0 -18.5 10t-9.5 19v164q0 9 9.5 19t18.5 10h95v178z" />
    <glyph glyph-name="g" unicode="g" horiz-adv-x="1007" 
d="M504 643q61 0 111.5 -29.5t78.5 -81.5v-182q-21 -80 -73 -129q-48 -45 -119 -45q-62 0 -109 41t-63 117q-14 75 -1.5 142.5t48.5 109.5q48 57 127 57zM526 -522q205 0 312 125q91 110 94 307l2 844q0 22 -2 28q-3 21 -23 39.5t-43 18.5h-80q-17 0 -31.5 -9t-19 -15.5
t-16.5 -22.5v-2q-103 67 -240 67q-92 0 -170 -35q-82 -37 -129 -98q-64 -76 -86.5 -182t0.5 -221q28 -167 152 -265q113 -96 258 -96q75 0 143 33q25 14 49 35v-119q0 -118 -53 -168q-46 -49 -137 -49q-105 0 -219 102q-20 20 -47 17q-21 0 -35 -17l-58 -69h-2
q-18 -24 -12 -50q11 -32 23 -41q71 -68 166 -110q110 -47 204 -47z" />
    <glyph glyph-name="h" unicode="h" horiz-adv-x="1075" 
d="M369 754q46 47 122.5 76.5t153.5 29.5q167 0 253.5 -90t86.5 -246v-489q0 -9 -13 -22t-22 -13h-194q-9 0 -22 13t-13 22v469q0 62 -38.5 98.5t-100.5 36.5q-71 0 -131.5 -40t-90.5 -103v-461q0 -9 -12.5 -22t-21.5 -13h-193q-9 0 -22 13t-13 22v1282q0 9 13 22t22 13h193
q9 0 21.5 -13t12.5 -22v-563h9z" />
    <glyph glyph-name="i" unicode="i" horiz-adv-x="458" 
d="M360 35q0 -9 -12.5 -22t-21.5 -13h-193q-9 0 -22 13t-13 22v770q0 9 13 22t22 13h193q9 0 21.5 -13t12.5 -22v-770zM78 1118q0 55 42 93t109 38q68 0 110 -38t42 -93t-42 -93t-110 -38q-67 0 -109 38t-42 93z" />
    <glyph glyph-name="j" unicode="j" horiz-adv-x="458" 
d="M360 -152q0 -178 -91.5 -279t-266.5 -101q-63 0 -125.5 20t-101.5 49q-29 23 -29 41q0 15 8 29l53 102q15 31 37 31q12 0 25 -8q67 -43 113 -43q57 0 86.5 38t29.5 109v969q0 9 13 22t22 13h193q9 0 21.5 -13t12.5 -22v-957zM78 1118q0 55 42 93t109 38q68 0 110 -38
t42 -93t-42 -93t-110 -38q-67 0 -109 38t-42 93z" />
    <glyph glyph-name="k" unicode="k" horiz-adv-x="1073" 
d="M1038 45q11 -14 11 -22q0 -23 -31 -23h-215q-33 0 -49.5 7.5t-38.5 35.5l-197 258l-158 -158v-108q0 -9 -12.5 -22t-21.5 -13h-193q-9 0 -22 13t-13 22v1282q0 9 13 22t22 13h193q9 0 21.5 -13t12.5 -22v-844h5q20 29 53 62l252 260q45 45 84 45h241q10 0 16.5 -7
t6.5 -16q0 -17 -14 -31l-302 -301z" />
    <glyph glyph-name="l" unicode="l" horiz-adv-x="458" 
d="M360 35q0 -9 -12.5 -22t-21.5 -13h-193q-9 0 -22 13t-13 22v1282q0 9 13 22t22 13h193q9 0 21.5 -13t12.5 -22v-1282z" />
    <glyph glyph-name="m" unicode="m" horiz-adv-x="1564" 
d="M98 805q0 9 13 22t22 13h154q26 0 39 -33l24 -66h8q111 119 275 119q71 0 136.5 -36t100.5 -97h7q124 133 299 133q145 0 222 -88.5t77 -239.5v-497q0 -9 -13 -22t-22 -13h-193q-9 0 -22 13t-13 22v483q0 58 -31 87.5t-79 29.5q-57 0 -109 -39t-75 -100v-461
q0 -9 -13 -22t-22 -13h-193q-9 0 -22 13t-13 22v483q0 57 -30.5 87t-79.5 30q-57 0 -109.5 -39t-75.5 -100v-461q0 -9 -12.5 -22t-21.5 -13h-193q-9 0 -22 13t-13 22v770z" />
    <glyph glyph-name="n" unicode="n" horiz-adv-x="1075" 
d="M721 504q0 62 -37 98.5t-100 36.5q-78 0 -137 -41t-87 -102v-461q0 -9 -12.5 -22t-21.5 -13h-193q-9 0 -22 13t-13 22v770q0 9 13 22t22 13h158q23 0 35 -35l22 -64h8q52 55 130.5 87t158.5 32q170 0 255 -92t85 -244v-489q0 -9 -13 -22t-22 -13h-194q-9 0 -22 13t-13 22
v469z" />
    <glyph glyph-name="o" unicode="o" horiz-adv-x="1130" 
d="M565 860q133 0 241.5 -50t175.5 -151.5t67 -238.5t-67 -238.5t-175.5 -151.5t-241.5 -50t-241.5 50t-175 151.5t-66.5 238.5t66.5 238.5t175 151.5t241.5 50zM786 420q0 96 -61.5 157.5t-159.5 61.5t-159.5 -61.5t-61.5 -157.5q0 -97 61.5 -158t159.5 -61t159.5 61
t61.5 158z" />
    <glyph glyph-name="p" unicode="p" horiz-adv-x="1105" 
d="M344 754q113 106 279 106q182 0 291.5 -122.5t109.5 -315.5q0 -197 -119 -319.5t-287 -122.5q-155 0 -251 75h-7v-532q0 -9 -12.5 -22t-21.5 -13h-193q-9 0 -22 13t-13 22v1282q0 9 13 22t22 13h146q19 0 32 -33l25 -53h8zM762 422q0 98 -53.5 157.5t-141.5 59.5
q-70 0 -126.5 -39.5t-80.5 -101.5v-219q79 -76 201 -76q84 0 142.5 59t58.5 160z" />
    <glyph glyph-name="q" unicode="q" horiz-adv-x="1105" 
d="M741 74q-94 -94 -258 -94q-80 0 -152.5 30.5t-128 85t-88 138t-32.5 182.5q0 189 120 316.5t300 127.5q91 0 148.5 -22.5t115.5 -67.5h4q26 54 41 65q8 5 16 5h146q9 0 22 -13t13 -22v-1282q0 -9 -13 -22t-22 -13h-193q-9 0 -22 13t-13 22v551h-4zM344 420
q0 -102 57.5 -160.5t143.5 -58.5q106 0 200 90v233q-26 54 -77.5 84.5t-116.5 30.5q-91 0 -149 -61t-58 -158z" />
    <glyph glyph-name="r" unicode="r" horiz-adv-x="929" 
d="M362 723q105 137 269 137q121 0 189.5 -75t68.5 -212v-86q0 -9 -13 -21.5t-22 -12.5h-192q-9 0 -22 12.5t-13 21.5v50q0 49 -25.5 75.5t-66.5 26.5q-53 0 -103.5 -43.5t-71.5 -103.5v-457q0 -9 -12.5 -22t-21.5 -13h-193q-9 0 -22 13t-13 22v770q0 9 13 22t22 13h160
q9 0 16.5 -7.5t14 -21.5t11 -27.5t10 -32.5t9.5 -28h8z" />
    <glyph glyph-name="s" unicode="s" horiz-adv-x="1017" 
d="M301 281q32 0 41 -29q10 -37 48.5 -54.5t129.5 -17.5q78 0 116 22t38 56q0 25 -23.5 39t-83.5 20l-202 19q-283 26 -283 233q0 119 106.5 205t305.5 86q192 0 296.5 -71.5t104.5 -178.5q0 -11 -9.5 -21.5t-23.5 -10.5h-176q-19 0 -29.5 6.5t-19.5 23.5q-28 51 -143 51
q-75 0 -112.5 -23.5t-37.5 -53.5q0 -44 80 -52l203 -18q170 -16 239.5 -78.5t69.5 -167.5q0 -54 -23 -103t-70.5 -91t-130.5 -67t-192 -25q-220 0 -329 76.5t-109 185.5q0 17 11 28t30 11h178z" />
    <glyph glyph-name="t" unicode="t" horiz-adv-x="772" 
d="M49 618q-9 0 -19 10t-10 19v164q0 9 10 19t19 10h94v190q0 9 13 22t22 13h193q9 0 22 -13t13 -22v-190h262q9 0 18.5 -10t9.5 -19v-164q0 -9 -9.5 -19t-18.5 -10h-262v-286q0 -131 122 -131q47 0 123 39q15 7 27.5 1.5t17.5 -18.5l35 -102q8 -28 8 -37q0 -22 -28 -41
q-37 -25 -99.5 -44t-128.5 -19q-155 0 -247.5 84t-92.5 245v309h-94z" />
    <glyph glyph-name="u" unicode="u" horiz-adv-x="1073" 
d="M731 88q-131 -108 -289 -108q-175 0 -263.5 99t-88.5 269v457q0 9 13 22t22 13h192q9 0 22 -13t13 -22v-445q0 -75 38.5 -117t101.5 -42q72 0 135 42.5t86 98.5v463q0 9 13 22t22 13h192q9 0 22 -13t13 -22v-770q0 -9 -13 -22t-22 -13h-143q-23 0 -37 37l-21 51h-8z" />
    <glyph glyph-name="v" unicode="v" horiz-adv-x="1028" 
d="M37 795q-10 20 -10 28q0 5 5 11t13 6h225q19 0 26.5 -4.5t16.5 -24.5l164 -362q10 -22 18.5 -47.5t11.5 -40.5l3 -15h8q13 58 33 103l164 362q9 20 16.5 24.5t26.5 4.5h225q8 0 13 -6t5 -11q0 -8 -10 -28l-364 -795h-226z" />
    <glyph glyph-name="w" unicode="w" horiz-adv-x="1435" 
d="M430 500q6 -16 13 -44t11 -48l3 -21h8q15 68 31 109l141 344h162l141 -344q7 -18 15.5 -45.5t12.5 -45.5l5 -18h8q13 78 27 113l125 311q9 20 15.5 24.5t25.5 4.5h219q16 0 16 -15q0 -8 -4 -18l-334 -807h-174l-141 344l-35 115h-6q-19 -78 -35 -115l-141 -344h-174
l-334 807q-4 10 -4 18q0 15 16 15h219q19 0 26.5 -4.5t14.5 -24.5z" />
    <glyph glyph-name="x" unicode="x" horiz-adv-x="1013" 
d="M25 16q0 10 16 31l297 391l-281 355q-14 19 -14 28q0 8 5.5 13.5t12.5 5.5h244q21 0 30.5 -4.5t20.5 -18.5l164 -205h4q12 23 43 64l107 141q11 14 20.5 18.5t30.5 4.5h231q19 0 19 -17q0 -6 -17 -30l-282 -371l297 -375q16 -21 16 -31q0 -16 -18 -16h-246q-22 0 -32.5 5
t-22.5 20l-178 223h-5q-18 -35 -47 -76l-110 -147q-19 -25 -54 -25h-233q-18 0 -18 16z" />
    <glyph glyph-name="y" unicode="y" horiz-adv-x="1062" 
d="M508 -487q-6 -15 -14.5 -20t-30.5 -5h-219q-6 0 -11.5 4.5t-5.5 11.5q0 8 11 35l190 469l-391 785q-10 20 -10 30q0 7 6 12t12 5h221q21 0 31 -6t18 -21l195 -391q13 -24 23.5 -50t14.5 -40l5 -13h4l199 494q6 16 15 21.5t30 5.5h219q6 0 11 -5t5 -12q0 -8 -10 -35z" />
    <glyph glyph-name="z" unicode="z" horiz-adv-x="933" 
d="M41 0v8l336 496q17 25 38.5 52t34.5 42l13 14v6h-367q-9 0 -18.5 10t-9.5 19v164q0 9 9.5 19t18.5 10h797v-15l-342 -503q-18 -26 -38.5 -50.5t-32.5 -35.5l-11 -11v-4h379q9 0 19 -9.5t10 -18.5v-164q0 -9 -10 -19t-19 -10h-807z" />
    <glyph glyph-name="braceleft" unicode="{" horiz-adv-x="624" 
d="M57 502v164h58q47 0 72.5 28.5t25.5 79.5q0 38 -33 155t-33 208q0 135 86 212.5t244 77.5q53 0 107 -8q20 -3 20 -24v-117q0 -9 -7 -15.5t-19 -5.5q-45 5 -76 5q-60 0 -94.5 -33.5t-34.5 -98.5q0 -47 30.5 -168t30.5 -188q0 -73 -27 -121t-77 -65v-8q50 -17 77 -65.5
t27 -121.5q0 -67 -30.5 -189t-30.5 -169q0 -64 34.5 -96.5t94.5 -32.5q26 0 76 4q11 1 18.5 -6t7.5 -15v-116q0 -22 -20 -25q-54 -8 -107 -8q-158 0 -244 78t-86 213q0 91 33 207.5t33 154.5q0 51 -25.5 80t-72.5 29h-58z" />
    <glyph glyph-name="bar" unicode="|" horiz-adv-x="491" 
d="M156 1393h180v-1598h-180v1598z" />
    <glyph glyph-name="braceright" unicode="}" horiz-adv-x="624" 
d="M510 502q-47 0 -72.5 -29t-25.5 -80q0 -38 32.5 -154.5t32.5 -207.5q0 -135 -86 -213t-244 -78q-52 0 -106 8q-21 4 -21 25v116q0 8 8 15t19 6q50 -4 76 -4q60 0 94.5 32.5t34.5 96.5q0 47 -31 169t-31 189q0 73 27.5 121.5t77.5 65.5v8q-105 37 -105 186q0 67 31 188
t31 168q0 65 -34.5 98.5t-94.5 33.5q-31 0 -76 -5q-12 -1 -19.5 5.5t-7.5 15.5v117q0 21 21 24q54 8 106 8q158 0 244 -77.5t86 -212.5q0 -91 -32.5 -208t-32.5 -155q0 -51 25.5 -79.5t72.5 -28.5h57v-164h-57z" />
    <glyph glyph-name="asciitilde" unicode="~" horiz-adv-x="1261" 
d="M63 369q0 213 82.5 326.5t231.5 113.5q67 0 129.5 -26.5t109 -64t88.5 -75t85.5 -64t82.5 -26.5q59 0 97.5 59.5t38.5 182.5h190q0 -213 -81.5 -326t-231.5 -113q-65 0 -127 26t-109 63.5t-89.5 75t-87 63.5t-83.5 26q-61 0 -98 -58t-37 -183h-191z" />
    <glyph glyph-name="uni00A0" unicode="&#xa0;" horiz-adv-x="450" 
 />
    <glyph glyph-name="exclamdown" unicode="&#xa1;" horiz-adv-x="466" 
d="M172 -451q-33 0 -48 21.5t-15 50.5v148q0 90 16.5 240t32.5 255l16 105h117q67 -397 67 -600v-148q0 -28 -16 -50t-47 -22h-123zM369 664q0 -57 -39.5 -96.5t-96.5 -39.5t-96 39.5t-39 96.5t39 96t96 39t96.5 -39t39.5 -96z" />
    <glyph glyph-name="cent" unicode="&#xa2;" horiz-adv-x="1095" 
d="M385 6q-138 44 -220.5 151.5t-82.5 262.5q0 130 66 231.5t175.5 155t241.5 53.5q8 0 24 -1t23 -1l52 186l135 -36l-47 -177q106 -34 173.5 -105t86.5 -171q2 -12 2 -29q0 -15 -13 -28t-28 -13h-178q-12 0 -22 8t-13 19q-20 60 -68 92h-2l-108 -403q73 0 134.5 27
t129.5 79q26 21 47 21q24 0 39 -23l65 -86q15 -20 15 -35q0 -22 -29 -51q-75 -70 -180 -111.5t-230 -41.5q-8 0 -24.5 1t-24.5 1l-49 -183l-135 37zM346 420q0 -60 26.5 -109t73.5 -78l109 406q-92 -4 -150.5 -66t-58.5 -153z" />
    <glyph glyph-name="sterling" unicode="&#xa3;" horiz-adv-x="1114" 
d="M215 610q-12 26 -46 79.5t-51.5 99.5t-17.5 102q0 154 113.5 256t318.5 102q215 0 329 -105.5t114 -275.5q0 -14 -10.5 -24t-28.5 -10h-197q-16 0 -23 6.5t-7 27.5q0 67 -49.5 113.5t-127.5 46.5q-81 0 -125.5 -41t-44.5 -106q0 -39 22 -80.5t55 -93t48 -97.5h318v-139
h-295v-20q0 -47 -16 -104.5t-41 -100.5q56 -3 136 -24t105 -21q50 0 73.5 23t23.5 61q0 17 9.5 27t24.5 10h195q33 0 33 -31q0 -300 -275 -311q-81 0 -208 31.5t-195 31.5q-83 0 -203 -57q-12 -6 -25 -6q-17 0 -30 32l-41 101q-10 23 -10 41q0 23 28 41q35 23 101 45
q53 99 53 231h-168v139h135z" />
    <glyph glyph-name="currency" unicode="&#xa4;" horiz-adv-x="1079" 
d="M348 614q0 -78 56.5 -134t134.5 -56t134 56t56 134t-56 134.5t-134 56.5t-134.5 -56.5t-56.5 -134.5zM727 301q-86 -55 -188 -55q-109 0 -189 53l-141 -143l-127 129l143 139q-55 90 -55 190q0 103 55 189l-143 141l127 127l141 -143q83 55 189 55q98 0 188 -55l141 143
l127 -127l-143 -143q55 -86 55 -187q0 -102 -55 -188l145 -141l-127 -127z" />
    <glyph glyph-name="yen" unicode="&#xa5;" horiz-adv-x="1267" 
d="M168 641h242v4q-36 41 -52 66l-344 489q-8 12 -8 17q0 12 14 12h246q20 0 29.5 -4.5t19.5 -20.5l238 -334q17 -24 36 -56t29 -52l11 -21h8q39 76 76 129l237 334q12 17 20.5 21t28.5 4h248q13 0 13 -12q0 -8 -7 -17l-344 -489q-10 -15 -23.5 -31.5t-21.5 -25.5l-8 -9v-4
h242v-139h-334v-113h334v-139h-334v-221q0 -9 -10 -19t-19 -10h-205q-9 0 -18.5 10t-9.5 19v221h-334v139h334v113h-334v139z" />
    <glyph glyph-name="brokenbar" unicode="&#xa6;" horiz-adv-x="491" 
d="M156 696v697h180v-697h-180zM336 492v-697h-180v697h180z" />
    <glyph glyph-name="section" unicode="&#xa7;" horiz-adv-x="1099" 
d="M977 164q0 -60 -25 -113.5t-73.5 -97.5t-130 -70t-185.5 -26q-205 0 -300 72t-95 190q0 17 11 28t28 11h166q36 0 39 -29q2 -43 35.5 -63.5t115.5 -20.5q71 0 112.5 26.5t41.5 69.5q0 50 -40 76.5t-112 38.5l-170 29q-272 47 -272 288v369q0 128 108.5 217.5t305.5 89.5
q196 0 295.5 -73.5t99.5 -176.5q0 -12 -9.5 -23t-23.5 -11h-178q-30 0 -41 32q-23 66 -143 66q-81 0 -119.5 -31t-38.5 -78q0 -48 36 -70t105 -34l158 -31q299 -57 299 -293v-362zM614 446q27 -4 53.5 -10t38.5 -10l13 -4l2 2v96q0 88 -115 109l-117 20q-30 5 -57 12.5
t-39 12.5l-12 4l-2 -2v-98q0 -90 100 -107z" />
    <glyph glyph-name="dieresis" unicode="&#xa8;" horiz-adv-x="856" 
d="M96 1169q0 57 39 96.5t96 39.5t96.5 -39.5t39.5 -96.5t-39.5 -96t-96.5 -39t-96 39t-39 96zM489 1169q0 57 39.5 96.5t96.5 39.5t96 -39.5t39 -96.5t-39 -96t-96 -39t-96.5 39t-39.5 96z" />
    <glyph glyph-name="copyright" unicode="&#xa9;" horiz-adv-x="1351" 
d="M102 635q0 156 77 288t209 208.5t288 76.5q117 0 223 -45.5t182.5 -122t122 -182.5t45.5 -223q0 -156 -76.5 -288t-208.5 -209t-288 -77t-288 77t-209 209t-77 288zM213 635q0 -195 134 -329t329 -134q127 0 233.5 61t168 167.5t61.5 234.5q0 193 -134.5 328t-328.5 135
q-128 0 -234.5 -61.5t-167.5 -168t-61 -233.5zM934 725q4 -12 4 -20t-7 -14.5t-16 -6.5h-65q-17 0 -21 18l-6 17q-29 86 -147 86q-78 0 -123 -47t-45 -123q0 -77 48.5 -123.5t131.5 -46.5q57 0 98 19t80 61q9 6 17 6q9 0 12 -6l37 -39q6 -6 6 -14q0 -6 -8 -17
q-87 -104 -242 -104q-126 0 -207.5 69t-81.5 195q0 125 78.5 194.5t198.5 69.5q221 0 258 -174z" />
    <glyph glyph-name="ordfeminine" unicode="&#xaa;" horiz-adv-x="700" 
d="M461 664q-90 -64 -203 -64q-100 0 -156.5 46.5t-56.5 119.5q0 71 59.5 119.5t176.5 48.5l172 -4v8q0 42 -27.5 69t-89.5 27q-92 0 -92 -53v-2q0 -12 -23 -12h-129q-6 0 -15 8t-9 14v6q0 76 68.5 127.5t201.5 51.5q147 0 221 -70t74 -182v-285q0 -6 -8.5 -14.5t-14.5 -8.5
h-106q-22 0 -39 50h-4zM297 727q98 0 156 51v43h-150q-78 0 -78 -45q0 -20 17.5 -34.5t54.5 -14.5z" />
    <glyph glyph-name="guillemotleft" unicode="&#xab;" horiz-adv-x="1011" 
d="M76 451q0 21 30 55l287 350q15 18 31 18q10 0 25 -6l63 -28q16 -8 16 -23q0 -9 -12 -33l-170 -333l170 -334q12 -24 12 -35q0 -13 -16 -21l-61 -28q-15 -6 -27 -6q-18 0 -31 16l-287 350q-30 37 -30 58zM498 451q0 21 30 55l287 350q15 18 31 18q9 0 24 -6l64 -28
q16 -8 16 -23q0 -9 -12 -33l-170 -333l170 -334q12 -24 12 -35q0 -13 -16 -21l-62 -28q-15 -6 -26 -6q-18 0 -31 16l-287 350q-30 37 -30 58z" />
    <glyph glyph-name="logicalnot" unicode="&#xac;" horiz-adv-x="1024" 
d="M922 236h-189v309h-631v188h820v-497z" />
    <glyph glyph-name="registered" unicode="&#xae;" horiz-adv-x="1351" 
d="M102 635q0 156 77 288t209 208.5t288 76.5q117 0 223 -45.5t182.5 -122t122 -182.5t45.5 -223q0 -156 -76.5 -288t-208.5 -209t-288 -77t-288 77t-209 209t-77 288zM213 635q0 -195 134 -329t329 -134q127 0 233.5 61t168 167.5t61.5 234.5q0 193 -134.5 328t-328.5 135
q-128 0 -234.5 -61.5t-167.5 -168t-61 -233.5zM932 721q0 -117 -135 -166v-6q23 -16 43 -43l102 -123v-8h-127l-133 162h-121v-162h-110v532h264q97 0 157 -51t60 -135zM561 815v-186h139q58 0 89.5 23.5t31.5 68.5q0 44 -31 69t-94 25h-135z" />
    <glyph glyph-name="macron" unicode="&#xaf;" horiz-adv-x="716" 
d="M100 1251h514v-164h-514v164z" />
    <glyph glyph-name="degree" unicode="&#xb0;" horiz-adv-x="806" 
d="M82 928q0 134 94 227.5t227 93.5q134 0 228 -94t94 -227q0 -134 -94.5 -228t-227.5 -94t-227 94t-94 228zM262 928q0 -59 41.5 -100.5t99.5 -41.5q59 0 100.5 42t41.5 100t-41.5 99.5t-100.5 41.5t-100 -41.5t-41 -99.5z" />
    <glyph glyph-name="plusminus" unicode="&#xb1;" horiz-adv-x="1024" 
d="M102 51v189h820v-189h-820zM606 586v-287h-188v287h-316v188h316v287h188v-287h316v-188h-316z" />
    <glyph glyph-name="uni00B2" unicode="&#xb2;" horiz-adv-x="843" 
d="M444 821q58 38 85.5 73.5t27.5 76.5q0 42 -36.5 72t-100.5 30q-67 0 -104 -33.5t-37 -93.5q0 -24 -21 -24h-170q-22 0 -22 18q0 63 21 117.5t63 98t111.5 68.5t158.5 25q161 0 255.5 -82t94.5 -194q0 -81 -45 -142.5t-145 -130.5l-76 -51l-58 -31v-4h318q6 0 12 -6t6 -12
v-139q0 -6 -6 -12.5t-12 -6.5h-696v129z" />
    <glyph glyph-name="uni00B3" unicode="&#xb3;" horiz-adv-x="837" 
d="M326 764q-5 0 -12 6t-7 12v121q0 6 7.5 12.5t13.5 6.5h98q111 0 111 75q0 32 -33 54t-92 22q-58 0 -90 -20t-37 -54q-3 -22 -23 -22h-170q-10 0 -15 5.5t-5 12.5q0 107 90.5 180.5t251.5 73.5q163 0 249.5 -69.5t86.5 -169.5q0 -44 -23 -83.5t-61 -62.5v-4
q116 -51 116 -174q0 -111 -95.5 -187.5t-274.5 -76.5q-174 0 -267.5 75.5t-93.5 186.5q0 18 23 18h162q23 0 28 -20q20 -84 152 -84q75 0 114 25t39 67q0 34 -28 54t-84 20h-131z" />
    <glyph glyph-name="acute" unicode="&#xb4;" horiz-adv-x="962" 
d="M760 1341q22 -22 22 -49q0 -38 -32 -65l-228 -191q-14 -12 -41 -12h-98q-18 0 -18 14q0 12 12 29l207 293q29 45 73 45q33 0 58 -21z" />
    <glyph glyph-name="uni00B5" unicode="&#xb5;" horiz-adv-x="1081" 
d="M739 88q-131 -108 -288 -108q-46 0 -91 10v-467q0 -9 -12.5 -22t-21.5 -13h-193q-9 0 -22 13t-13 22v1282q0 9 13 22t22 13h193q9 0 21.5 -13t12.5 -22v-445q0 -75 38.5 -117t101.5 -42q72 0 135 42.5t86 98.5v463q0 9 13 22t22 13h192q9 0 22 -13t13 -22v-770
q0 -9 -13 -22t-22 -13h-143q-23 0 -37 37l-20 51h-9z" />
    <glyph glyph-name="paragraph" unicode="&#xb6;" horiz-adv-x="1132" 
d="M776 1065h-164v-1188h-163v608q-59 0 -116 14.5t-107.5 44.5t-89 72t-61 101.5t-22.5 128.5q0 179 112.5 281t293.5 102h618v-164h-137v-1188h-164v1188z" />
    <glyph glyph-name="periodcentered" unicode="&#xb7;" horiz-adv-x="491" 
d="M111 512q0 57 39 96t96 39t96 -39t39 -96t-39 -96t-96 -39t-96 39t-39 96z" />
    <glyph glyph-name="cedilla" unicode="&#xb8;" horiz-adv-x="626" 
d="M86 -309q4 20 35 12q81 -18 143 -18q80 0 80 49q0 41 -57 41h-127q-43 0 -37 41l29 184h151l-4 -100h49q82 0 125 -45t43 -119q0 -86 -64 -138.5t-188 -52.5q-93 0 -170 23q-26 8 -26 24q0 11 4 27z" />
    <glyph glyph-name="uni00B9" unicode="&#xb9;" horiz-adv-x="610" 
d="M512 457q0 -5 -7 -12t-13 -7h-173q-6 0 -13 7t-7 12v504l-4 2l-139 -105q-6 -5 -15.5 -4.5t-13.5 6.5l-82 113q-10 15 4 26l334 250h129v-792z" />
    <glyph glyph-name="ordmasculine" unicode="&#xba;" horiz-adv-x="735" 
d="M369 1174q135 0 227 -76t92 -211t-92 -211t-227 -76q-136 0 -228 76t-92 211t92 211t228 76zM508 887q0 60 -39.5 97.5t-99.5 37.5q-63 0 -101.5 -37.5t-38.5 -97.5q0 -61 38.5 -98t101.5 -37q60 0 99.5 37.5t39.5 97.5z" />
    <glyph glyph-name="guillemotright" unicode="&#xbb;" horiz-adv-x="1011" 
d="M514 451q0 -20 -31 -58l-286 -350q-13 -16 -31 -16q-12 0 -27 6l-61 28q-17 9 -17 21q0 9 13 35l170 334l-170 333q-13 26 -13 33q0 15 17 23l63 28q15 6 25 6q16 0 31 -18l286 -350q31 -36 31 -55zM936 451q0 -20 -31 -58l-287 -350q-13 -16 -30 -16q-12 0 -27 6l-61 28
q-17 9 -17 21q0 9 13 35l170 334l-170 333q-13 26 -13 33q0 15 17 23l63 28q15 6 25 6q15 0 30 -18l287 -350q31 -36 31 -55z" />
    <glyph glyph-name="onequarter" unicode="&#xbc;" horiz-adv-x="1703" 
d="M512 457q0 -5 -7 -12t-13 -7h-173q-6 0 -13 7t-7 12v504l-4 2l-139 -105q-6 -5 -15.5 -4.5t-13.5 6.5l-82 113q-10 15 4 26l334 250h129v-792zM1276 1315l129 -98l-977 -1303l-129 98zM1559 20q0 -6 -7.5 -13t-13.5 -7h-172q-6 0 -13 7t-7 13v125h-457v152l426 514h244
v-489h92q6 0 12 -6.5t6 -12.5v-139q0 -6 -6 -12.5t-12 -6.5h-92v-125zM1346 489l6 97l-9 2q-30 -53 -53 -80l-119 -143q-9 -10 -20.5 -21t-18.5 -16l-8 -6l2 -5q37 5 64 5h156v167z" />
    <glyph glyph-name="onehalf" unicode="&#xbd;" horiz-adv-x="1851" 
d="M512 457q0 -5 -7 -12t-13 -7h-173q-6 0 -13 7t-7 12v504l-4 2l-139 -105q-6 -5 -15.5 -4.5t-13.5 6.5l-82 113q-10 15 4 26l334 250h129v-792zM1280 1315l129 -98l-977 -1303l-129 98zM1452 383q58 38 85.5 73t27.5 76q0 42 -37 72.5t-101 30.5q-67 0 -104 -33.5
t-37 -93.5q0 -25 -20 -25h-170q-10 0 -16.5 5.5t-6.5 13.5q0 63 21 117.5t63 98t111.5 68.5t158.5 25q161 0 256 -82t95 -194q0 -80 -45 -142t-146 -131l-76 -51l-57 -31v-4h318q6 0 12 -6t6 -12v-140q0 -6 -6 -12t-12 -6h-697v129z" />
    <glyph glyph-name="threequarters" unicode="&#xbe;" horiz-adv-x="1873" 
d="M326 764q-5 0 -12 6t-7 12v121q0 6 7.5 12.5t13.5 6.5h98q111 0 111 75q0 32 -33 54t-92 22q-58 0 -90 -20t-37 -54q-3 -22 -23 -22h-170q-10 0 -15 5.5t-5 12.5q0 107 90.5 180.5t251.5 73.5q163 0 249.5 -69.5t86.5 -169.5q0 -44 -23 -83.5t-61 -62.5v-4
q116 -51 116 -174q0 -111 -95.5 -187.5t-274.5 -76.5q-174 0 -267.5 75.5t-93.5 186.5q0 18 23 18h162q23 0 28 -20q20 -84 152 -84q75 0 114 25t39 67q0 34 -28 54t-84 20h-131zM1438 1315l129 -98l-977 -1303l-129 98zM1729 20q0 -6 -7.5 -13t-13.5 -7h-172q-6 0 -13 7
t-7 13v125h-457v152l426 514h244v-489h92q6 0 12 -6.5t6 -12.5v-139q0 -6 -6 -12.5t-12 -6.5h-92v-125zM1516 489l6 97l-9 2q-30 -53 -53 -80l-119 -143q-9 -10 -20.5 -21t-18.5 -16l-8 -6l2 -5q37 5 64 5h156v167z" />
    <glyph glyph-name="questiondown" unicode="&#xbf;" horiz-adv-x="868" 
d="M782 -125q33 0 33 -31q0 -142 -105 -228.5t-268 -86.5q-167 0 -275 90.5t-108 241.5q0 97 47.5 169t151.5 130l29 16q31 19 43 43.5t12 67.5v71q0 9 13 22t22 13h180q9 0 22 -13t13 -22v-92q0 -92 -34.5 -148t-125.5 -106l-41 -22q-82 -46 -82 -129q0 -51 36.5 -85
t96.5 -34q56 0 89.5 28.5t33.5 73.5q0 31 33 31h184zM602 664q0 -57 -39 -96.5t-96 -39.5t-96 39.5t-39 96.5t39 96t96 39t96 -39t39 -96z" />
    <glyph glyph-name="Agrave" unicode="&#xc0;" horiz-adv-x="1425" 
d="M1010 213h-598l-88 -186q-9 -18 -16.5 -22.5t-26.5 -4.5h-244q-17 0 -17 14q0 7 9 25l577 1190h213l578 -1190q8 -16 8 -25q0 -14 -16 -14h-244q-19 0 -26.5 4.5t-16.5 22.5zM510 430h405l-110 227q-19 39 -40.5 94t-33.5 91l-12 35h-12q-43 -132 -86 -220zM506 1696
q23 20 57 20q45 0 74 -45l207 -293q12 -17 12 -28q0 -15 -18 -15h-99q-25 0 -41 13l-227 190q-33 28 -33 66q0 26 23 49z" />
    <glyph glyph-name="Aacute" unicode="&#xc1;" horiz-adv-x="1425" 
d="M1010 213h-598l-88 -186q-9 -18 -16.5 -22.5t-26.5 -4.5h-244q-17 0 -17 14q0 7 9 25l577 1190h213l578 -1190q8 -16 8 -25q0 -14 -16 -14h-244q-19 0 -26.5 4.5t-16.5 22.5zM510 430h405l-110 227q-19 39 -40.5 94t-33.5 91l-12 35h-12q-43 -132 -86 -220zM963 1653
q22 -22 22 -49q0 -38 -33 -66l-227 -190q-16 -13 -41 -13h-98q-19 0 -19 15q0 10 13 28l206 293q29 45 74 45q35 0 58 -20z" />
    <glyph glyph-name="Acircumflex" unicode="&#xc2;" horiz-adv-x="1425" 
d="M1010 213h-598l-88 -186q-9 -18 -16.5 -22.5t-26.5 -4.5h-244q-17 0 -17 14q0 7 9 25l577 1190h213l578 -1190q8 -16 8 -25q0 -14 -16 -14h-244q-19 0 -26.5 4.5t-16.5 22.5zM510 430h405l-110 227q-19 39 -40.5 94t-33.5 91l-12 35h-12q-43 -132 -86 -220zM721 1702
q45 0 84 -39l239 -231q21 -21 21 -37q0 -19 -18 -31l-43 -31q-18 -12 -33 -12q-18 0 -47 20l-211 148l-211 -148q-29 -20 -47 -20q-15 0 -33 12l-43 31q-19 13 -19 31q0 16 21 37l240 231q39 39 84 39h16z" />
    <glyph glyph-name="Atilde" unicode="&#xc3;" horiz-adv-x="1425" 
d="M1010 213h-598l-88 -186q-9 -18 -16.5 -22.5t-26.5 -4.5h-244q-17 0 -17 14q0 7 9 25l577 1190h213l578 -1190q8 -16 8 -25q0 -14 -16 -14h-244q-19 0 -26.5 4.5t-16.5 22.5zM510 430h405l-110 227q-19 39 -40.5 94t-33.5 91l-12 35h-12q-43 -132 -86 -220zM389 1335
q-39 0 -39 33q0 260 199 260q80 0 141 -43l78 -55q47 -35 82 -35q33 0 48 25.5t15 81.5q0 12 8.5 19t22.5 7h88q39 0 39 -33q0 -260 -199 -260q-80 0 -141 43l-78 56q-49 34 -82 34t-48 -25t-15 -81q0 -12 -8.5 -19.5t-22.5 -7.5h-88z" />
    <glyph glyph-name="Adieresis" unicode="&#xc4;" horiz-adv-x="1425" 
d="M1010 213h-598l-88 -186q-9 -18 -16.5 -22.5t-26.5 -4.5h-244q-17 0 -17 14q0 7 9 25l577 1190h213l578 -1190q8 -16 8 -25q0 -14 -16 -14h-244q-19 0 -26.5 4.5t-16.5 22.5zM510 430h405l-110 227q-19 39 -40.5 94t-33.5 91l-12 35h-12q-43 -132 -86 -220zM379 1477
q0 57 39 96t96 39t96 -39t39 -96t-39 -96.5t-96 -39.5t-96 39.5t-39 96.5zM772 1477q0 57 39 96t96 39t96 -39t39 -96t-39 -96.5t-96 -39.5t-96 39.5t-39 96.5z" />
    <glyph glyph-name="Aring" unicode="&#xc5;" horiz-adv-x="1425" 
d="M1010 213h-598l-88 -186q-9 -18 -16.5 -22.5t-26.5 -4.5h-244q-17 0 -17 14q0 7 9 25l577 1190h213l578 -1190q8 -16 8 -25q0 -14 -16 -14h-244q-19 0 -26.5 4.5t-16.5 22.5zM510 430h405l-110 227q-19 39 -40.5 94t-33.5 91l-12 35h-12q-43 -132 -86 -220zM475 1524
q0 90 66 152.5t170 62.5q102 0 168.5 -62.5t66.5 -152.5q0 -91 -66 -154t-169 -63q-104 0 -170 63t-66 154zM625 1524q0 -38 24.5 -62t61.5 -24t61.5 24t24.5 62q0 35 -24.5 59.5t-61.5 24.5t-61.5 -24.5t-24.5 -59.5z" />
    <glyph glyph-name="AE" unicode="&#xc6;" horiz-adv-x="1847" 
d="M326 27q-9 -18 -16.5 -22.5t-26.5 -4.5h-244q-8 0 -13.5 4.5t-5.5 9.5t11 27l565 1141q23 47 72 47h1065q9 0 18.5 -10t9.5 -19v-176q0 -9 -9.5 -19t-18.5 -10h-654v-250h592q9 0 19 -9.5t10 -18.5v-176q0 -9 -10 -19t-19 -10h-592v-279h668q9 0 19 -9.5t10 -18.5v-176
q0 -9 -10 -19t-19 -10h-922q-9 0 -16.5 8t-7.5 17v186h-385zM524 430h277v555h-19q-43 -125 -90 -219z" />
    <glyph glyph-name="Ccedilla" unicode="&#xc7;" horiz-adv-x="1437" 
d="M1112 733q-30 0 -35 33q-15 108 -107 179t-227 71q-161 0 -272 -112.5t-111 -289.5t108.5 -289t274.5 -112q138 0 227.5 62.5t106.5 166.5q3 20 11.5 27.5t27.5 7.5h205q13 0 24 -8.5t11 -22.5q0 -200 -171 -333t-442 -133q-185 0 -335 78.5t-238 224t-88 331.5
q0 139 51.5 258t140 201.5t210 129t259.5 46.5q141 0 259 -42t194 -111t118 -156.5t42 -179.5q0 -27 -33 -27h-211zM610 -309q4 20 35 12q81 -18 143 -18q80 0 80 49q0 41 -57 41h-127q-43 0 -37 41l29 184h151l-4 -100h49q82 0 125 -45t43 -119q0 -86 -64 -138.5
t-188 -52.5q-93 0 -170 23q-26 8 -26 24q0 11 4 27z" />
    <glyph glyph-name="Egrave" unicode="&#xc8;" horiz-adv-x="1245" 
d="M424 512v-279h721q9 0 19 -9.5t10 -18.5v-176q0 -9 -10 -19t-19 -10h-975q-9 0 -17 8t-8 17v1179q0 9 8 17t17 8h963q9 0 18.5 -10t9.5 -19v-176q0 -9 -9.5 -19t-18.5 -10h-709v-250h647q9 0 19 -9.5t10 -18.5v-176q0 -9 -10 -19t-19 -10h-647zM465 1698q23 20 57 20
q45 0 74 -45l207 -293q12 -17 12 -28q0 -15 -18 -15h-99q-25 0 -41 13l-227 190q-33 28 -33 66q0 26 23 49z" />
    <glyph glyph-name="Eacute" unicode="&#xc9;" horiz-adv-x="1245" 
d="M424 512v-279h721q9 0 19 -9.5t10 -18.5v-176q0 -9 -10 -19t-19 -10h-975q-9 0 -17 8t-8 17v1179q0 9 8 17t17 8h963q9 0 18.5 -10t9.5 -19v-176q0 -9 -9.5 -19t-18.5 -10h-709v-250h647q9 0 19 -9.5t10 -18.5v-176q0 -9 -10 -19t-19 -10h-647zM860 1653q23 -23 23 -49
q0 -38 -33 -66l-227 -190q-16 -13 -41 -13h-99q-18 0 -18 15q0 11 12 28l207 293q29 45 74 45q34 0 57 -20z" />
    <glyph glyph-name="Ecircumflex" unicode="&#xca;" horiz-adv-x="1245" 
d="M424 512v-279h721q9 0 19 -9.5t10 -18.5v-176q0 -9 -10 -19t-19 -10h-975q-9 0 -17 8t-8 17v1179q0 9 8 17t17 8h963q9 0 18.5 -10t9.5 -19v-176q0 -9 -9.5 -19t-18.5 -10h-709v-250h647q9 0 19 -9.5t10 -18.5v-176q0 -9 -10 -19t-19 -10h-647zM659 1681q45 0 84 -39
l240 -231q21 -21 21 -37q0 -18 -19 -31l-43 -30q-20 -13 -33 -13q-17 0 -47 21l-211 147l-211 -147q-30 -21 -47 -21q-13 0 -33 13l-43 30q-18 12 -18 31q0 17 20 37l240 231q39 39 84 39h16z" />
    <glyph glyph-name="Edieresis" unicode="&#xcb;" horiz-adv-x="1245" 
d="M424 512v-279h721q9 0 19 -9.5t10 -18.5v-176q0 -9 -10 -19t-19 -10h-975q-9 0 -17 8t-8 17v1179q0 9 8 17t17 8h963q9 0 18.5 -10t9.5 -19v-176q0 -9 -9.5 -19t-18.5 -10h-709v-250h647q9 0 19 -9.5t10 -18.5v-176q0 -9 -10 -19t-19 -10h-647zM317 1477q0 57 39.5 96
t96.5 39t96 -39t39 -96t-39 -96.5t-96 -39.5t-96.5 39.5t-39.5 96.5zM711 1477q0 57 39 96t96 39t96 -39t39 -96t-39 -96.5t-96 -39.5t-96 39.5t-39 96.5z" />
    <glyph glyph-name="Igrave" unicode="&#xcc;" horiz-adv-x="569" 
d="M424 25q0 -9 -8 -17t-17 -8h-229q-9 0 -17 8t-8 17v1179q0 9 8 17t17 8h229q9 0 17 -8t8 -17v-1179zM51 1696q23 20 58 20q44 0 73 -45l207 -293q12 -17 12 -28q0 -15 -18 -15h-98q-25 0 -41 13l-228 190q-32 27 -32 66q0 27 22 49z" />
    <glyph glyph-name="Iacute" unicode="&#xcd;" horiz-adv-x="569" 
d="M424 25q0 -9 -8 -17t-17 -8h-229q-9 0 -17 8t-8 17v1179q0 9 8 17t17 8h229q9 0 17 -8t8 -17v-1179zM565 1653q23 -23 23 -49q0 -38 -33 -66l-227 -190q-16 -13 -41 -13h-99q-18 0 -18 15q0 11 12 28l207 293q29 45 74 45q34 0 57 -20z" />
    <glyph glyph-name="Icircumflex" unicode="&#xce;" horiz-adv-x="569" 
d="M424 25q0 -9 -8 -17t-17 -8h-229q-9 0 -17 8t-8 17v1179q0 9 8 17t17 8h229q9 0 17 -8t8 -17v-1179zM293 1702q45 0 84 -39l239 -231q21 -21 21 -37q0 -18 -19 -31l-43 -31q-18 -12 -32 -12q-18 0 -47 20l-211 148l-211 -148q-29 -20 -47 -20q-15 0 -33 12l-43 31
q-19 13 -19 31q0 16 21 37l240 231q39 39 83 39h17z" />
    <glyph glyph-name="Idieresis" unicode="&#xcf;" horiz-adv-x="569" 
d="M424 25q0 -9 -8 -17t-17 -8h-229q-9 0 -17 8t-8 17v1179q0 9 8 17t17 8h229q9 0 17 -8t8 -17v-1179zM-47 1477q0 57 39 96t96 39t96 -39t39 -96t-39 -96.5t-96 -39.5t-96 39.5t-39 96.5zM346 1477q0 57 39 96t96 39t96 -39t39 -96t-39 -96.5t-96 -39.5t-96 39.5t-39 96.5
z" />
    <glyph glyph-name="Eth" unicode="&#xd0;" horiz-adv-x="1449" 
d="M23 684h122v520q0 9 8 17t17 8h518q194 0 348 -74.5t243 -215.5t89 -325q0 -282 -178.5 -448t-497.5 -166h-522q-9 0 -17 8t-8 17v520h-122v139zM424 995v-311h266v-139h-266v-312h268q192 0 295 101.5t103 279.5q0 173 -112.5 277t-289.5 104h-264z" />
    <glyph glyph-name="Ntilde" unicode="&#xd1;" horiz-adv-x="1554" 
d="M569 639q-29 29 -64 68.5t-55 64.5l-20 25h-6v-772q0 -9 -8 -17t-17 -8h-229q-9 0 -17 8t-8 17v1179q0 9 8 17t17 8h188l621 -631q30 -30 66 -71.5t57 -68.5l20 -26h8v772q0 9 8 17t17 8h229q9 0 17 -8t8 -17v-1179q0 -9 -8 -17t-17 -8h-188zM461 1335q-39 0 -39 33
q0 260 199 260q80 0 141 -43l78 -55q47 -35 82 -35q33 0 48 25.5t15 81.5q0 12 8.5 19t22.5 7h88q39 0 39 -33q0 -260 -199 -260q-80 0 -141 43l-78 56q-49 34 -82 34t-48 -25t-15 -81q0 -12 -8.5 -19.5t-22.5 -7.5h-88z" />
    <glyph glyph-name="Ograve" unicode="&#xd2;" horiz-adv-x="1519" 
d="M760 1249q138 0 261.5 -46.5t216 -128.5t146.5 -201.5t54 -258.5q0 -187 -93 -333.5t-246.5 -223.5t-338.5 -77t-338.5 77t-246.5 223.5t-93 333.5q0 139 54 258.5t146.5 201.5t216 128.5t261.5 46.5zM760 1016q-168 0 -284 -110.5t-116 -291.5t116 -291t284 -110
t283.5 110t115.5 291t-115.5 291.5t-283.5 110.5zM489 1696q23 20 58 20q45 0 74 -45l206 -293q13 -18 13 -28q0 -15 -19 -15h-98q-25 0 -41 13l-227 190q-33 28 -33 66q0 27 22 49z" />
    <glyph glyph-name="Oacute" unicode="&#xd3;" horiz-adv-x="1519" 
d="M760 1249q138 0 261.5 -46.5t216 -128.5t146.5 -201.5t54 -258.5q0 -187 -93 -333.5t-246.5 -223.5t-338.5 -77t-338.5 77t-246.5 223.5t-93 333.5q0 139 54 258.5t146.5 201.5t216 128.5t261.5 46.5zM760 1016q-168 0 -284 -110.5t-116 -291.5t116 -291t284 -110
t283.5 110t115.5 291t-115.5 291.5t-283.5 110.5zM1059 1653q22 -22 22 -49q0 -39 -32 -66l-228 -190q-16 -13 -41 -13h-98q-18 0 -18 15q0 11 12 28l207 293q29 45 73 45q35 0 58 -20z" />
    <glyph glyph-name="Ocircumflex" unicode="&#xd4;" horiz-adv-x="1519" 
d="M760 1249q138 0 261.5 -46.5t216 -128.5t146.5 -201.5t54 -258.5q0 -187 -93 -333.5t-246.5 -223.5t-338.5 -77t-338.5 77t-246.5 223.5t-93 333.5q0 139 54 258.5t146.5 201.5t216 128.5t261.5 46.5zM760 1016q-168 0 -284 -110.5t-116 -291.5t116 -291t284 -110
t283.5 110t115.5 291t-115.5 291.5t-283.5 110.5zM770 1702q45 0 84 -39l240 -231q20 -20 20 -37q0 -19 -18 -31l-43 -31q-18 -12 -33 -12q-18 0 -47 20l-211 148l-211 -148q-29 -20 -47 -20q-15 0 -33 12l-43 31q-18 12 -18 31q0 17 20 37l240 231q39 39 84 39h16z" />
    <glyph glyph-name="Otilde" unicode="&#xd5;" horiz-adv-x="1519" 
d="M760 1249q138 0 261.5 -46.5t216 -128.5t146.5 -201.5t54 -258.5q0 -187 -93 -333.5t-246.5 -223.5t-338.5 -77t-338.5 77t-246.5 223.5t-93 333.5q0 139 54 258.5t146.5 201.5t216 128.5t261.5 46.5zM760 1016q-168 0 -284 -110.5t-116 -291.5t116 -291t284 -110
t283.5 110t115.5 291t-115.5 291.5t-283.5 110.5zM438 1335q-39 0 -39 33q0 260 199 260q80 0 141 -43l78 -55q47 -35 82 -35q64 0 64 107q0 26 30 26h88q39 0 39 -33q0 -260 -198 -260q-81 0 -142 43l-78 56q-49 34 -81 34q-33 0 -48.5 -25t-15.5 -81q0 -12 -8.5 -19.5
t-22.5 -7.5h-88z" />
    <glyph glyph-name="Odieresis" unicode="&#xd6;" horiz-adv-x="1519" 
d="M760 1249q138 0 261.5 -46.5t216 -128.5t146.5 -201.5t54 -258.5q0 -187 -93 -333.5t-246.5 -223.5t-338.5 -77t-338.5 77t-246.5 223.5t-93 333.5q0 139 54 258.5t146.5 201.5t216 128.5t261.5 46.5zM760 1016q-168 0 -284 -110.5t-116 -291.5t116 -291t284 -110
t283.5 110t115.5 291t-115.5 291.5t-283.5 110.5zM428 1477q0 57 39 96t96 39t96 -39t39 -96t-39 -96.5t-96 -39.5t-96 39.5t-39 96.5zM821 1477q0 57 39 96t96 39t96.5 -39t39.5 -96t-39.5 -96.5t-96.5 -39.5t-96 39.5t-39 96.5z" />
    <glyph glyph-name="multiply" unicode="&#xd7;" horiz-adv-x="1024" 
d="M645 578l244 -244l-133 -133l-244 243l-244 -243l-133 133l244 244l-244 243l133 133l244 -243l244 243l133 -133z" />
    <glyph glyph-name="Oslash" unicode="&#xd8;" horiz-adv-x="1519" 
d="M760 1249q231 0 411 -125l125 125l99 -98l-117 -117q160 -178 160 -420q0 -187 -93 -333.5t-246.5 -223.5t-338.5 -77q-239 0 -414 122l-127 -129l-98 99l121 121q-160 170 -160 421q0 139 54 258.5t146.5 201.5t216 128.5t261.5 46.5zM760 1016q-168 0 -284 -110.5
t-116 -291.5q0 -135 68 -235l565 567q-103 70 -233 70zM1159 614q0 136 -67 234l-566 -567q100 -68 234 -68q168 0 283.5 110t115.5 291z" />
    <glyph glyph-name="Ugrave" unicode="&#xd9;" horiz-adv-x="1515" 
d="M1106 1204q0 9 7.5 17t16.5 8h230q9 0 16.5 -8t7.5 -17v-616q0 -292 -168.5 -450t-457.5 -158t-458 158t-169 450v616q0 9 8 17t17 8h229q9 0 17 -8t8 -17v-614q0 -188 89.5 -282.5t258.5 -94.5t258.5 94.5t89.5 282.5v614zM530 1696q23 20 58 20q45 0 74 -45l206 -293
q13 -18 13 -28q0 -15 -19 -15h-98q-25 0 -41 13l-227 190q-33 28 -33 66q0 27 22 49z" />
    <glyph glyph-name="Uacute" unicode="&#xda;" horiz-adv-x="1515" 
d="M1106 1204q0 9 7.5 17t16.5 8h230q9 0 16.5 -8t7.5 -17v-616q0 -292 -168.5 -450t-457.5 -158t-458 158t-169 450v616q0 9 8 17t17 8h229q9 0 17 -8t8 -17v-614q0 -188 89.5 -282.5t258.5 -94.5t258.5 94.5t89.5 282.5v614zM1028 1653q23 -23 23 -49q0 -38 -33 -66
l-227 -190q-16 -13 -41 -13h-99q-18 0 -18 15q0 11 12 28l207 293q29 45 74 45q34 0 57 -20z" />
    <glyph glyph-name="Ucircumflex" unicode="&#xdb;" horiz-adv-x="1515" 
d="M1106 1204q0 9 7.5 17t16.5 8h230q9 0 16.5 -8t7.5 -17v-616q0 -292 -168.5 -450t-457.5 -158t-458 158t-169 450v616q0 9 8 17t17 8h229q9 0 17 -8t8 -17v-614q0 -188 89.5 -282.5t258.5 -94.5t258.5 94.5t89.5 282.5v614zM766 1702q45 0 84 -39l240 -231q20 -20 20 -37
q0 -19 -18 -31l-43 -31q-18 -12 -33 -12q-18 0 -47 20l-211 148l-211 -148q-29 -20 -47 -20q-15 0 -33 12l-43 31q-18 12 -18 31q0 17 20 37l240 231q39 39 84 39h16z" />
    <glyph glyph-name="Udieresis" unicode="&#xdc;" horiz-adv-x="1515" 
d="M1106 1204q0 9 7.5 17t16.5 8h230q9 0 16.5 -8t7.5 -17v-616q0 -292 -168.5 -450t-457.5 -158t-458 158t-169 450v616q0 9 8 17t17 8h229q9 0 17 -8t8 -17v-614q0 -188 89.5 -282.5t258.5 -94.5t258.5 94.5t89.5 282.5v614zM424 1477q0 57 39 96t96 39t96 -39t39 -96
t-39 -96.5t-96 -39.5t-96 39.5t-39 96.5zM817 1477q0 57 39 96t96 39t96 -39t39 -96t-39 -96.5t-96 -39.5t-96 39.5t-39 96.5z" />
    <glyph glyph-name="Yacute" unicode="&#xdd;" horiz-adv-x="1318" 
d="M31 1194q-11 16 -11 23q0 12 13 12h260q19 0 29 -5t20 -20l211 -297q20 -27 45.5 -68.5t41.5 -69.5l15 -28h9q55 100 102 166l211 297q17 25 49 25h260q12 0 12 -12q0 -8 -10 -23l-489 -702v-467q0 -9 -8 -17t-17 -8h-229q-9 0 -17 8t-8 17v467zM952 1653q23 -23 23 -49
q0 -38 -33 -66l-227 -190q-16 -13 -41 -13h-99q-18 0 -18 15q0 11 12 28l207 293q29 45 74 45q34 0 57 -20z" />
    <glyph glyph-name="Thorn" unicode="&#xde;" horiz-adv-x="1271" 
d="M424 840v-459h248q119 0 186.5 63t67.5 168t-69.5 166.5t-184.5 61.5h-248zM694 1073q226 0 368 -125.5t142 -335.5q0 -139 -67.5 -242.5t-182.5 -156.5t-260 -53h-270v-135q0 -9 -8 -17t-17 -8h-229q-9 0 -17 8t-8 17v1179q0 9 8 17t17 8h229q9 0 17 -8t8 -17v-131h270z
" />
    <glyph glyph-name="germandbls" unicode="&#xdf;" horiz-adv-x="1157" 
d="M537 219q4 15 19.5 21t29.5 0q80 -39 131 -39q54 0 82 32t28 74q0 71 -104 119l-53 25q-92 42 -133 95.5t-41 127.5q0 48 24 94.5t52.5 78.5t52.5 75.5t24 85.5q0 63 -38.5 103t-104.5 40t-106 -46.5t-40 -133.5v-936q0 -9 -12.5 -22t-21.5 -13h-193q-9 0 -22 13t-13 22
v919q0 196 112 307t296 111q190 0 297.5 -96.5t107.5 -251.5q0 -61 -24 -115.5t-52.5 -87t-52.5 -68t-24 -63.5q0 -44 65 -74l54 -24q213 -97 213 -289q0 -63 -20 -119.5t-60 -102.5t-106.5 -73.5t-151.5 -27.5q-127 0 -230 59q-29 17 -20 51z" />
    <glyph glyph-name="agrave" unicode="&#xe0;" horiz-adv-x="1062" 
d="M721 84q-139 -104 -320 -104q-153 0 -234 74t-81 186t87.5 184t268.5 72q54 0 120 -4t106 -8l39 -3l4 2v23q0 68 -46.5 106.5t-142.5 38.5q-138 0 -141 -86v-4q-3 -18 -35 -18h-192q-9 0 -22 13t-13 22v8q0 122 99.5 198t305.5 76q227 0 338 -106t111 -279v-440
q0 -9 -13 -22t-22 -13h-152q-22 0 -34 27l-25 57h-6zM446 180q72 0 146.5 21t118.5 51v63h-248q-115 0 -115 -69q0 -29 24.5 -47.5t73.5 -18.5zM299 1384q24 21 57 21q45 0 74 -45l207 -293q12 -17 12 -29q0 -14 -18 -14h-99q-26 0 -40 12l-228 191q-33 28 -33 65
q0 26 23 49z" />
    <glyph glyph-name="aacute" unicode="&#xe1;" horiz-adv-x="1062" 
d="M721 84q-139 -104 -320 -104q-153 0 -234 74t-81 186t87.5 184t268.5 72q54 0 120 -4t106 -8l39 -3l4 2v23q0 68 -46.5 106.5t-142.5 38.5q-138 0 -141 -86v-4q-3 -18 -35 -18h-192q-9 0 -22 13t-13 22v8q0 122 99.5 198t305.5 76q227 0 338 -106t111 -279v-440
q0 -9 -13 -22t-22 -13h-152q-22 0 -34 27l-25 57h-6zM446 180q72 0 146.5 21t118.5 51v63h-248q-115 0 -115 -69q0 -29 24.5 -47.5t73.5 -18.5zM844 1341q22 -22 22 -49q0 -38 -32 -65l-228 -191q-14 -12 -41 -12h-98q-18 0 -18 14q0 12 12 29l207 293q29 45 73 45
q33 0 58 -21z" />
    <glyph glyph-name="acircumflex" unicode="&#xe2;" horiz-adv-x="1062" 
d="M721 84q-139 -104 -320 -104q-153 0 -234 74t-81 186t87.5 184t268.5 72q54 0 120 -4t106 -8l39 -3l4 2v23q0 68 -46.5 106.5t-142.5 38.5q-138 0 -141 -86v-4q-3 -18 -35 -18h-192q-9 0 -22 13t-13 22v8q0 122 99.5 198t305.5 76q227 0 338 -106t111 -279v-440
q0 -9 -13 -22t-22 -13h-152q-22 0 -34 27l-25 57h-6zM446 180q72 0 146.5 21t118.5 51v63h-248q-115 0 -115 -69q0 -29 24.5 -47.5t73.5 -18.5zM535 1395q44 0 83 -39l240 -232q21 -21 21 -37q0 -17 -19 -30l-43 -31q-18 -12 -33 -12q-18 0 -47 20l-211 148l-211 -148
q-29 -20 -47 -20q-14 0 -32 12l-43 31q-19 13 -19 30q0 16 21 37l239 232q39 39 84 39h17z" />
    <glyph glyph-name="atilde" unicode="&#xe3;" horiz-adv-x="1062" 
d="M721 84q-139 -104 -320 -104q-153 0 -234 74t-81 186t87.5 184t268.5 72q54 0 120 -4t106 -8l39 -3l4 2v23q0 68 -46.5 106.5t-142.5 38.5q-138 0 -141 -86v-4q-3 -18 -35 -18h-192q-9 0 -22 13t-13 22v8q0 122 99.5 198t305.5 76q227 0 338 -106t111 -279v-440
q0 -9 -13 -22t-22 -13h-152q-22 0 -34 27l-25 57h-6zM446 180q72 0 146.5 21t118.5 51v63h-248q-115 0 -115 -69q0 -29 24.5 -47.5t73.5 -18.5zM213 1022q-39 0 -39 33q0 260 199 260q80 0 141 -43l78 -55q47 -35 82 -35q33 0 48 25t15 81q0 12 8.5 19.5t22.5 7.5h88
q39 0 39 -33q0 -260 -199 -260q-80 0 -141 43l-78 55q-51 35 -82 35q-33 0 -48 -25t-15 -81q0 -12 -8.5 -19.5t-22.5 -7.5h-88z" />
    <glyph glyph-name="adieresis" unicode="&#xe4;" horiz-adv-x="1062" 
d="M721 84q-139 -104 -320 -104q-153 0 -234 74t-81 186t87.5 184t268.5 72q54 0 120 -4t106 -8l39 -3l4 2v23q0 68 -46.5 106.5t-142.5 38.5q-138 0 -141 -86v-4q-3 -18 -35 -18h-192q-9 0 -22 13t-13 22v8q0 122 99.5 198t305.5 76q227 0 338 -106t111 -279v-440
q0 -9 -13 -22t-22 -13h-152q-22 0 -34 27l-25 57h-6zM446 180q72 0 146.5 21t118.5 51v63h-248q-115 0 -115 -69q0 -29 24.5 -47.5t73.5 -18.5zM197 1149q0 57 39 96t96 39t96 -39t39 -96t-39 -96t-96 -39t-96 39t-39 96zM590 1149q0 57 39 96t96 39t96 -39t39 -96t-39 -96
t-96 -39t-96 39t-39 96z" />
    <glyph glyph-name="aring" unicode="&#xe5;" horiz-adv-x="1062" 
d="M721 84q-139 -104 -320 -104q-153 0 -234 74t-81 186t87.5 184t268.5 72q54 0 120 -4t106 -8l39 -3l4 2v23q0 68 -46.5 106.5t-142.5 38.5q-138 0 -141 -86v-4q-3 -18 -35 -18h-192q-9 0 -22 13t-13 22v8q0 122 99.5 198t305.5 76q227 0 338 -106t111 -279v-440
q0 -9 -13 -22t-22 -13h-152q-22 0 -34 27l-25 57h-6zM446 180q72 0 146.5 21t118.5 51v63h-248q-115 0 -115 -69q0 -29 24.5 -47.5t73.5 -18.5zM295 1243q0 90 66 152.5t169 62.5q102 0 169 -63t67 -152q0 -91 -66.5 -154t-169.5 -63q-104 0 -169.5 63t-65.5 154zM444 1243
q0 -38 24.5 -62t61.5 -24t61.5 24t24.5 62q0 35 -24.5 59.5t-61.5 24.5t-61.5 -24.5t-24.5 -59.5z" />
    <glyph glyph-name="ae" unicode="&#xe6;" horiz-adv-x="1732" 
d="M975 336q20 -65 87 -100t169 -35q119 0 256 78q26 16 47 16q26 0 37 -23l51 -100q10 -20 10 -33q0 -21 -26 -41q-150 -118 -385 -118q-251 0 -390 133h-8q-84 -68 -177.5 -100.5t-215.5 -32.5q-158 0 -251 71.5t-93 188.5q0 112 87.5 184t268.5 72h269v10
q0 68 -46.5 106.5t-142.5 38.5q-138 0 -141 -86v-4q-3 -18 -35 -18h-192q-9 0 -22 13t-13 22v8q0 122 99.5 198t305.5 76q222 0 332 -110h6q126 110 330 110q222 0 340.5 -110t118.5 -277q0 -32 -3.5 -66.5t-6.5 -52.5l-3 -18h-663zM1194 659q-85 0 -143.5 -36.5
t-71.5 -116.5h410q-3 72 -52.5 112.5t-142.5 40.5zM463 180q79 0 140 21.5t126 66.5q-13 38 -18 68h-248q-62 0 -88.5 -22t-26.5 -54q0 -36 31.5 -58t83.5 -22z" />
    <glyph glyph-name="ccedilla" unicode="&#xe7;" horiz-adv-x="1095" 
d="M1012 555q2 -12 2 -29q0 -15 -13 -28t-28 -13h-178q-12 0 -22 8t-13 19q-43 127 -195 127q-95 0 -157 -62.5t-62 -156.5t63.5 -156.5t168.5 -62.5q74 0 137 27t131 79q26 21 47 21q24 0 39 -23l65 -86q15 -20 15 -35q0 -22 -29 -51q-75 -70 -180 -111.5t-230 -41.5
q-138 0 -248.5 50.5t-176.5 151.5t-66 238q0 130 66 231.5t175.5 155t241.5 53.5q180 0 301 -82t146 -223zM420 -309q4 20 35 12q81 -18 143 -18q80 0 80 49q0 41 -57 41h-127q-43 0 -37 41l28 184h152l-4 -100h49q82 0 125 -45t43 -119q0 -86 -64 -138.5t-188 -52.5
q-93 0 -170 23q-27 8 -27 24q0 7 5 27z" />
    <glyph glyph-name="egrave" unicode="&#xe8;" horiz-adv-x="1110" 
d="M352 348q11 -76 79.5 -111.5t176.5 -35.5q125 0 256 78q26 16 47 16q25 0 37 -23l51 -100q11 -22 11 -33q0 -20 -27 -41q-150 -118 -385 -118q-147 0 -262.5 50t-184.5 151t-69 239q0 190 132.5 315t354.5 125t340.5 -110t118.5 -277q0 -28 -2.5 -59.5t-5.5 -48.5l-2 -17
h-666zM571 659q-78 0 -137.5 -35t-77.5 -100h410q-3 58 -53.5 96.5t-141.5 38.5zM317 1384q24 21 58 21q45 0 74 -45l206 -293q13 -18 13 -29q0 -14 -19 -14h-98q-27 0 -41 12l-227 191q-33 28 -33 65q0 27 22 49z" />
    <glyph glyph-name="eacute" unicode="&#xe9;" horiz-adv-x="1110" 
d="M352 348q11 -76 79.5 -111.5t176.5 -35.5q125 0 256 78q26 16 47 16q25 0 37 -23l51 -100q11 -22 11 -33q0 -20 -27 -41q-150 -118 -385 -118q-147 0 -262.5 50t-184.5 151t-69 239q0 190 132.5 315t354.5 125t340.5 -110t118.5 -277q0 -28 -2.5 -59.5t-5.5 -48.5l-2 -17
h-666zM571 659q-78 0 -137.5 -35t-77.5 -100h410q-3 58 -53.5 96.5t-141.5 38.5zM874 1341q23 -23 23 -49q0 -37 -33 -65l-227 -191q-14 -12 -41 -12h-98q-19 0 -19 14q0 11 13 29l206 293q29 45 74 45q32 0 57 -21z" />
    <glyph glyph-name="ecircumflex" unicode="&#xea;" horiz-adv-x="1110" 
d="M352 348q11 -76 79.5 -111.5t176.5 -35.5q125 0 256 78q26 16 47 16q25 0 37 -23l51 -100q11 -22 11 -33q0 -20 -27 -41q-150 -118 -385 -118q-147 0 -262.5 50t-184.5 151t-69 239q0 190 132.5 315t354.5 125t340.5 -110t118.5 -277q0 -28 -2.5 -59.5t-5.5 -48.5l-2 -17
h-666zM571 659q-78 0 -137.5 -35t-77.5 -100h410q-3 58 -53.5 96.5t-141.5 38.5zM578 1395q45 0 84 -39l239 -232q21 -21 21 -37q0 -17 -19 -30l-43 -31q-18 -12 -33 -12q-18 0 -47 20l-211 148l-211 -148q-29 -20 -47 -20q-14 0 -32 12l-43 31q-19 13 -19 30q0 16 21 37
l239 232q39 39 84 39h17z" />
    <glyph glyph-name="edieresis" unicode="&#xeb;" horiz-adv-x="1110" 
d="M352 348q11 -76 79.5 -111.5t176.5 -35.5q125 0 256 78q26 16 47 16q25 0 37 -23l51 -100q11 -22 11 -33q0 -20 -27 -41q-150 -118 -385 -118q-147 0 -262.5 50t-184.5 151t-69 239q0 190 132.5 315t354.5 125t340.5 -110t118.5 -277q0 -28 -2.5 -59.5t-5.5 -48.5l-2 -17
h-666zM571 659q-78 0 -137.5 -35t-77.5 -100h410q-3 58 -53.5 96.5t-141.5 38.5zM242 1145q0 57 39 96t96 39t96 -39t39 -96t-39 -96t-96 -39t-96 39t-39 96zM635 1145q0 57 39 96t96 39t96 -39t39 -96t-39 -96t-96 -39t-96 39t-39 96z" />
    <glyph glyph-name="igrave" unicode="&#xec;" horiz-adv-x="458" 
d="M360 35q0 -9 -12.5 -22t-21.5 -13h-193q-9 0 -22 13t-13 22v770q0 9 13 22t22 13h193q9 0 21.5 -13t12.5 -22v-770zM-6 1384q24 21 57 21q45 0 74 -45l207 -293q12 -17 12 -29q0 -14 -18 -14h-99q-27 0 -41 12l-227 191q-33 28 -33 65q0 26 23 49z" />
    <glyph glyph-name="iacute" unicode="&#xed;" horiz-adv-x="458" 
d="M360 35q0 -9 -12.5 -22t-21.5 -13h-193q-9 0 -22 13t-13 22v770q0 9 13 22t22 13h193q9 0 21.5 -13t12.5 -22v-770zM502 1341q22 -22 22 -49q0 -38 -32 -65l-228 -191q-14 -12 -41 -12h-98q-19 0 -19 14q0 11 13 29l207 293q29 45 73 45q33 0 58 -21z" />
    <glyph glyph-name="icircumflex" unicode="&#xee;" horiz-adv-x="458" 
d="M360 35q0 -9 -12.5 -22t-21.5 -13h-193q-9 0 -22 13t-13 22v770q0 9 13 22t22 13h193q9 0 21.5 -13t12.5 -22v-770zM238 1395q45 0 84 -39l239 -232q21 -21 21 -37q0 -17 -19 -30l-43 -31q-18 -12 -33 -12q-18 0 -47 20l-211 148l-211 -148q-29 -20 -47 -20q-14 0 -32 12
l-43 31q-19 13 -19 30q0 16 21 37l239 232q39 39 84 39h17z" />
    <glyph glyph-name="idieresis" unicode="&#xef;" horiz-adv-x="458" 
d="M360 35q0 -9 -12.5 -22t-21.5 -13h-193q-9 0 -22 13t-13 22v770q0 9 13 22t22 13h193q9 0 21.5 -13t12.5 -22v-770zM-102 1141q0 57 39 96t96 39t96 -39t39 -96t-39 -96t-96 -39t-96 39t-39 96zM291 1141q0 57 39 96t96 39t96 -39t39 -96t-39 -96t-96 -39t-96 39t-39 96z
" />
    <glyph glyph-name="eth" unicode="&#xf0;" horiz-adv-x="1134" 
d="M393 1120v2q-68 30 -198 64q-31 7 -23 45l27 115q6 26 30 26t64 -8q165 -36 305 -109l176 117l78 -117l-125 -81q161 -122 243.5 -295t82.5 -371q0 -235 -133 -381.5t-357 -146.5q-214 0 -347.5 119.5t-133.5 320.5q0 101 37.5 186t99.5 139.5t141 84.5t164 30
q123 0 211 -57l6 4q-67 150 -204 240l-234 -156l-80 117zM782 418q0 107 -63.5 164t-161.5 57q-93 0 -153 -61.5t-60 -157.5q0 -95 60.5 -157t158.5 -62q45 0 82.5 14.5t62 37.5t42 52.5t25 58t7.5 54.5z" />
    <glyph glyph-name="ntilde" unicode="&#xf1;" horiz-adv-x="1075" 
d="M721 504q0 62 -37 98.5t-100 36.5q-78 0 -137 -41t-87 -102v-461q0 -9 -12.5 -22t-21.5 -13h-193q-9 0 -22 13t-13 22v770q0 9 13 22t22 13h158q23 0 35 -35l22 -64h8q52 55 130.5 87t158.5 32q170 0 255 -92t85 -244v-489q0 -9 -13 -22t-22 -13h-194q-9 0 -22 13t-13 22
v469zM215 1024q-39 0 -39 33q0 260 199 260q80 0 141 -43l78 -55q47 -35 82 -35q33 0 48 25t15 81q0 12 8.5 19.5t22.5 7.5h88q39 0 39 -33q0 -260 -199 -260q-80 0 -141 43l-78 55q-51 35 -82 35q-33 0 -48 -25t-15 -81q0 -12 -8.5 -19.5t-22.5 -7.5h-88z" />
    <glyph glyph-name="ograve" unicode="&#xf2;" horiz-adv-x="1130" 
d="M565 860q133 0 241.5 -50t175.5 -151.5t67 -238.5t-67 -238.5t-175.5 -151.5t-241.5 -50t-241.5 50t-175 151.5t-66.5 238.5t66.5 238.5t175 151.5t241.5 50zM786 420q0 96 -61.5 157.5t-159.5 61.5t-159.5 -61.5t-61.5 -157.5q0 -97 61.5 -158t159.5 -61t159.5 61
t61.5 158zM287 1384q24 21 57 21q45 0 74 -45l207 -293q12 -17 12 -29q0 -14 -19 -14h-98q-27 0 -41 12l-227 191q-33 28 -33 65q0 26 23 49z" />
    <glyph glyph-name="oacute" unicode="&#xf3;" horiz-adv-x="1130" 
d="M565 860q133 0 241.5 -50t175.5 -151.5t67 -238.5t-67 -238.5t-175.5 -151.5t-241.5 -50t-241.5 50t-175 151.5t-66.5 238.5t66.5 238.5t175 151.5t241.5 50zM786 420q0 96 -61.5 157.5t-159.5 61.5t-159.5 -61.5t-61.5 -157.5q0 -97 61.5 -158t159.5 -61t159.5 61
t61.5 158zM881 1341q22 -22 22 -49q0 -37 -33 -65l-227 -191q-14 -12 -41 -12h-98q-19 0 -19 14q0 11 13 29l207 293q29 45 73 45q34 0 58 -21z" />
    <glyph glyph-name="ocircumflex" unicode="&#xf4;" horiz-adv-x="1130" 
d="M565 860q133 0 241.5 -50t175.5 -151.5t67 -238.5t-67 -238.5t-175.5 -151.5t-241.5 -50t-241.5 50t-175 151.5t-66.5 238.5t66.5 238.5t175 151.5t241.5 50zM786 420q0 96 -61.5 157.5t-159.5 61.5t-159.5 -61.5t-61.5 -157.5q0 -97 61.5 -158t159.5 -61t159.5 61
t61.5 158zM571 1395q45 0 84 -39l240 -232q20 -20 20 -37q0 -18 -18 -30l-43 -31q-18 -12 -33 -12q-18 0 -47 20l-211 148l-211 -148q-29 -20 -47 -20q-15 0 -33 12l-43 31q-18 12 -18 30q0 17 20 37l240 232q39 39 84 39h16z" />
    <glyph glyph-name="otilde" unicode="&#xf5;" horiz-adv-x="1130" 
d="M565 860q133 0 241.5 -50t175.5 -151.5t67 -238.5t-67 -238.5t-175.5 -151.5t-241.5 -50t-241.5 50t-175 151.5t-66.5 238.5t66.5 238.5t175 151.5t241.5 50zM786 420q0 96 -61.5 157.5t-159.5 61.5t-159.5 -61.5t-61.5 -157.5q0 -97 61.5 -158t159.5 -61t159.5 61
t61.5 158zM244 1022q-39 0 -39 33q0 260 198 260q81 0 142 -43l78 -55q47 -35 82 -35q33 0 48 25t15 81q0 12 8.5 19.5t22.5 7.5h88q39 0 39 -33q0 -260 -199 -260q-80 0 -141 43l-78 55q-51 35 -82 35q-33 0 -48.5 -25t-15.5 -81q0 -12 -8.5 -19.5t-21.5 -7.5h-88z" />
    <glyph glyph-name="odieresis" unicode="&#xf6;" horiz-adv-x="1130" 
d="M565 860q133 0 241.5 -50t175.5 -151.5t67 -238.5t-67 -238.5t-175.5 -151.5t-241.5 -50t-241.5 50t-175 151.5t-66.5 238.5t66.5 238.5t175 151.5t241.5 50zM786 420q0 96 -61.5 157.5t-159.5 61.5t-159.5 -61.5t-61.5 -157.5q0 -97 61.5 -158t159.5 -61t159.5 61
t61.5 158zM233 1147q0 57 39.5 96t96.5 39t96 -39t39 -96t-39 -96t-96 -39t-96.5 39t-39.5 96zM627 1147q0 57 39 96t96 39t96 -39t39 -96t-39 -96t-96 -39t-96 39t-39 96z" />
    <glyph glyph-name="divide" unicode="&#xf7;" horiz-adv-x="1024" 
d="M102 483v189h820v-189h-820zM377 934q0 57 39 96t96 39t96 -39t39 -96t-39 -96t-96 -39t-96 39t-39 96zM377 221q0 57 39 96t96 39t96 -39t39 -96t-39 -96t-96 -39t-96 39t-39 96z" />
    <glyph glyph-name="oslash" unicode="&#xf8;" horiz-adv-x="1130" 
d="M180 135q-98 116 -98 285q0 137 66.5 238.5t175 151.5t241.5 50q151 0 273 -67l80 79l98 -98l-70 -69q103 -118 103 -285q0 -137 -67 -238.5t-175.5 -151.5t-241.5 -50q-157 0 -276 67l-80 -80l-98 99zM786 420q0 56 -20 100h-4l-299 -299q41 -20 102 -20q98 0 159.5 61
t61.5 158zM344 420q0 -54 18 -98h5l297 296q-44 21 -99 21q-98 0 -159.5 -61.5t-61.5 -157.5z" />
    <glyph glyph-name="ugrave" unicode="&#xf9;" horiz-adv-x="1073" 
d="M731 88q-131 -108 -289 -108q-175 0 -263.5 99t-88.5 269v457q0 9 13 22t22 13h192q9 0 22 -13t13 -22v-445q0 -75 38.5 -117t101.5 -42q72 0 135 42.5t86 98.5v463q0 9 13 22t22 13h192q9 0 22 -13t13 -22v-770q0 -9 -13 -22t-22 -13h-143q-23 0 -37 37l-21 51h-8z
M276 1384q24 21 58 21q45 0 74 -45l206 -293q13 -18 13 -29q0 -14 -19 -14h-98q-27 0 -41 12l-227 191q-33 28 -33 65q0 27 22 49z" />
    <glyph glyph-name="uacute" unicode="&#xfa;" horiz-adv-x="1073" 
d="M731 88q-131 -108 -289 -108q-175 0 -263.5 99t-88.5 269v457q0 9 13 22t22 13h192q9 0 22 -13t13 -22v-445q0 -75 38.5 -117t101.5 -42q72 0 135 42.5t86 98.5v463q0 9 13 22t22 13h192q9 0 22 -13t13 -22v-770q0 -9 -13 -22t-22 -13h-143q-23 0 -37 37l-21 51h-8z
M864 1341q23 -23 23 -49q0 -37 -33 -65l-227 -191q-14 -12 -41 -12h-99q-18 0 -18 14q0 12 12 29l207 293q29 45 74 45q32 0 57 -21z" />
    <glyph glyph-name="ucircumflex" unicode="&#xfb;" horiz-adv-x="1073" 
d="M731 88q-131 -108 -289 -108q-175 0 -263.5 99t-88.5 269v457q0 9 13 22t22 13h192q9 0 22 -13t13 -22v-445q0 -75 38.5 -117t101.5 -42q72 0 135 42.5t86 98.5v463q0 9 13 22t22 13h192q9 0 22 -13t13 -22v-770q0 -9 -13 -22t-22 -13h-143q-23 0 -37 37l-21 51h-8z
M541 1395q45 0 84 -39l239 -232q21 -21 21 -37q0 -17 -19 -30l-43 -31q-18 -12 -32 -12q-19 0 -48 20l-211 148l-210 -148q-29 -20 -48 -20q-14 0 -32 12l-43 31q-19 13 -19 30q0 16 21 37l239 232q39 39 84 39h17z" />
    <glyph glyph-name="udieresis" unicode="&#xfc;" horiz-adv-x="1073" 
d="M731 88q-131 -108 -289 -108q-175 0 -263.5 99t-88.5 269v457q0 9 13 22t22 13h192q9 0 22 -13t13 -22v-445q0 -75 38.5 -117t101.5 -42q72 0 135 42.5t86 98.5v463q0 9 13 22t22 13h192q9 0 22 -13t13 -22v-770q0 -9 -13 -22t-22 -13h-143q-23 0 -37 37l-21 51h-8z
M199 1141q0 57 39 96t96 39t96 -39t39 -96t-39 -96t-96 -39t-96 39t-39 96zM592 1141q0 57 39 96t96 39t96 -39t39 -96t-39 -96t-96 -39t-96 39t-39 96z" />
    <glyph glyph-name="yacute" unicode="&#xfd;" horiz-adv-x="1062" 
d="M508 -487q-6 -15 -14.5 -20t-30.5 -5h-219q-6 0 -11.5 4.5t-5.5 11.5q0 8 11 35l190 469l-391 785q-10 20 -10 30q0 7 6 12t12 5h221q21 0 31 -6t18 -21l195 -391q13 -24 23.5 -50t14.5 -40l5 -13h4l199 494q6 16 15 21.5t30 5.5h219q6 0 11 -5t5 -12q0 -8 -10 -35z
M846 1341q22 -22 22 -49q0 -38 -32 -65l-228 -191q-14 -12 -41 -12h-98q-18 0 -18 14q0 12 12 29l207 293q29 45 73 45q33 0 58 -21z" />
    <glyph glyph-name="thorn" unicode="&#xfe;" horiz-adv-x="1105" 
d="M762 422q0 98 -53.5 157.5t-141.5 59.5q-70 0 -126.5 -39.5t-80.5 -101.5v-219q79 -76 201 -76q84 0 142.5 59t58.5 160zM362 768q110 92 261 92q182 0 291.5 -122.5t109.5 -315.5q0 -197 -119 -319.5t-287 -122.5q-155 0 -251 75h-7v-532q0 -9 -12.5 -22t-21.5 -13h-193
q-9 0 -22 13t-13 22v1794q0 9 13 22t22 13h193q9 0 21.5 -13t12.5 -22v-547z" />
    <glyph glyph-name="ydieresis" unicode="&#xff;" horiz-adv-x="1062" 
d="M508 -487q-6 -15 -14.5 -20t-30.5 -5h-219q-6 0 -11.5 4.5t-5.5 11.5q0 8 11 35l190 469l-391 785q-10 20 -10 30q0 7 6 12t12 5h221q21 0 31 -6t18 -21l195 -391q13 -24 23.5 -50t14.5 -40l5 -13h4l199 494q6 16 15 21.5t30 5.5h219q6 0 11 -5t5 -12q0 -8 -10 -35z
M217 1143q0 57 39 96t96 39t96 -39t39 -96t-39 -96t-96 -39t-96 39t-39 96zM610 1143q0 57 39 96t96 39t96.5 -39t39.5 -96t-39.5 -96t-96.5 -39t-96 39t-39 96z" />
    <glyph glyph-name="Amacron" unicode="&#x100;" horiz-adv-x="1425" 
d="M1010 213h-598l-88 -186q-9 -18 -16.5 -22.5t-26.5 -4.5h-244q-17 0 -17 14q0 7 9 25l577 1190h213l578 -1190q8 -16 8 -25q0 -14 -16 -14h-244q-19 0 -26.5 4.5t-16.5 22.5zM510 430h405l-110 227q-19 39 -40.5 94t-33.5 91l-12 35h-12q-43 -132 -86 -220zM453 1522h514
v-164h-514v164z" />
    <glyph glyph-name="amacron" unicode="&#x101;" horiz-adv-x="1062" 
d="M721 84q-139 -104 -320 -104q-153 0 -234 74t-81 186t87.5 184t268.5 72q54 0 120 -4t106 -8l39 -3l4 2v23q0 68 -46.5 106.5t-142.5 38.5q-138 0 -141 -86v-4q-3 -18 -35 -18h-192q-9 0 -22 13t-13 22v8q0 122 99.5 198t305.5 76q227 0 338 -106t111 -279v-440
q0 -9 -13 -22t-22 -13h-152q-22 0 -34 27l-25 57h-6zM446 180q72 0 146.5 21t118.5 51v63h-248q-115 0 -115 -69q0 -29 24.5 -47.5t73.5 -18.5zM279 1208h514v-164h-514v164z" />
    <glyph glyph-name="Abreve" unicode="&#x102;" horiz-adv-x="1425" 
d="M1010 213h-598l-88 -186q-9 -18 -16.5 -22.5t-26.5 -4.5h-244q-17 0 -17 14q0 7 9 25l577 1190h213l578 -1190q8 -16 8 -25q0 -14 -16 -14h-244q-19 0 -26.5 4.5t-16.5 22.5zM510 430h405l-110 227q-19 39 -40.5 94t-33.5 91l-12 35h-12q-43 -132 -86 -220zM711 1335
q-137 0 -216 75.5t-79 197.5q0 11 8 18.5t18 7.5h123q9 0 16 -6t7 -14q0 -54 34 -87.5t89 -33.5t89 33.5t34 87.5q0 8 6.5 14t15.5 6h123q10 0 18.5 -7.5t8.5 -18.5q0 -122 -79 -197.5t-216 -75.5z" />
    <glyph glyph-name="abreve" unicode="&#x103;" horiz-adv-x="1062" 
d="M721 84q-139 -104 -320 -104q-153 0 -234 74t-81 186t87.5 184t268.5 72q54 0 120 -4t106 -8l39 -3l4 2v23q0 68 -46.5 106.5t-142.5 38.5q-138 0 -141 -86v-4q-3 -18 -35 -18h-192q-9 0 -22 13t-13 22v8q0 122 99.5 198t305.5 76q227 0 338 -106t111 -279v-440
q0 -9 -13 -22t-22 -13h-152q-22 0 -34 27l-25 57h-6zM446 180q72 0 146.5 21t118.5 51v63h-248q-115 0 -115 -69q0 -29 24.5 -47.5t73.5 -18.5zM530 1008q-137 0 -215.5 75t-78.5 197q0 11 8 19t18 8h123q9 0 16 -6.5t7 -14.5q0 -54 33.5 -87.5t88.5 -33.5t89 33.5t34 87.5
q0 8 7 14.5t16 6.5h123q10 0 18 -8t8 -19q0 -122 -79 -197t-216 -75z" />
    <glyph glyph-name="Aogonek" unicode="&#x104;" horiz-adv-x="1425" 
d="M1010 213h-598l-88 -186q-9 -18 -16.5 -22.5t-26.5 -4.5h-244q-17 0 -17 14q0 7 9 25l577 1190h213l578 -1190q8 -16 8 -25q0 -14 -16 -14h-244q-19 0 -26.5 4.5t-16.5 22.5zM510 430h405l-110 227q-19 39 -40.5 94t-33.5 91l-12 35h-12q-43 -132 -86 -220zM1462 -297
q13 -54 13 -86q0 -24 -25 -33q-49 -18 -121 -18q-106 0 -167.5 52t-61.5 138q0 59 33.5 124t91.5 120h174q-113 -120 -113 -211q0 -72 82 -72q12 0 34 4.5t25 4.5q11 2 21.5 -4t13.5 -19z" />
    <glyph glyph-name="aogonek" unicode="&#x105;" horiz-adv-x="1062" 
d="M721 84q-139 -104 -320 -104q-153 0 -234 74t-81 186t87.5 184t268.5 72q54 0 120 -4t106 -8l39 -3l4 2v23q0 68 -46.5 106.5t-142.5 38.5q-138 0 -141 -86v-4q-3 -18 -35 -18h-192q-9 0 -22 13t-13 22v8q0 122 99.5 198t305.5 76q227 0 338 -106t111 -279v-440
q0 -9 -13 -22t-22 -13h-152q-22 0 -34 27l-25 57h-6zM446 180q72 0 146.5 21t118.5 51v63h-248q-115 0 -115 -69q0 -29 24.5 -47.5t73.5 -18.5zM1012 -297q12 -50 12 -86q0 -24 -25 -33q-49 -18 -120 -18q-106 0 -168 52t-62 138q0 59 33.5 124t91.5 120h174
q-112 -119 -112 -211q0 -72 82 -72q12 0 34 4.5t25 4.5q11 2 21.5 -4t13.5 -19z" />
    <glyph glyph-name="Cacute" unicode="&#x106;" horiz-adv-x="1437" 
d="M1112 733q-30 0 -35 33q-15 108 -107 179t-227 71q-161 0 -272 -112.5t-111 -289.5t108.5 -289t274.5 -112q138 0 227.5 62.5t106.5 166.5q3 20 11.5 27.5t27.5 7.5h205q13 0 24 -8.5t11 -22.5q0 -200 -171 -333t-442 -133q-185 0 -335 78.5t-238 224t-88 331.5
q0 139 51.5 258t140 201.5t210 129t259.5 46.5q141 0 259 -42t194 -111t118 -156.5t42 -179.5q0 -27 -33 -27h-211zM1034 1653q23 -23 23 -49q0 -38 -33 -66l-227 -190q-16 -13 -41 -13h-99q-18 0 -18 15q0 11 12 28l207 293q29 45 74 45q34 0 57 -20z" />
    <glyph glyph-name="cacute" unicode="&#x107;" horiz-adv-x="1095" 
d="M1012 555q2 -12 2 -29q0 -15 -13 -28t-28 -13h-178q-12 0 -22 8t-13 19q-43 127 -195 127q-95 0 -157 -62.5t-62 -156.5t63.5 -156.5t168.5 -62.5q74 0 137 27t131 79q26 21 47 21q24 0 39 -23l65 -86q15 -20 15 -35q0 -22 -29 -51q-75 -70 -180 -111.5t-230 -41.5
q-138 0 -248.5 50.5t-176.5 151.5t-66 238q0 130 66 231.5t175.5 155t241.5 53.5q180 0 301 -82t146 -223zM877 1341q22 -22 22 -49q0 -37 -33 -65l-227 -191q-14 -12 -41 -12h-98q-19 0 -19 14q0 11 13 29l206 293q29 45 74 45q32 0 57 -21z" />
    <glyph glyph-name="Ccircumflex" unicode="&#x108;" horiz-adv-x="1437" 
d="M1112 733q-30 0 -35 33q-15 108 -107 179t-227 71q-161 0 -272 -112.5t-111 -289.5t108.5 -289t274.5 -112q138 0 227.5 62.5t106.5 166.5q3 20 11.5 27.5t27.5 7.5h205q13 0 24 -8.5t11 -22.5q0 -200 -171 -333t-442 -133q-185 0 -335 78.5t-238 224t-88 331.5
q0 139 51.5 258t140 201.5t210 129t259.5 46.5q141 0 259 -42t194 -111t118 -156.5t42 -179.5q0 -27 -33 -27h-211zM739 1702q45 0 84 -39l240 -231q20 -20 20 -37q0 -19 -18 -31l-43 -31q-18 -12 -33 -12q-18 0 -47 20l-211 148l-211 -148q-29 -20 -47 -20q-15 0 -33 12
l-43 31q-18 12 -18 31q0 17 20 37l240 231q39 39 84 39h16z" />
    <glyph glyph-name="ccircumflex" unicode="&#x109;" horiz-adv-x="1095" 
d="M1012 555q2 -12 2 -29q0 -15 -13 -28t-28 -13h-178q-12 0 -22 8t-13 19q-43 127 -195 127q-95 0 -157 -62.5t-62 -156.5t63.5 -156.5t168.5 -62.5q74 0 137 27t131 79q26 21 47 21q24 0 39 -23l65 -86q15 -20 15 -35q0 -22 -29 -51q-75 -70 -180 -111.5t-230 -41.5
q-138 0 -248.5 50.5t-176.5 151.5t-66 238q0 130 66 231.5t175.5 155t241.5 53.5q180 0 301 -82t146 -223zM573 1395q45 0 84 -39l240 -232q21 -21 21 -37q0 -17 -19 -30l-43 -31q-18 -12 -33 -12q-18 0 -47 20l-211 148l-211 -148q-29 -20 -47 -20q-15 0 -33 12l-43 31
q-18 12 -18 30q0 17 20 37l240 232q39 39 84 39h16z" />
    <glyph glyph-name="Cdotaccent" unicode="&#x10a;" horiz-adv-x="1437" 
d="M1112 733q-30 0 -35 33q-15 108 -107 179t-227 71q-161 0 -272 -112.5t-111 -289.5t108.5 -289t274.5 -112q138 0 227.5 62.5t106.5 166.5q3 20 11.5 27.5t27.5 7.5h205q13 0 24 -8.5t11 -22.5q0 -200 -171 -333t-442 -133q-185 0 -335 78.5t-238 224t-88 331.5
q0 139 51.5 258t140 201.5t210 129t259.5 46.5q141 0 259 -42t194 -111t118 -156.5t42 -179.5q0 -27 -33 -27h-211zM594 1477q0 57 39 96t96 39t96 -39t39 -96t-39 -96.5t-96 -39.5t-96 39.5t-39 96.5z" />
    <glyph glyph-name="cdotaccent" unicode="&#x10b;" horiz-adv-x="1095" 
d="M1012 555q2 -12 2 -29q0 -15 -13 -28t-28 -13h-178q-12 0 -22 8t-13 19q-43 127 -195 127q-95 0 -157 -62.5t-62 -156.5t63.5 -156.5t168.5 -62.5q74 0 137 27t131 79q26 21 47 21q24 0 39 -23l65 -86q15 -20 15 -35q0 -22 -29 -51q-75 -70 -180 -111.5t-230 -41.5
q-138 0 -248.5 50.5t-176.5 151.5t-66 238q0 130 66 231.5t175.5 155t241.5 53.5q180 0 301 -82t146 -223zM436 1151q0 57 39 96t96 39t96.5 -39t39.5 -96t-39.5 -96t-96.5 -39t-96 39t-39 96z" />
    <glyph glyph-name="Ccaron" unicode="&#x10c;" horiz-adv-x="1437" 
d="M1112 733q-30 0 -35 33q-15 108 -107 179t-227 71q-161 0 -272 -112.5t-111 -289.5t108.5 -289t274.5 -112q138 0 227.5 62.5t106.5 166.5q3 20 11.5 27.5t27.5 7.5h205q13 0 24 -8.5t11 -22.5q0 -200 -171 -333t-442 -133q-185 0 -335 78.5t-238 224t-88 331.5
q0 139 51.5 258t140 201.5t210 129t259.5 46.5q141 0 259 -42t194 -111t118 -156.5t42 -179.5q0 -27 -33 -27h-211zM729 1327q-49 0 -90 41l-229 221q-21 21 -21 37q0 18 19 31l43 31q18 12 32 12q17 0 47 -21l211 -147l211 147q30 21 47 21q15 0 33 -12l43 -31
q19 -13 19 -31q0 -16 -21 -37l-229 -221q-41 -41 -90 -41h-25z" />
    <glyph glyph-name="ccaron" unicode="&#x10d;" horiz-adv-x="1095" 
d="M1012 555q2 -12 2 -29q0 -15 -13 -28t-28 -13h-178q-12 0 -22 8t-13 19q-43 127 -195 127q-95 0 -157 -62.5t-62 -156.5t63.5 -156.5t168.5 -62.5q74 0 137 27t131 79q26 21 47 21q24 0 39 -23l65 -86q15 -20 15 -35q0 -22 -29 -51q-75 -70 -180 -111.5t-230 -41.5
q-138 0 -248.5 50.5t-176.5 151.5t-66 238q0 130 66 231.5t175.5 155t241.5 53.5q180 0 301 -82t146 -223zM545 1010q-49 0 -90 41l-230 221q-20 20 -20 37q0 18 18 30l43 31q18 12 33 12q18 0 47 -20l211 -148l211 148q29 20 47 20q15 0 33 -12l43 -31q18 -12 18 -30
q0 -17 -20 -37l-230 -221q-41 -41 -90 -41h-24z" />
    <glyph glyph-name="Dcaron" unicode="&#x10e;" horiz-adv-x="1449" 
d="M170 0q-9 0 -17 8t-8 17v1179q0 9 8 17t17 8h518q194 0 348 -74.5t243 -215.5t89 -325q0 -282 -178.5 -448t-497.5 -166h-522zM424 995v-762h268q192 0 295 101.5t103 279.5q0 173 -112.5 277t-289.5 104h-264zM637 1327q-49 0 -90 41l-230 221q-20 20 -20 37q0 19 18 31
l43 31q18 12 33 12q17 0 47 -21l211 -147l211 147q30 21 47 21q15 0 33 -12l43 -31q18 -12 18 -31q0 -17 -20 -37l-229 -221q-41 -41 -90 -41h-25z" />
    <glyph glyph-name="dcaron" unicode="&#x10f;" horiz-adv-x="1388" 
d="M764 84q-119 -104 -281 -104q-170 0 -285.5 121.5t-115.5 318.5q0 189 119.5 314.5t308.5 125.5q66 0 128.5 -18t96.5 -47h10v522q0 9 13 22t22 13h193q9 0 22 -13t13 -22v-1282q0 -9 -13 -22t-22 -13h-146q-19 0 -34 29l-25 55h-4zM344 420q0 -102 57.5 -160.5
t143.5 -58.5q106 0 200 90v233q-26 54 -77.5 84.5t-116.5 30.5q-91 0 -149 -61t-58 -158zM1100 1243q0 56 39 95.5t96 39.5q66 0 110 -45t44 -131q0 -212 -162 -321q-29 -19 -43 -19q-16 0 -31 15l-41 45q-14 14 -14 28t10 21q30 21 48 37.5t34 43.5t18 58v6q-46 6 -77 42
t-31 85z" />
    <glyph glyph-name="Dmacron" unicode="&#x110;" horiz-adv-x="1449" 
d="M23 684h122v520q0 9 8 17t17 8h518q194 0 348 -74.5t243 -215.5t89 -325q0 -282 -178.5 -448t-497.5 -166h-522q-9 0 -17 8t-8 17v520h-122v139zM424 995v-311h266v-139h-266v-312h268q192 0 295 101.5t103 279.5q0 173 -112.5 277t-289.5 104h-264z" />
    <glyph glyph-name="dmacron" unicode="&#x111;" horiz-adv-x="1105" 
d="M453 1147h292v170q0 9 13 22t22 13h193q9 0 22 -13t13 -22v-170h110v-139h-110v-973q0 -9 -13 -22t-22 -13h-146q-19 0 -34 29l-25 55h-4q-119 -104 -281 -104q-170 0 -285.5 121.5t-115.5 318.5q0 189 119.5 314.5t308.5 125.5q66 0 128.5 -18t96.5 -47h10v213h-292v139
zM344 420q0 -102 57.5 -160.5t143.5 -58.5q106 0 200 90v233q-26 54 -77.5 84.5t-116.5 30.5q-91 0 -149 -61t-58 -158z" />
    <glyph glyph-name="Emacron" unicode="&#x112;" horiz-adv-x="1245" 
d="M424 512v-279h721q9 0 19 -9.5t10 -18.5v-176q0 -9 -10 -19t-19 -10h-975q-9 0 -17 8t-8 17v1179q0 9 8 17t17 8h963q9 0 18.5 -10t9.5 -19v-176q0 -9 -9.5 -19t-18.5 -10h-709v-250h647q9 0 19 -9.5t10 -18.5v-176q0 -9 -10 -19t-19 -10h-647zM391 1522h514v-164h-514
v164z" />
    <glyph glyph-name="emacron" unicode="&#x113;" horiz-adv-x="1110" 
d="M352 348q11 -76 79.5 -111.5t176.5 -35.5q125 0 256 78q26 16 47 16q25 0 37 -23l51 -100q11 -22 11 -33q0 -20 -27 -41q-150 -118 -385 -118q-147 0 -262.5 50t-184.5 151t-69 239q0 190 132.5 315t354.5 125t340.5 -110t118.5 -277q0 -28 -2.5 -59.5t-5.5 -48.5l-2 -17
h-666zM571 659q-78 0 -137.5 -35t-77.5 -100h410q-3 58 -53.5 96.5t-141.5 38.5zM303 1214h514v-163h-514v163z" />
    <glyph glyph-name="Ebreve" unicode="&#x114;" horiz-adv-x="1245" 
d="M424 512v-279h721q9 0 19 -9.5t10 -18.5v-176q0 -9 -10 -19t-19 -10h-975q-9 0 -17 8t-8 17v1179q0 9 8 17t17 8h963q9 0 18.5 -10t9.5 -19v-176q0 -9 -9.5 -19t-18.5 -10h-709v-250h647q9 0 19 -9.5t10 -18.5v-176q0 -9 -10 -19t-19 -10h-647zM649 1335
q-137 0 -216 75.5t-79 197.5q0 11 8.5 18.5t18.5 7.5h123q9 0 15.5 -6t6.5 -14q0 -54 34 -87.5t89 -33.5t89 33.5t34 87.5q0 8 7 14t16 6h123q10 0 18 -7.5t8 -18.5q0 -122 -79 -197.5t-216 -75.5z" />
    <glyph glyph-name="ebreve" unicode="&#x115;" horiz-adv-x="1110" 
d="M352 348q11 -76 79.5 -111.5t176.5 -35.5q125 0 256 78q26 16 47 16q25 0 37 -23l51 -100q11 -22 11 -33q0 -20 -27 -41q-150 -118 -385 -118q-147 0 -262.5 50t-184.5 151t-69 239q0 190 132.5 315t354.5 125t340.5 -110t118.5 -277q0 -28 -2.5 -59.5t-5.5 -48.5l-2 -17
h-666zM571 659q-78 0 -137.5 -35t-77.5 -100h410q-3 58 -53.5 96.5t-141.5 38.5zM575 1006q-137 0 -215.5 75t-78.5 197q0 11 8 19t18 8h123q9 0 16 -6.5t7 -14.5q0 -54 33.5 -87.5t88.5 -33.5t89 33.5t34 87.5q0 8 7 14.5t16 6.5h123q10 0 18 -8t8 -19q0 -122 -79 -197
t-216 -75z" />
    <glyph glyph-name="Edotaccent" unicode="&#x116;" horiz-adv-x="1245" 
d="M424 512v-279h721q9 0 19 -9.5t10 -18.5v-176q0 -9 -10 -19t-19 -10h-975q-9 0 -17 8t-8 17v1179q0 9 8 17t17 8h963q9 0 18.5 -10t9.5 -19v-176q0 -9 -9.5 -19t-18.5 -10h-709v-250h647q9 0 19 -9.5t10 -18.5v-176q0 -9 -10 -19t-19 -10h-647zM514 1477q0 57 39 96
t96 39t96 -39t39 -96t-39 -96.5t-96 -39.5t-96 39.5t-39 96.5z" />
    <glyph glyph-name="edotaccent" unicode="&#x117;" horiz-adv-x="1110" 
d="M352 348q11 -76 79.5 -111.5t176.5 -35.5q125 0 256 78q26 16 47 16q25 0 37 -23l51 -100q11 -22 11 -33q0 -20 -27 -41q-150 -118 -385 -118q-147 0 -262.5 50t-184.5 151t-69 239q0 190 132.5 315t354.5 125t340.5 -110t118.5 -277q0 -28 -2.5 -59.5t-5.5 -48.5l-2 -17
h-666zM571 659q-78 0 -137.5 -35t-77.5 -100h410q-3 58 -53.5 96.5t-141.5 38.5zM438 1141q0 57 39 96t96 39t96.5 -39t39.5 -96t-39.5 -96t-96.5 -39t-96 39t-39 96z" />
    <glyph glyph-name="Eogonek" unicode="&#x118;" horiz-adv-x="1245" 
d="M424 512v-279h721q9 0 19 -9.5t10 -18.5v-176q0 -9 -10 -19t-19 -10h-975q-9 0 -17 8t-8 17v1179q0 9 8 17t17 8h963q9 0 18.5 -10t9.5 -19v-176q0 -9 -9.5 -19t-18.5 -10h-709v-250h647q9 0 19 -9.5t10 -18.5v-176q0 -9 -10 -19t-19 -10h-647zM1194 -297q12 -50 12 -86
q0 -24 -24 -33q-49 -18 -121 -18q-106 0 -168 52t-62 138q0 59 33.5 124t91.5 120h174q-112 -119 -112 -211q0 -72 82 -72q12 0 34 4.5t25 4.5q11 2 21.5 -4t13.5 -19z" />
    <glyph glyph-name="eogonek" unicode="&#x119;" horiz-adv-x="1110" 
d="M352 348q11 -76 79.5 -111.5t176.5 -35.5q125 0 256 78q26 16 47 16q25 0 37 -23l51 -100q11 -22 11 -33q0 -20 -27 -41q-150 -118 -385 -118q-147 0 -262.5 50t-184.5 151t-69 239q0 190 132.5 315t354.5 125t340.5 -110t118.5 -277q0 -28 -2.5 -59.5t-5.5 -48.5l-2 -17
h-666zM571 659q-78 0 -137.5 -35t-77.5 -100h410q-3 58 -53.5 96.5t-141.5 38.5zM793 -297q12 -50 12 -86q0 -24 -25 -33q-49 -18 -121 -18q-106 0 -167.5 52t-61.5 138q0 59 33.5 124t91.5 120h174q-113 -120 -113 -211q0 -72 82 -72q12 0 34.5 4.5t25.5 4.5q11 2 21.5 -4
t13.5 -19z" />
    <glyph glyph-name="Ecaron" unicode="&#x11a;" horiz-adv-x="1245" 
d="M424 512v-279h721q9 0 19 -9.5t10 -18.5v-176q0 -9 -10 -19t-19 -10h-975q-9 0 -17 8t-8 17v1179q0 9 8 17t17 8h963q9 0 18.5 -10t9.5 -19v-176q0 -9 -9.5 -19t-18.5 -10h-709v-250h647q9 0 19 -9.5t10 -18.5v-176q0 -9 -10 -19t-19 -10h-647zM639 1296q-49 0 -90 41
l-230 222q-20 20 -20 36q0 19 18 31l43 31q18 12 33 12q18 0 47 -20l211 -148l211 148q29 20 47 20q15 0 33 -12l43 -31q19 -13 19 -31q0 -15 -21 -36l-229 -222q-41 -41 -90 -41h-25z" />
    <glyph glyph-name="ecaron" unicode="&#x11b;" horiz-adv-x="1110" 
d="M352 348q11 -76 79.5 -111.5t176.5 -35.5q125 0 256 78q26 16 47 16q25 0 37 -23l51 -100q11 -22 11 -33q0 -20 -27 -41q-150 -118 -385 -118q-147 0 -262.5 50t-184.5 151t-69 239q0 190 132.5 315t354.5 125t340.5 -110t118.5 -277q0 -28 -2.5 -59.5t-5.5 -48.5l-2 -17
h-666zM571 659q-78 0 -137.5 -35t-77.5 -100h410q-3 58 -53.5 96.5t-141.5 38.5zM555 1010q-49 0 -90 41l-229 221q-21 21 -21 37q0 18 18 30l43 31q18 12 33 12q18 0 47 -20l211 -148l211 148q29 20 47 20q15 0 33 -12l43 -31q19 -13 19 -30q0 -16 -21 -37l-229 -221
q-41 -41 -90 -41h-25z" />
    <glyph glyph-name="Gcircumflex" unicode="&#x11c;" horiz-adv-x="1488" 
d="M1407 553q0 -119 -42 -222.5t-121.5 -182t-204 -123.5t-279.5 -45q-139 0 -262.5 45t-215.5 125.5t-146 201t-54 262.5q0 184 89.5 330t244 225.5t344.5 79.5q122 0 225 -28.5t171 -74.5t116.5 -105t70.5 -118t23 -116q0 -27 -33 -27h-211q-25 0 -30 21
q-20 86 -103 150.5t-229 64.5q-169 0 -284.5 -113.5t-115.5 -288.5q0 -125 56.5 -218t146 -138t197.5 -45q159 0 257.5 67.5t104.5 161.5h-452q-9 0 -19 10t-10 19v156q0 9 10 18.5t19 9.5h737v-102zM758 1702q45 0 84 -39l239 -231q21 -21 21 -37q0 -18 -19 -31l-43 -31
q-18 -12 -32 -12q-18 0 -47 20l-211 148l-211 -148q-29 -20 -47 -20q-15 0 -33 12l-43 31q-19 13 -19 31q0 16 21 37l239 231q39 39 84 39h17z" />
    <glyph glyph-name="gcircumflex" unicode="&#x11d;" horiz-adv-x="1007" 
d="M86 -252q0 102 84 186v5q-92 62 -92 180q0 57 28 109t70 89q-65 83 -65 203q0 143 104.5 241.5t278.5 98.5q82 0 140 -19.5t114 -62.5h6q38 41 80 61.5t106 20.5q45 0 45 -24v-166q0 -7 -7 -14t-15 -7q-4 0 -14.5 1t-20.5 1q-44 0 -72 -22q18 -55 18 -109
q0 -150 -101.5 -245t-278.5 -95q-87 0 -168 33q-27 -31 -27 -68q0 -63 102 -63h217q171 0 262 -82.5t91 -200.5q0 -67 -26 -125t-78 -105t-140 -74t-203 -27h-8q-199 0 -314.5 80t-115.5 200zM399 -119q-51 -30 -51 -92q0 -48 46 -80.5t118 -32.5h20q88 0 132.5 33.5
t44.5 83.5q0 88 -121 88h-189zM352 520q0 -55 39 -93t101 -38t101.5 38t39.5 93t-39.5 93t-101.5 38t-101 -38t-39 -93zM504 1395q45 0 84 -39l239 -232q21 -21 21 -37q0 -17 -19 -30l-43 -31q-18 -12 -32 -12q-18 0 -47 20l-211 148l-211 -148q-29 -20 -47 -20
q-15 0 -33 12l-43 31q-19 13 -19 30q0 16 21 37l239 232q39 39 84 39h17z" />
    <glyph glyph-name="Gbreve" unicode="&#x11e;" horiz-adv-x="1488" 
d="M1407 553q0 -119 -42 -222.5t-121.5 -182t-204 -123.5t-279.5 -45q-139 0 -262.5 45t-215.5 125.5t-146 201t-54 262.5q0 184 89.5 330t244 225.5t344.5 79.5q122 0 225 -28.5t171 -74.5t116.5 -105t70.5 -118t23 -116q0 -27 -33 -27h-211q-25 0 -30 21
q-20 86 -103 150.5t-229 64.5q-169 0 -284.5 -113.5t-115.5 -288.5q0 -125 56.5 -218t146 -138t197.5 -45q159 0 257.5 67.5t104.5 161.5h-452q-9 0 -19 10t-10 19v156q0 9 10 18.5t19 9.5h737v-102zM748 1335q-137 0 -216 75.5t-79 197.5q0 11 8 18.5t18 7.5h123q9 0 16 -6
t7 -14q0 -54 34 -87.5t89 -33.5t88.5 33.5t33.5 87.5q0 8 7 14t16 6h123q10 0 18 -7.5t8 -18.5q0 -122 -78.5 -197.5t-215.5 -75.5z" />
    <glyph glyph-name="gbreve" unicode="&#x11f;" horiz-adv-x="1007" 
d="M86 -252q0 102 84 186v5q-92 62 -92 180q0 57 28 109t70 89q-65 83 -65 203q0 143 104.5 241.5t278.5 98.5q82 0 140 -19.5t114 -62.5h6q38 41 80 61.5t106 20.5q45 0 45 -24v-166q0 -7 -7 -14t-15 -7q-4 0 -14.5 1t-20.5 1q-44 0 -72 -22q18 -55 18 -109
q0 -150 -101.5 -245t-278.5 -95q-87 0 -168 33q-27 -31 -27 -68q0 -63 102 -63h217q171 0 262 -82.5t91 -200.5q0 -67 -26 -125t-78 -105t-140 -74t-203 -27h-8q-199 0 -314.5 80t-115.5 200zM399 -119q-51 -30 -51 -92q0 -48 46 -80.5t118 -32.5h20q88 0 132.5 33.5
t44.5 83.5q0 88 -121 88h-189zM352 520q0 -55 39 -93t101 -38t101.5 38t39.5 93t-39.5 93t-101.5 38t-101 -38t-39 -93zM500 1008q-137 0 -216 75t-79 197q0 11 8 19t18 8h123q9 0 16 -6.5t7 -14.5q0 -54 34 -87.5t89 -33.5t89 33.5t34 87.5q0 8 6.5 14.5t15.5 6.5h123
q10 0 18.5 -8t8.5 -19q0 -122 -79 -197t-216 -75z" />
    <glyph glyph-name="Gdotaccent" unicode="&#x120;" horiz-adv-x="1488" 
d="M1407 553q0 -119 -42 -222.5t-121.5 -182t-204 -123.5t-279.5 -45q-139 0 -262.5 45t-215.5 125.5t-146 201t-54 262.5q0 184 89.5 330t244 225.5t344.5 79.5q122 0 225 -28.5t171 -74.5t116.5 -105t70.5 -118t23 -116q0 -27 -33 -27h-211q-25 0 -30 21
q-20 86 -103 150.5t-229 64.5q-169 0 -284.5 -113.5t-115.5 -288.5q0 -125 56.5 -218t146 -138t197.5 -45q159 0 257.5 67.5t104.5 161.5h-452q-9 0 -19 10t-10 19v156q0 9 10 18.5t19 9.5h737v-102zM612 1477q0 57 39.5 96t96.5 39t96 -39t39 -96t-39 -96.5t-96 -39.5
t-96.5 39.5t-39.5 96.5z" />
    <glyph glyph-name="gdotaccent" unicode="&#x121;" horiz-adv-x="1007" 
d="M86 -252q0 102 84 186v5q-92 62 -92 180q0 57 28 109t70 89q-65 83 -65 203q0 143 104.5 241.5t278.5 98.5q82 0 140 -19.5t114 -62.5h6q38 41 80 61.5t106 20.5q45 0 45 -24v-166q0 -7 -7 -14t-15 -7q-4 0 -14.5 1t-20.5 1q-44 0 -72 -22q18 -55 18 -109
q0 -150 -101.5 -245t-278.5 -95q-87 0 -168 33q-27 -31 -27 -68q0 -63 102 -63h217q171 0 262 -82.5t91 -200.5q0 -67 -26 -125t-78 -105t-140 -74t-203 -27h-8q-199 0 -314.5 80t-115.5 200zM399 -119q-51 -30 -51 -92q0 -48 46 -80.5t118 -32.5h20q88 0 132.5 33.5
t44.5 83.5q0 88 -121 88h-189zM352 520q0 -55 39 -93t101 -38t101.5 38t39.5 93t-39.5 93t-101.5 38t-101 -38t-39 -93zM360 1143q0 57 39.5 96t96.5 39t96 -39t39 -96t-39 -96t-96 -39t-96.5 39t-39.5 96z" />
    <glyph glyph-name="uni0122" unicode="&#x122;" horiz-adv-x="1488" 
d="M1407 553q0 -119 -42 -222.5t-121.5 -182t-204 -123.5t-279.5 -45q-139 0 -262.5 45t-215.5 125.5t-146 201t-54 262.5q0 184 89.5 330t244 225.5t344.5 79.5q122 0 225 -28.5t171 -74.5t116.5 -105t70.5 -118t23 -116q0 -27 -33 -27h-211q-25 0 -30 21
q-20 86 -103 150.5t-229 64.5q-169 0 -284.5 -113.5t-115.5 -288.5q0 -125 56.5 -218t146 -138t197.5 -45q159 0 257.5 67.5t104.5 161.5h-452q-9 0 -19 10t-10 19v156q0 9 10 18.5t19 9.5h737v-102zM614 -242q0 57 39.5 96.5t96.5 39.5q65 0 108 -47t43 -138
q0 -116 -53.5 -200t-153.5 -119q-37 -13 -51 -13q-17 0 -25 17l-30 74q-4 9 -1 18t11 12q67 24 95 50.5t32 76.5v4q-48 8 -79.5 43.5t-31.5 85.5z" />
    <glyph glyph-name="uni0123" unicode="&#x123;" horiz-adv-x="1007" 
d="M86 -252q0 102 84 186v5q-92 62 -92 180q0 57 28 109t70 89q-65 83 -65 203q0 143 104.5 241.5t278.5 98.5q82 0 140 -19.5t114 -62.5h6q38 41 80 61.5t106 20.5q45 0 45 -24v-166q0 -7 -7 -14t-15 -7q-4 0 -14.5 1t-20.5 1q-44 0 -72 -22q18 -55 18 -109
q0 -150 -101.5 -245t-278.5 -95q-87 0 -168 33q-27 -31 -27 -68q0 -63 102 -63h217q171 0 262 -82.5t91 -200.5q0 -67 -26 -125t-78 -105t-140 -74t-203 -27h-8q-199 0 -314.5 80t-115.5 200zM399 -119q-51 -30 -51 -92q0 -48 46 -80.5t118 -32.5h20q88 0 132.5 33.5
t44.5 83.5q0 88 -121 88h-189zM352 520q0 -55 39 -93t101 -38t101.5 38t39.5 93t-39.5 93t-101.5 38t-101 -38t-39 -93zM643 1135q0 -56 -39 -96t-96 -40q-66 0 -110 45.5t-44 131.5q0 212 162 321q28 19 43 19q16 0 31 -15l41 -45q14 -14 14 -29q0 -13 -10 -20
q-30 -21 -48 -37.5t-34 -43.5t-18 -58v-6q46 -6 77 -42t31 -85z" />
    <glyph glyph-name="Hcircumflex" unicode="&#x124;" horiz-adv-x="1554" 
d="M1409 25q0 -9 -8 -17t-17 -8h-229q-9 0 -17 8t-8 17v436h-706v-436q0 -9 -8 -17t-17 -8h-229q-9 0 -17 8t-8 17v1179q0 9 8 17t17 8h229q9 0 17 -8t8 -17v-510h706v510q0 9 8 17t17 8h229q9 0 17 -8t8 -17v-1179zM778 1702q45 0 84 -39l240 -231q20 -20 20 -37
q0 -19 -18 -31l-43 -31q-18 -12 -33 -12q-18 0 -47 20l-211 148l-211 -148q-29 -20 -47 -20q-15 0 -33 12l-43 31q-18 12 -18 31q0 17 20 37l240 231q39 39 84 39h16z" />
    <glyph glyph-name="hcircumflex" unicode="&#x125;" horiz-adv-x="1075" 
d="M369 754q46 47 122.5 76.5t153.5 29.5q167 0 253.5 -90t86.5 -246v-489q0 -9 -13 -22t-22 -13h-194q-9 0 -22 13t-13 22v469q0 62 -38.5 98.5t-100.5 36.5q-71 0 -131.5 -40t-90.5 -103v-461q0 -9 -12.5 -22t-21.5 -13h-193q-9 0 -22 13t-13 22v1282q0 9 13 22t22 13h193
q9 0 21.5 -13t12.5 -22v-563h9zM238 1747q45 0 84 -39l239 -231q21 -21 21 -37q0 -18 -19 -31l-43 -31q-18 -12 -33 -12q-18 0 -47 20l-211 148l-211 -148q-29 -20 -47 -20q-14 0 -32 12l-43 31q-19 13 -19 31q0 16 21 37l239 231q39 39 84 39h17z" />
    <glyph glyph-name="Imacron" unicode="&#x12a;" horiz-adv-x="569" 
d="M424 25q0 -9 -8 -17t-17 -8h-229q-9 0 -17 8t-8 17v1179q0 9 8 17t17 8h229q9 0 17 -8t8 -17v-1179zM27 1522h514v-164h-514v164z" />
    <glyph glyph-name="imacron" unicode="&#x12b;" horiz-adv-x="458" 
d="M360 35q0 -9 -12.5 -22t-21.5 -13h-193q-9 0 -22 13t-13 22v770q0 9 13 22t22 13h193q9 0 21.5 -13t12.5 -22v-770zM-27 1214h514v-163h-514v163z" />
    <glyph glyph-name="Iogonek" unicode="&#x12e;" horiz-adv-x="569" 
d="M424 25q0 -9 -8 -17t-17 -8h-229q-9 0 -17 8t-8 17v1179q0 9 8 17t17 8h229q9 0 17 -8t8 -17v-1179zM471 -297q12 -50 12 -86q0 -24 -24 -33q-49 -18 -121 -18q-106 0 -167.5 52t-61.5 138q0 59 33 124t91 120h175q-113 -120 -113 -211q0 -72 82 -72q12 0 34 4.5t25 4.5
q11 2 21.5 -4t13.5 -19z" />
    <glyph glyph-name="iogonek" unicode="&#x12f;" horiz-adv-x="458" 
d="M360 35q0 -9 -12.5 -22t-21.5 -13h-193q-9 0 -22 13t-13 22v770q0 9 13 22t22 13h193q9 0 21.5 -13t12.5 -22v-770zM78 1118q0 55 42 93t109 38q68 0 110 -38t42 -93t-42 -93t-110 -38q-67 0 -109 38t-42 93zM399 -297q13 -54 13 -86q0 -24 -25 -33q-49 -18 -121 -18
q-106 0 -167.5 52t-61.5 138q0 59 33.5 124t91.5 120h174q-113 -120 -113 -211q0 -72 82 -72q12 0 34.5 4.5t25.5 4.5q28 4 34 -23z" />
    <glyph glyph-name="Idotaccent" unicode="&#x130;" horiz-adv-x="569" 
d="M424 25q0 -9 -8 -17t-17 -8h-229q-9 0 -17 8t-8 17v1179q0 9 8 17t17 8h229q9 0 17 -8t8 -17v-1179zM147 1477q0 57 39.5 96t96.5 39t96 -39t39 -96t-39 -96.5t-96 -39.5t-96.5 39.5t-39.5 96.5z" />
    <glyph glyph-name="dotlessi" unicode="&#x131;" horiz-adv-x="458" 
d="M360 35q0 -9 -12.5 -22t-21.5 -13h-193q-9 0 -22 13t-13 22v770q0 9 13 22t22 13h193q9 0 21.5 -13t12.5 -22v-770z" />
    <glyph glyph-name="Jcircumflex" unicode="&#x134;" horiz-adv-x="1128" 
d="M295 377q0 -73 55 -118.5t142 -45.5q114 0 170.5 62t56.5 174v755q0 9 7.5 17t16.5 8h230q9 0 16.5 -8t7.5 -17v-753q0 -215 -127.5 -343t-377.5 -128q-117 0 -210.5 31.5t-150 84t-86 116t-29.5 132.5v64q0 11 11 21.5t24 10.5h215q9 0 19 -9.5t10 -18.5v-35zM866 1702
q45 0 84 -39l240 -231q20 -20 20 -37q0 -19 -18 -31l-43 -31q-18 -12 -33 -12q-18 0 -47 20l-211 148l-211 -148q-29 -20 -47 -20q-15 0 -33 12l-43 31q-18 12 -18 31q0 17 20 37l240 231q39 39 84 39h16z" />
    <glyph glyph-name="jcircumflex" unicode="&#x135;" horiz-adv-x="458" 
d="M360 -152q0 -178 -91.5 -279t-266.5 -101q-63 0 -125.5 20t-101.5 49q-29 23 -29 41q0 15 8 29l53 102q15 31 37 31q12 0 25 -8q67 -43 113 -43q57 0 86.5 38t29.5 109v969q0 9 13 22t22 13h193q9 0 21.5 -13t12.5 -22v-957zM233 1395q45 0 84 -39l240 -232
q21 -21 21 -37q0 -17 -19 -30l-43 -31q-18 -12 -33 -12q-18 0 -47 20l-211 148l-211 -148q-29 -20 -47 -20q-15 0 -33 12l-43 31q-18 12 -18 30q0 16 21 37l239 232q39 39 84 39h16z" />
    <glyph glyph-name="uni0136" unicode="&#x136;" horiz-adv-x="1388" 
d="M1358 35q10 -10 10 -21q0 -14 -18 -14h-295q-30 0 -45 18l-406 467l-180 -174v-286q0 -9 -8 -17t-17 -8h-229q-9 0 -17 8t-8 17v1179q0 9 8 17t17 8h229q9 0 17 -8t8 -17v-542h4q35 38 78 79l475 465q23 23 53 23h291q9 0 13.5 -5t4.5 -10q0 -8 -14 -22l-530 -516z
M541 -242q0 57 39 96.5t96 39.5q65 0 108 -47t43 -138q0 -116 -53 -200t-153 -119q-37 -13 -52 -13t-24 17l-31 74q-4 9 -1 18t11 12q67 24 95 50.5t32 76.5v4q-48 8 -79 43.5t-31 85.5z" />
    <glyph glyph-name="uni0137" unicode="&#x137;" horiz-adv-x="1073" 
d="M1038 45q11 -14 11 -22q0 -23 -31 -23h-215q-33 0 -49.5 7.5t-38.5 35.5l-197 258l-158 -158v-108q0 -9 -12.5 -22t-21.5 -13h-193q-9 0 -22 13t-13 22v1282q0 9 13 22t22 13h193q9 0 21.5 -13t12.5 -22v-844h5q20 29 53 62l252 260q45 45 84 45h241q10 0 16.5 -7
t6.5 -16q0 -17 -14 -31l-302 -301zM385 -242q0 57 39 96.5t96 39.5q65 0 108.5 -47t43.5 -138q0 -116 -53.5 -200t-153.5 -119q-37 -13 -51 -13q-16 0 -25 17l-31 74q-4 9 -0.5 18t11.5 12q67 24 95 50.5t32 76.5v4q-48 8 -79.5 43.5t-31.5 85.5z" />
    <glyph glyph-name="Lacute" unicode="&#x139;" horiz-adv-x="1099" 
d="M1030 233q9 0 19 -9.5t10 -18.5v-176q0 -9 -10 -19t-19 -10h-860q-9 0 -17 8t-8 17v1179q0 9 8 17t17 8h229q9 0 17 -8t8 -17v-971h606zM582 1651q22 -22 22 -49q0 -38 -33 -66l-227 -190q-16 -13 -41 -13h-98q-19 0 -19 15q0 10 13 28l207 293q29 45 73 45q35 0 58 -20z
" />
    <glyph glyph-name="lacute" unicode="&#x13a;" horiz-adv-x="458" 
d="M360 35q0 -9 -12.5 -22t-21.5 -13h-193q-9 0 -22 13t-13 22v1282q0 9 13 22t22 13h193q9 0 21.5 -13t12.5 -22v-1282zM532 1751q23 -23 23 -49q0 -38 -33 -66l-227 -190q-14 -12 -41 -12h-98q-19 0 -19 14q0 11 13 29l206 292q30 46 74 46q32 0 57 -21z" />
    <glyph glyph-name="uni013B" unicode="&#x13b;" horiz-adv-x="1099" 
d="M1030 233q9 0 19 -9.5t10 -18.5v-176q0 -9 -10 -19t-19 -10h-860q-9 0 -17 8t-8 17v1179q0 9 8 17t17 8h229q9 0 17 -8t8 -17v-971h606zM479 -217q0 51 36 86t87 35q58 0 96.5 -41.5t38.5 -124.5q0 -104 -47.5 -180.5t-136.5 -106.5q-30 -12 -47 -12q-15 0 -23 16l-26 66
q-4 8 -1 16t9 10q60 22 85.5 47t29.5 68v4q-44 8 -72.5 40t-28.5 77z" />
    <glyph glyph-name="uni013C" unicode="&#x13c;" horiz-adv-x="458" 
d="M360 35q0 -9 -12.5 -22t-21.5 -13h-193q-9 0 -22 13t-13 22v1282q0 9 13 22t22 13h193q9 0 21.5 -13t12.5 -22v-1282zM100 -242q0 57 39.5 96.5t96.5 39.5q65 0 108 -47t43 -138q0 -116 -53.5 -200t-153.5 -119q-37 -13 -51 -13q-17 0 -25 17l-30 74q-4 9 -1 18t11 12
q67 24 95 50.5t32 76.5v4q-48 8 -79.5 43.5t-31.5 85.5z" />
    <glyph glyph-name="Lcaron" unicode="&#x13d;" horiz-adv-x="1099" 
d="M1030 233q9 0 19 -9.5t10 -18.5v-176q0 -9 -10 -19t-19 -10h-860q-9 0 -17 8t-8 17v1179q0 9 8 17t17 8h229q9 0 17 -8t8 -17v-971h606zM563 1141q0 45 31.5 76.5t77.5 31.5q53 0 88 -36t35 -105q0 -78 -33 -145.5t-98 -110.5q-20 -14 -33 -14q-15 0 -25 10l-33 37
q-12 12 -12 22q0 9 8 17q25 19 38.5 31t27 33.5t14.5 45.5v6q-37 4 -61.5 33.5t-24.5 67.5z" />
    <glyph glyph-name="lcaron" unicode="&#x13e;" horiz-adv-x="733" 
d="M360 35q0 -9 -12.5 -22t-21.5 -13h-193q-9 0 -22 13t-13 22v1282q0 9 13 22t22 13h193q9 0 21.5 -13t12.5 -22v-1282zM444 1243q0 56 39.5 95.5t96.5 39.5q66 0 109.5 -45t43.5 -131q0 -212 -162 -321q-29 -19 -43 -19q-15 0 -30 15l-41 45q-15 15 -15 28q0 14 11 21
q30 21 48 37.5t34 43.5t18 58v6q-46 6 -77.5 42t-31.5 85z" />
    <glyph glyph-name="Ldot" unicode="&#x13f;" horiz-adv-x="1099" 
d="M1030 233q9 0 19 -9.5t10 -18.5v-176q0 -9 -10 -19t-19 -10h-860q-9 0 -17 8t-8 17v1179q0 9 8 17t17 8h229q9 0 17 -8t8 -17v-971h606zM559 629q0 51 35 86t86 35t86 -35t35 -86t-35 -86t-86 -35t-86 35t-35 86z" />
    <glyph glyph-name="ldot" unicode="&#x140;" horiz-adv-x="741" 
d="M360 35q0 -9 -12.5 -22t-21.5 -13h-193q-9 0 -22 13t-13 22v1282q0 9 13 22t22 13h193q9 0 21.5 -13t12.5 -22v-1282zM471 627q0 57 39 96t96 39t96 -39t39 -96t-39 -96t-96 -39t-96 39t-39 96z" />
    <glyph glyph-name="Lslash" unicode="&#x141;" horiz-adv-x="1099" 
d="M39 367l-66 122l172 91v624q0 9 8 17t17 8h229q9 0 17 -8t8 -17v-411l-4 -74l4 -2q31 23 70 43l135 69l65 -122l-270 -140v-334h606q9 0 19 -9.5t10 -18.5v-176q0 -9 -10 -19t-19 -10h-860q-9 0 -17 8t-8 17v335l5 64l-3 2q-25 -17 -41 -25z" />
    <glyph glyph-name="lslash" unicode="&#x142;" horiz-adv-x="540" 
d="M139 1317q0 9 13 22t22 13h193q9 0 21.5 -13t12.5 -22v-598l-2 -49l2 -2q14 10 45 26l60 31l63 -123l-168 -90v-477q0 -9 -12.5 -22t-21.5 -13h-193q-9 0 -22 13t-13 22v297l2 45l-2 2q-16 -13 -39 -25l-65 -35l-64 125l168 88v785z" />
    <glyph glyph-name="Nacute" unicode="&#x143;" horiz-adv-x="1554" 
d="M569 639q-29 29 -64 68.5t-55 64.5l-20 25h-6v-772q0 -9 -8 -17t-17 -8h-229q-9 0 -17 8t-8 17v1179q0 9 8 17t17 8h188l621 -631q30 -30 66 -71.5t57 -68.5l20 -26h8v772q0 9 8 17t17 8h229q9 0 17 -8t8 -17v-1179q0 -9 -8 -17t-17 -8h-188zM1034 1653q23 -23 23 -49
q0 -38 -33 -66l-227 -190q-16 -13 -41 -13h-99q-18 0 -18 15q0 11 12 28l207 293q29 45 74 45q34 0 57 -20z" />
    <glyph glyph-name="nacute" unicode="&#x144;" horiz-adv-x="1075" 
d="M721 504q0 62 -37 98.5t-100 36.5q-78 0 -137 -41t-87 -102v-461q0 -9 -12.5 -22t-21.5 -13h-193q-9 0 -22 13t-13 22v770q0 9 13 22t22 13h158q23 0 35 -35l22 -64h8q52 55 130.5 87t158.5 32q170 0 255 -92t85 -244v-489q0 -9 -13 -22t-22 -13h-194q-9 0 -22 13t-13 22
v469zM791 1341q22 -22 22 -49q0 -37 -33 -65l-227 -191q-14 -12 -41 -12h-98q-19 0 -19 14q0 11 13 29l206 293q29 45 74 45q32 0 57 -21z" />
    <glyph glyph-name="uni0145" unicode="&#x145;" horiz-adv-x="1554" 
d="M569 639q-29 29 -64 68.5t-55 64.5l-20 25h-6v-772q0 -9 -8 -17t-17 -8h-229q-9 0 -17 8t-8 17v1179q0 9 8 17t17 8h188l621 -631q30 -30 66 -71.5t57 -68.5l20 -26h8v772q0 9 8 17t17 8h229q9 0 17 -8t8 -17v-1179q0 -9 -8 -17t-17 -8h-188zM664 -217q0 51 35.5 86
t86.5 35q59 0 97.5 -41.5t38.5 -124.5q0 -104 -48 -180.5t-137 -108.5q-33 -10 -47 -10t-22 14l-27 68q-4 8 -1 15.5t9 10.5q61 22 86 46.5t29 68.5v4q-43 6 -71.5 39t-28.5 78z" />
    <glyph glyph-name="uni0146" unicode="&#x146;" horiz-adv-x="1075" 
d="M721 504q0 62 -37 98.5t-100 36.5q-78 0 -137 -41t-87 -102v-461q0 -9 -12.5 -22t-21.5 -13h-193q-9 0 -22 13t-13 22v770q0 9 13 22t22 13h158q23 0 35 -35l22 -64h8q52 55 130.5 87t158.5 32q170 0 255 -92t85 -244v-489q0 -9 -13 -22t-22 -13h-194q-9 0 -22 13t-13 22
v469zM424 -242q0 57 39 96.5t96 39.5q65 0 108.5 -47t43.5 -138q0 -116 -53.5 -200t-153.5 -119q-37 -13 -51 -13q-17 0 -25 17l-31 74q-4 9 -0.5 18t11.5 12q67 24 95 50.5t32 76.5v4q-48 8 -79.5 43.5t-31.5 85.5z" />
    <glyph glyph-name="Ncaron" unicode="&#x147;" horiz-adv-x="1554" 
d="M569 639q-29 29 -64 68.5t-55 64.5l-20 25h-6v-772q0 -9 -8 -17t-17 -8h-229q-9 0 -17 8t-8 17v1179q0 9 8 17t17 8h188l621 -631q30 -30 66 -71.5t57 -68.5l20 -26h8v772q0 9 8 17t17 8h229q9 0 17 -8t8 -17v-1179q0 -9 -8 -17t-17 -8h-188zM772 1327q-49 0 -90 41
l-229 221q-21 21 -21 37q0 18 19 31l43 31q18 12 32 12q17 0 47 -21l211 -147l211 147q30 21 47 21q15 0 33 -12l43 -31q19 -13 19 -31q0 -16 -21 -37l-229 -221q-41 -41 -90 -41h-25z" />
    <glyph glyph-name="ncaron" unicode="&#x148;" horiz-adv-x="1075" 
d="M721 504q0 62 -37 98.5t-100 36.5q-78 0 -137 -41t-87 -102v-461q0 -9 -12.5 -22t-21.5 -13h-193q-9 0 -22 13t-13 22v770q0 9 13 22t22 13h158q23 0 35 -35l22 -64h8q52 55 130.5 87t158.5 32q170 0 255 -92t85 -244v-489q0 -9 -13 -22t-22 -13h-194q-9 0 -22 13t-13 22
v469zM516 1010q-49 0 -90 41l-229 221q-21 21 -21 37q0 17 19 30l43 31q18 12 32 12q18 0 47 -20l211 -148l211 148q29 20 47 20q15 0 33 -12l43 -31q19 -13 19 -30q0 -16 -21 -37l-229 -221q-41 -41 -90 -41h-25z" />
    <glyph glyph-name="Omacron" unicode="&#x14c;" horiz-adv-x="1519" 
d="M760 1249q138 0 261.5 -46.5t216 -128.5t146.5 -201.5t54 -258.5q0 -187 -93 -333.5t-246.5 -223.5t-338.5 -77t-338.5 77t-246.5 223.5t-93 333.5q0 139 54 258.5t146.5 201.5t216 128.5t261.5 46.5zM760 1016q-168 0 -284 -110.5t-116 -291.5t116 -291t284 -110
t283.5 110t115.5 291t-115.5 291.5t-283.5 110.5zM502 1522h514v-164h-514v164z" />
    <glyph glyph-name="omacron" unicode="&#x14d;" horiz-adv-x="1130" 
d="M565 860q133 0 241.5 -50t175.5 -151.5t67 -238.5t-67 -238.5t-175.5 -151.5t-241.5 -50t-241.5 50t-175 151.5t-66.5 238.5t66.5 238.5t175 151.5t241.5 50zM786 420q0 96 -61.5 157.5t-159.5 61.5t-159.5 -61.5t-61.5 -157.5q0 -97 61.5 -158t159.5 -61t159.5 61
t61.5 158zM307 1214h514v-163h-514v163z" />
    <glyph glyph-name="Obreve" unicode="&#x14e;" horiz-adv-x="1519" 
d="M760 1249q138 0 261.5 -46.5t216 -128.5t146.5 -201.5t54 -258.5q0 -187 -93 -333.5t-246.5 -223.5t-338.5 -77t-338.5 77t-246.5 223.5t-93 333.5q0 139 54 258.5t146.5 201.5t216 128.5t261.5 46.5zM760 1016q-168 0 -284 -110.5t-116 -291.5t116 -291t284 -110
t283.5 110t115.5 291t-115.5 291.5t-283.5 110.5zM760 1335q-137 0 -216 75.5t-79 197.5q0 11 8.5 18.5t18.5 7.5h122q9 0 16 -6t7 -14q0 -54 34 -87.5t89 -33.5t89 33.5t34 87.5q0 8 6.5 14t15.5 6h123q10 0 18.5 -7.5t8.5 -18.5q0 -122 -79 -197.5t-216 -75.5z" />
    <glyph glyph-name="obreve" unicode="&#x14f;" horiz-adv-x="1130" 
d="M565 860q133 0 241.5 -50t175.5 -151.5t67 -238.5t-67 -238.5t-175.5 -151.5t-241.5 -50t-241.5 50t-175 151.5t-66.5 238.5t66.5 238.5t175 151.5t241.5 50zM786 420q0 96 -61.5 157.5t-159.5 61.5t-159.5 -61.5t-61.5 -157.5q0 -97 61.5 -158t159.5 -61t159.5 61
t61.5 158zM563 1008q-137 0 -216 75t-79 197q0 11 8.5 19t18.5 8h123q9 0 15.5 -6.5t6.5 -14.5q0 -54 34 -87.5t89 -33.5t89 33.5t34 87.5q0 8 7 14.5t16 6.5h122q10 0 18.5 -8t8.5 -19q0 -122 -79 -197t-216 -75z" />
    <glyph glyph-name="Ohungarumlaut" unicode="&#x150;" horiz-adv-x="1519" 
d="M760 1249q138 0 261.5 -46.5t216 -128.5t146.5 -201.5t54 -258.5q0 -187 -93 -333.5t-246.5 -223.5t-338.5 -77t-338.5 77t-246.5 223.5t-93 333.5q0 139 54 258.5t146.5 201.5t216 128.5t261.5 46.5zM760 1016q-168 0 -284 -110.5t-116 -291.5t116 -291t284 -110
t283.5 110t115.5 291t-115.5 291.5t-283.5 110.5zM1198 1667q25 -22 25 -49q0 -36 -37 -70l-209 -196q-17 -17 -43 -17h-94q-19 0 -19 15q0 11 13 28l206 293q29 45 70 45q32 0 55 -20zM840 1667q24 -21 24 -49q0 -36 -37 -70l-209 -196q-17 -17 -43 -17h-94q-18 0 -18 15
q0 12 12 28l207 293q29 45 70 45q32 0 55 -20z" />
    <glyph glyph-name="ohungarumlaut" unicode="&#x151;" horiz-adv-x="1130" 
d="M565 860q133 0 241.5 -50t175.5 -151.5t67 -238.5t-67 -238.5t-175.5 -151.5t-241.5 -50t-241.5 50t-175 151.5t-66.5 238.5t66.5 238.5t175 151.5t241.5 50zM786 420q0 96 -61.5 157.5t-159.5 61.5t-159.5 -61.5t-61.5 -157.5q0 -97 61.5 -158t159.5 -61t159.5 61
t61.5 158zM1057 1356q24 -21 24 -49q0 -36 -37 -70l-208 -197q-16 -16 -43 -16h-95q-18 0 -18 14q0 13 12 29l207 293q29 45 70 45q31 0 55 -21zM698 1356q25 -22 25 -49q0 -36 -37 -70l-209 -197q-16 -16 -43 -16h-94q-18 0 -18 14q0 13 12 29l207 293q29 45 69 45
q32 0 56 -21z" />
    <glyph glyph-name="OE" unicode="&#x152;" horiz-adv-x="2138" 
d="M760 1249q83 0 178 -20h1087q9 0 19 -10t10 -19v-176q0 -9 -10 -19t-19 -10h-528l-182 4l-4 -6q85 -112 112 -248h541q9 0 19 -9.5t10 -18.5v-176q0 -9 -10 -19t-19 -10h-534q-23 -154 -121 -279l2 -4q85 4 153 4h574q9 0 18.5 -9.5t9.5 -18.5v-176q0 -9 -9.5 -19
t-18.5 -10h-1104q-95 -20 -174 -20q-185 0 -338.5 77t-246.5 223.5t-93 333.5q0 139 54 258.5t146.5 201.5t216 128.5t261.5 46.5zM760 1016q-168 0 -284 -110.5t-116 -291.5t116 -291t284 -110t283.5 110t115.5 291t-115.5 291.5t-283.5 110.5z" />
    <glyph glyph-name="oe" unicode="&#x153;" horiz-adv-x="1794" 
d="M1036 348q11 -76 79.5 -111.5t176.5 -35.5q125 0 256 78q26 16 47 16q25 0 37 -23l51 -100q11 -22 11 -33q0 -20 -27 -41q-150 -118 -385 -118t-369 131h-8q-128 -131 -340 -131q-133 0 -241.5 50t-175 151.5t-66.5 238.5t66.5 238.5t175 151.5t241.5 50q212 0 340 -131
h4q128 131 344 131q222 0 340.5 -110t118.5 -277q0 -28 -2.5 -59.5t-5.5 -48.5l-2 -17h-666zM786 420q0 96 -61.5 157.5t-159.5 61.5t-159.5 -61.5t-61.5 -157.5q0 -97 61.5 -158t159.5 -61t159.5 61t61.5 158zM1255 659q-78 0 -137.5 -35t-77.5 -100h410q-3 58 -53.5 96.5
t-141.5 38.5z" />
    <glyph glyph-name="Racute" unicode="&#x154;" horiz-adv-x="1335" 
d="M145 1204q0 9 8 17t17 8h569q228 0 370 -116t142 -314q0 -135 -74 -230t-202 -139v-4q36 -39 65 -82l207 -303q13 -18 13 -27q0 -14 -17 -14h-272q-20 0 -33 20l-250 365h-264v-360q0 -9 -8 -17t-17 -8h-229q-9 0 -17 8t-8 17v1179zM424 995v-389h297q116 0 184 51.5
t68 141.5q0 91 -68 143.5t-184 52.5h-297zM874 1653q23 -23 23 -49q0 -38 -33 -66l-227 -190q-16 -13 -41 -13h-98q-19 0 -19 15q0 10 13 28l206 293q29 45 74 45q34 0 57 -20z" />
    <glyph glyph-name="racute" unicode="&#x155;" horiz-adv-x="929" 
d="M362 723q105 137 269 137q121 0 189.5 -75t68.5 -212v-86q0 -9 -13 -21.5t-22 -12.5h-192q-9 0 -22 12.5t-13 21.5v50q0 49 -25.5 75.5t-66.5 26.5q-53 0 -103.5 -43.5t-71.5 -103.5v-457q0 -9 -12.5 -22t-21.5 -13h-193q-9 0 -22 13t-13 22v770q0 9 13 22t22 13h160
q9 0 16.5 -7.5t14 -21.5t11 -27.5t10 -32.5t9.5 -28h8zM733 1341q23 -23 23 -49q0 -37 -33 -65l-227 -191q-14 -12 -41 -12h-99q-18 0 -18 14q0 12 12 29l207 293q29 45 74 45q33 0 57 -21z" />
    <glyph glyph-name="uni0156" unicode="&#x156;" horiz-adv-x="1335" 
d="M145 1204q0 9 8 17t17 8h569q228 0 370 -116t142 -314q0 -135 -74 -230t-202 -139v-4q36 -39 65 -82l207 -303q13 -18 13 -27q0 -14 -17 -14h-272q-20 0 -33 20l-250 365h-264v-360q0 -9 -8 -17t-17 -8h-229q-9 0 -17 8t-8 17v1179zM424 995v-389h297q116 0 184 51.5
t68 141.5q0 91 -68 143.5t-184 52.5h-297zM565 -217q0 51 36 86t87 35q58 0 96.5 -41.5t38.5 -124.5q0 -104 -47.5 -180.5t-136.5 -106.5q-30 -12 -47 -12q-15 0 -23 16l-26 66q-4 8 -1 16t9 10q60 22 85.5 47t29.5 68v4q-44 8 -72.5 40t-28.5 77z" />
    <glyph glyph-name="uni0157" unicode="&#x157;" horiz-adv-x="929" 
d="M362 723q105 137 269 137q121 0 189.5 -75t68.5 -212v-86q0 -9 -13 -21.5t-22 -12.5h-192q-9 0 -22 12.5t-13 21.5v50q0 49 -25.5 75.5t-66.5 26.5q-53 0 -103.5 -43.5t-71.5 -103.5v-457q0 -9 -12.5 -22t-21.5 -13h-193q-9 0 -22 13t-13 22v770q0 9 13 22t22 13h160
q9 0 16.5 -7.5t14 -21.5t11 -27.5t10 -32.5t9.5 -28h8zM94 -242q0 57 39 96.5t96 39.5q65 0 108.5 -47t43.5 -138q0 -116 -53.5 -200t-153.5 -119q-37 -13 -51 -13q-17 0 -25 17l-30 74q-4 9 -1 18t11 12q67 24 95 50.5t32 76.5v4q-48 8 -79.5 43.5t-31.5 85.5z" />
    <glyph glyph-name="Rcaron" unicode="&#x158;" horiz-adv-x="1335" 
d="M145 1204q0 9 8 17t17 8h569q228 0 370 -116t142 -314q0 -135 -74 -230t-202 -139v-4q36 -39 65 -82l207 -303q13 -18 13 -27q0 -14 -17 -14h-272q-20 0 -33 20l-250 365h-264v-360q0 -9 -8 -17t-17 -8h-229q-9 0 -17 8t-8 17v1179zM424 995v-389h297q116 0 184 51.5
t68 141.5q0 91 -68 143.5t-184 52.5h-297zM602 1327q-49 0 -90 41l-229 221q-21 21 -21 37q0 18 19 31l43 31q18 12 32 12q17 0 47 -21l211 -147l211 147q30 21 47 21q15 0 33 -12l43 -31q19 -13 19 -31q0 -16 -21 -37l-229 -221q-41 -41 -90 -41h-25z" />
    <glyph glyph-name="rcaron" unicode="&#x159;" horiz-adv-x="929" 
d="M362 723q105 137 269 137q121 0 189.5 -75t68.5 -212v-86q0 -9 -13 -21.5t-22 -12.5h-192q-9 0 -22 12.5t-13 21.5v50q0 49 -25.5 75.5t-66.5 26.5q-53 0 -103.5 -43.5t-71.5 -103.5v-457q0 -9 -12.5 -22t-21.5 -13h-193q-9 0 -22 13t-13 22v770q0 9 13 22t22 13h160
q9 0 16.5 -7.5t14 -21.5t11 -27.5t10 -32.5t9.5 -28h8zM442 1010q-49 0 -90 41l-229 221q-21 21 -21 37q0 17 19 30l43 31q18 12 33 12q18 0 47 -20l211 -148l211 148q29 20 47 20q14 0 32 -12l43 -31q19 -13 19 -30q0 -16 -21 -37l-229 -221q-41 -41 -90 -41h-25z" />
    <glyph glyph-name="Sacute" unicode="&#x15a;" horiz-adv-x="1308" 
d="M319 414q35 0 41 -31q33 -170 304 -170q140 0 212 45.5t72 116.5q0 47 -39 79.5t-125 39.5l-319 26q-186 15 -284.5 98t-98.5 222q0 81 35.5 154t102.5 130t173.5 91t237.5 34q136 0 241.5 -30t169 -81.5t95.5 -117t32 -141.5q0 -14 -10.5 -24.5t-28.5 -10.5h-202
q-32 0 -37 30q-10 61 -73.5 101.5t-188.5 40.5t-197 -45t-72 -115q0 -93 150 -104l317 -27q204 -18 302 -109.5t98 -228.5q0 -75 -33 -145.5t-98.5 -130t-177 -95.5t-254.5 -36q-270 0 -426 110t-156 270v17q0 15 11 26t28 11h198zM944 1653q23 -23 23 -49q0 -38 -33 -66
l-227 -190q-16 -13 -41 -13h-99q-18 0 -18 15q0 11 12 28l207 293q29 45 74 45q34 0 57 -20z" />
    <glyph glyph-name="sacute" unicode="&#x15b;" horiz-adv-x="1017" 
d="M301 281q32 0 41 -29q10 -37 48.5 -54.5t129.5 -17.5q78 0 116 22t38 56q0 25 -23.5 39t-83.5 20l-202 19q-283 26 -283 233q0 119 106.5 205t305.5 86q192 0 296.5 -71.5t104.5 -178.5q0 -11 -9.5 -21.5t-23.5 -10.5h-176q-19 0 -29.5 6.5t-19.5 23.5q-28 51 -143 51
q-75 0 -112.5 -23.5t-37.5 -53.5q0 -44 80 -52l203 -18q170 -16 239.5 -78.5t69.5 -167.5q0 -54 -23 -103t-70.5 -91t-130.5 -67t-192 -25q-220 0 -329 76.5t-109 185.5q0 17 11 28t30 11h178zM758 1341q22 -22 22 -49q0 -38 -32 -65l-228 -191q-14 -12 -41 -12h-98
q-19 0 -19 14q0 11 13 29l207 293q29 45 73 45q33 0 58 -21z" />
    <glyph glyph-name="Scircumflex" unicode="&#x15c;" horiz-adv-x="1308" 
d="M319 414q35 0 41 -31q33 -170 304 -170q140 0 212 45.5t72 116.5q0 47 -39 79.5t-125 39.5l-319 26q-186 15 -284.5 98t-98.5 222q0 81 35.5 154t102.5 130t173.5 91t237.5 34q136 0 241.5 -30t169 -81.5t95.5 -117t32 -141.5q0 -14 -10.5 -24.5t-28.5 -10.5h-202
q-32 0 -37 30q-10 61 -73.5 101.5t-188.5 40.5t-197 -45t-72 -115q0 -93 150 -104l317 -27q204 -18 302 -109.5t98 -228.5q0 -75 -33 -145.5t-98.5 -130t-177 -95.5t-254.5 -36q-270 0 -426 110t-156 270v17q0 15 11 26t28 11h198zM639 1702q45 0 84 -39l240 -231
q20 -20 20 -37q0 -19 -18 -31l-43 -31q-18 -12 -33 -12q-18 0 -47 20l-211 148l-211 -148q-29 -20 -47 -20q-15 0 -33 12l-43 31q-18 12 -18 31q0 17 20 37l240 231q39 39 84 39h16z" />
    <glyph glyph-name="scircumflex" unicode="&#x15d;" horiz-adv-x="1017" 
d="M301 281q32 0 41 -29q10 -37 48.5 -54.5t129.5 -17.5q78 0 116 22t38 56q0 25 -23.5 39t-83.5 20l-202 19q-283 26 -283 233q0 119 106.5 205t305.5 86q192 0 296.5 -71.5t104.5 -178.5q0 -11 -9.5 -21.5t-23.5 -10.5h-176q-19 0 -29.5 6.5t-19.5 23.5q-28 51 -143 51
q-75 0 -112.5 -23.5t-37.5 -53.5q0 -44 80 -52l203 -18q170 -16 239.5 -78.5t69.5 -167.5q0 -54 -23 -103t-70.5 -91t-130.5 -67t-192 -25q-220 0 -329 76.5t-109 185.5q0 17 11 28t30 11h178zM498 1395q45 0 84 -39l239 -232q21 -21 21 -37q0 -17 -19 -30l-43 -31
q-18 -12 -32 -12q-19 0 -48 20l-211 148l-210 -148q-29 -20 -48 -20q-14 0 -32 12l-43 31q-19 13 -19 30q0 16 21 37l239 232q39 39 84 39h17z" />
    <glyph glyph-name="Scedilla" unicode="&#x15e;" horiz-adv-x="1308" 
d="M319 414q35 0 41 -31q33 -170 304 -170q140 0 212 45.5t72 116.5q0 47 -39 79.5t-125 39.5l-319 26q-186 15 -284.5 98t-98.5 222q0 81 35.5 154t102.5 130t173.5 91t237.5 34q136 0 241.5 -30t169 -81.5t95.5 -117t32 -141.5q0 -14 -10.5 -24.5t-28.5 -10.5h-202
q-32 0 -37 30q-10 61 -73.5 101.5t-188.5 40.5t-197 -45t-72 -115q0 -93 150 -104l317 -27q204 -18 302 -109.5t98 -228.5q0 -75 -33 -145.5t-98.5 -130t-177 -95.5t-254.5 -36q-270 0 -426 110t-156 270v17q0 15 11 26t28 11h198zM537 -309q4 19 34 12q81 -18 144 -18
q80 0 80 49q0 41 -58 41h-127q-43 0 -37 41l29 184h152l-4 -100h49q82 0 125 -45t43 -119q0 -86 -64 -138.5t-188 -52.5q-93 0 -170 23q-27 8 -27 24q0 11 4 27z" />
    <glyph glyph-name="scedilla" unicode="&#x15f;" horiz-adv-x="1017" 
d="M301 281q32 0 41 -29q10 -37 48.5 -54.5t129.5 -17.5q78 0 116 22t38 56q0 25 -23.5 39t-83.5 20l-202 19q-283 26 -283 233q0 119 106.5 205t305.5 86q192 0 296.5 -71.5t104.5 -178.5q0 -11 -9.5 -21.5t-23.5 -10.5h-176q-19 0 -29.5 6.5t-19.5 23.5q-28 51 -143 51
q-75 0 -112.5 -23.5t-37.5 -53.5q0 -44 80 -52l203 -18q170 -16 239.5 -78.5t69.5 -167.5q0 -54 -23 -103t-70.5 -91t-130.5 -67t-192 -25q-220 0 -329 76.5t-109 185.5q0 17 11 28t30 11h178zM377 -309q4 20 35 12q81 -18 143 -18q80 0 80 49q0 41 -57 41h-127
q-43 0 -37 41l28 184h152l-4 -100h49q82 0 125 -45t43 -119q0 -86 -64 -138.5t-188 -52.5q-93 0 -170 23q-27 8 -27 24q0 11 4 27z" />
    <glyph glyph-name="Scaron" unicode="&#x160;" horiz-adv-x="1308" 
d="M319 414q35 0 41 -31q33 -170 304 -170q140 0 212 45.5t72 116.5q0 47 -39 79.5t-125 39.5l-319 26q-186 15 -284.5 98t-98.5 222q0 81 35.5 154t102.5 130t173.5 91t237.5 34q136 0 241.5 -30t169 -81.5t95.5 -117t32 -141.5q0 -14 -10.5 -24.5t-28.5 -10.5h-202
q-32 0 -37 30q-10 61 -73.5 101.5t-188.5 40.5t-197 -45t-72 -115q0 -93 150 -104l317 -27q204 -18 302 -109.5t98 -228.5q0 -75 -33 -145.5t-98.5 -130t-177 -95.5t-254.5 -36q-270 0 -426 110t-156 270v17q0 15 11 26t28 11h198zM623 1327q-50 0 -91 41l-229 221
q-20 20 -20 37q0 19 18 31l43 31q18 12 33 12q17 0 47 -21l211 -147l211 147q30 21 47 21q15 0 33 -12l43 -31q18 -12 18 -31q0 -17 -20 -37l-230 -221q-41 -41 -90 -41h-24z" />
    <glyph glyph-name="scaron" unicode="&#x161;" horiz-adv-x="1017" 
d="M301 281q32 0 41 -29q10 -37 48.5 -54.5t129.5 -17.5q78 0 116 22t38 56q0 25 -23.5 39t-83.5 20l-202 19q-283 26 -283 233q0 119 106.5 205t305.5 86q192 0 296.5 -71.5t104.5 -178.5q0 -11 -9.5 -21.5t-23.5 -10.5h-176q-19 0 -29.5 6.5t-19.5 23.5q-28 51 -143 51
q-75 0 -112.5 -23.5t-37.5 -53.5q0 -44 80 -52l203 -18q170 -16 239.5 -78.5t69.5 -167.5q0 -54 -23 -103t-70.5 -91t-130.5 -67t-192 -25q-220 0 -329 76.5t-109 185.5q0 17 11 28t30 11h178zM483 1010q-49 0 -90 41l-229 221q-21 21 -21 37q0 17 19 30l43 31q18 12 33 12
q18 0 47 -20l211 -148l211 148q29 20 47 20q14 0 32 -12l43 -31q19 -13 19 -30q0 -16 -21 -37l-229 -221q-41 -41 -90 -41h-25z" />
    <glyph glyph-name="uni0162" unicode="&#x162;" horiz-adv-x="1261" 
d="M49 995q-9 0 -19 10t-10 19v176q0 9 10 19t19 10h1163q9 0 19 -10t10 -19v-176q0 -9 -10 -19t-19 -10h-442v-970q0 -9 -8 -17t-17 -8h-229q-9 0 -16.5 8t-7.5 17v970h-443zM512 -217q0 51 36 86t87 35q58 0 96.5 -41.5t38.5 -124.5q0 -105 -47.5 -181t-136.5 -108
q-33 -10 -47 -10q-15 0 -23 14l-27 68q-4 8 -1 15.5t10 10.5q60 22 85 46t29 69v4q-43 6 -71.5 39t-28.5 78z" />
    <glyph glyph-name="uni0162" unicode="&#x21a;" horiz-adv-x="1261" 
d="M49 995q-9 0 -19 10t-10 19v176q0 9 10 19t19 10h1163q9 0 19 -10t10 -19v-176q0 -9 -10 -19t-19 -10h-442v-970q0 -9 -8 -17t-17 -8h-229q-9 0 -16.5 8t-7.5 17v970h-443zM512 -217q0 51 36 86t87 35q58 0 96.5 -41.5t38.5 -124.5q0 -105 -47.5 -181t-136.5 -108
q-33 -10 -47 -10q-15 0 -23 14l-27 68q-4 8 -1 15.5t10 10.5q60 22 85 46t29 69v4q-43 6 -71.5 39t-28.5 78z" />
    <glyph glyph-name="uni0163" unicode="&#x163;" horiz-adv-x="772" 
d="M49 618q-9 0 -19 10t-10 19v164q0 9 10 19t19 10h94v190q0 9 13 22t22 13h193q9 0 22 -13t13 -22v-190h262q9 0 18.5 -10t9.5 -19v-164q0 -9 -9.5 -19t-18.5 -10h-262v-286q0 -131 122 -131q47 0 123 39q15 7 27.5 1.5t17.5 -18.5l35 -102q8 -28 8 -37q0 -22 -28 -41
q-37 -25 -99.5 -44t-128.5 -19q-155 0 -247.5 84t-92.5 245v309h-94zM299 -242q0 57 39 96.5t96 39.5q65 0 108.5 -47t43.5 -138q0 -116 -53.5 -200t-153.5 -119q-37 -13 -51 -13q-16 0 -25 17l-31 74q-4 9 -0.5 18t11.5 12q67 24 95 50.5t32 76.5v4q-48 8 -79.5 43.5
t-31.5 85.5z" />
    <glyph glyph-name="uni0163" unicode="&#x21b;" horiz-adv-x="772" 
d="M49 618q-9 0 -19 10t-10 19v164q0 9 10 19t19 10h94v190q0 9 13 22t22 13h193q9 0 22 -13t13 -22v-190h262q9 0 18.5 -10t9.5 -19v-164q0 -9 -9.5 -19t-18.5 -10h-262v-286q0 -131 122 -131q47 0 123 39q15 7 27.5 1.5t17.5 -18.5l35 -102q8 -28 8 -37q0 -22 -28 -41
q-37 -25 -99.5 -44t-128.5 -19q-155 0 -247.5 84t-92.5 245v309h-94zM299 -242q0 57 39 96.5t96 39.5q65 0 108.5 -47t43.5 -138q0 -116 -53.5 -200t-153.5 -119q-37 -13 -51 -13q-16 0 -25 17l-31 74q-4 9 -0.5 18t11.5 12q67 24 95 50.5t32 76.5v4q-48 8 -79.5 43.5
t-31.5 85.5z" />
    <glyph glyph-name="Tcaron" unicode="&#x164;" horiz-adv-x="1261" 
d="M49 995q-9 0 -19 10t-10 19v176q0 9 10 19t19 10h1163q9 0 19 -10t10 -19v-176q0 -9 -10 -19t-19 -10h-442v-970q0 -9 -8 -17t-17 -8h-229q-9 0 -16.5 8t-7.5 17v970h-443zM618 1327q-49 0 -90 41l-229 221q-20 20 -20 37q0 19 18 31l43 31q18 12 33 12q17 0 47 -21
l211 -147l211 147q30 21 47 21q15 0 33 -12l43 -31q18 -12 18 -31q0 -17 -20 -37l-230 -221q-41 -41 -90 -41h-25z" />
    <glyph glyph-name="tcaron" unicode="&#x165;" horiz-adv-x="772" 
d="M49 618q-9 0 -19 10t-10 19v164q0 9 10 19t19 10h94v190q0 9 13 22t22 13h193q9 0 22 -13t13 -22v-190h262q9 0 18.5 -10t9.5 -19v-164q0 -9 -9.5 -19t-18.5 -10h-262v-286q0 -131 122 -131q47 0 123 39q15 7 27.5 1.5t17.5 -18.5l35 -102q8 -28 8 -37q0 -22 -28 -41
q-37 -25 -99.5 -44t-128.5 -19q-155 0 -247.5 84t-92.5 245v309h-94zM492 1343q0 56 39 96t96 40q66 0 109.5 -45t43.5 -131q0 -99 -40 -183t-122 -139q-27 -18 -43 -18t-30 14l-41 45q-15 15 -15 29q0 13 11 20q30 21 48 37.5t34 43.5t18 58v7q-46 6 -77 41.5t-31 84.5z
" />
    <glyph glyph-name="Utilde" unicode="&#x168;" horiz-adv-x="1515" 
d="M1106 1204q0 9 7.5 17t16.5 8h230q9 0 16.5 -8t7.5 -17v-616q0 -292 -168.5 -450t-457.5 -158t-458 158t-169 450v616q0 9 8 17t17 8h229q9 0 17 -8t8 -17v-614q0 -188 89.5 -282.5t258.5 -94.5t258.5 94.5t89.5 282.5v614zM434 1335q-39 0 -39 33q0 260 199 260
q80 0 141 -43l78 -55q47 -35 82 -35q33 0 48 25.5t15 81.5q0 12 8.5 19t22.5 7h88q39 0 39 -33q0 -260 -198 -260q-81 0 -142 43l-78 56q-49 34 -82 34t-48 -25t-15 -81q0 -12 -8.5 -19.5t-22.5 -7.5h-88z" />
    <glyph glyph-name="utilde" unicode="&#x169;" horiz-adv-x="1073" 
d="M731 88q-131 -108 -289 -108q-175 0 -263.5 99t-88.5 269v457q0 9 13 22t22 13h192q9 0 22 -13t13 -22v-445q0 -75 38.5 -117t101.5 -42q72 0 135 42.5t86 98.5v463q0 9 13 22t22 13h192q9 0 22 -13t13 -22v-770q0 -9 -13 -22t-22 -13h-143q-23 0 -37 37l-21 51h-8z
M199 1024q-39 0 -39 33q0 260 198 260q81 0 142 -43l78 -55q47 -35 81 -35q33 0 48.5 25t15.5 81q0 12 8.5 19.5t22.5 7.5h88q39 0 39 -33q0 -260 -199 -260q-80 0 -141 43l-78 55q-51 35 -82 35q-33 0 -48.5 -25t-15.5 -81q0 -12 -8.5 -19.5t-21.5 -7.5h-88z" />
    <glyph glyph-name="Umacron" unicode="&#x16a;" horiz-adv-x="1515" 
d="M1106 1204q0 9 7.5 17t16.5 8h230q9 0 16.5 -8t7.5 -17v-616q0 -292 -168.5 -450t-457.5 -158t-458 158t-169 450v616q0 9 8 17t17 8h229q9 0 17 -8t8 -17v-614q0 -188 89.5 -282.5t258.5 -94.5t258.5 94.5t89.5 282.5v614zM498 1522h514v-164h-514v164z" />
    <glyph glyph-name="umacron" unicode="&#x16b;" horiz-adv-x="1073" 
d="M731 88q-131 -108 -289 -108q-175 0 -263.5 99t-88.5 269v457q0 9 13 22t22 13h192q9 0 22 -13t13 -22v-445q0 -75 38.5 -117t101.5 -42q72 0 135 42.5t86 98.5v463q0 9 13 22t22 13h192q9 0 22 -13t13 -22v-770q0 -9 -13 -22t-22 -13h-143q-23 0 -37 37l-21 51h-8z
M268 1217h514v-164h-514v164z" />
    <glyph glyph-name="Ubreve" unicode="&#x16c;" horiz-adv-x="1515" 
d="M1106 1204q0 9 7.5 17t16.5 8h230q9 0 16.5 -8t7.5 -17v-616q0 -292 -168.5 -450t-457.5 -158t-458 158t-169 450v616q0 9 8 17t17 8h229q9 0 17 -8t8 -17v-614q0 -188 89.5 -282.5t258.5 -94.5t258.5 94.5t89.5 282.5v614zM756 1335q-137 0 -216 75.5t-79 197.5
q0 11 8 18.5t18 7.5h123q9 0 16 -6t7 -14q0 -54 34 -87.5t89 -33.5t89 33.5t34 87.5q0 8 6.5 14t15.5 6h123q10 0 18.5 -7.5t8.5 -18.5q0 -122 -79 -197.5t-216 -75.5z" />
    <glyph glyph-name="ubreve" unicode="&#x16d;" horiz-adv-x="1073" 
d="M731 88q-131 -108 -289 -108q-175 0 -263.5 99t-88.5 269v457q0 9 13 22t22 13h192q9 0 22 -13t13 -22v-445q0 -75 38.5 -117t101.5 -42q72 0 135 42.5t86 98.5v463q0 9 13 22t22 13h192q9 0 22 -13t13 -22v-770q0 -9 -13 -22t-22 -13h-143q-23 0 -37 37l-21 51h-8z
M530 1008q-137 0 -215.5 75t-78.5 197q0 11 8 19t18 8h123q9 0 16 -6.5t7 -14.5q0 -54 33.5 -87.5t88.5 -33.5t89 33.5t34 87.5q0 8 7 14.5t16 6.5h123q10 0 18 -8t8 -19q0 -122 -79 -197t-216 -75z" />
    <glyph glyph-name="Uring" unicode="&#x16e;" horiz-adv-x="1515" 
d="M1106 1204q0 9 7.5 17t16.5 8h230q9 0 16.5 -8t7.5 -17v-616q0 -292 -168.5 -450t-457.5 -158t-458 158t-169 450v616q0 9 8 17t17 8h229q9 0 17 -8t8 -17v-614q0 -188 89.5 -282.5t258.5 -94.5t258.5 94.5t89.5 282.5v614zM520 1524q0 90 66 152.5t170 62.5
q102 0 168.5 -62.5t66.5 -152.5q0 -91 -66 -154t-169 -63q-104 0 -170 63t-66 154zM670 1524q0 -38 24.5 -62t61.5 -24t61.5 24t24.5 62q0 35 -24.5 59.5t-61.5 24.5t-61.5 -24.5t-24.5 -59.5z" />
    <glyph glyph-name="uring" unicode="&#x16f;" horiz-adv-x="1073" 
d="M731 88q-131 -108 -289 -108q-175 0 -263.5 99t-88.5 269v457q0 9 13 22t22 13h192q9 0 22 -13t13 -22v-445q0 -75 38.5 -117t101.5 -42q72 0 135 42.5t86 98.5v463q0 9 13 22t22 13h192q9 0 22 -13t13 -22v-770q0 -9 -13 -22t-22 -13h-143q-23 0 -37 37l-21 51h-8z
M299 1237q0 90 66 152.5t170 62.5q102 0 168.5 -62.5t66.5 -152.5q0 -91 -66 -154t-169 -63q-104 0 -170 63t-66 154zM449 1237q0 -38 24.5 -62t61.5 -24t61.5 24t24.5 62q0 35 -24.5 59.5t-61.5 24.5t-61.5 -24.5t-24.5 -59.5z" />
    <glyph glyph-name="Uhungarumlaut" unicode="&#x170;" horiz-adv-x="1515" 
d="M1106 1204q0 9 7.5 17t16.5 8h230q9 0 16.5 -8t7.5 -17v-616q0 -292 -168.5 -450t-457.5 -158t-458 158t-169 450v616q0 9 8 17t17 8h229q9 0 17 -8t8 -17v-614q0 -188 89.5 -282.5t258.5 -94.5t258.5 94.5t89.5 282.5v614zM1214 1667q25 -22 25 -49q0 -36 -37 -70
l-209 -196q-17 -17 -43 -17h-94q-18 0 -18 15q0 12 12 28l207 293q29 45 69 45q33 0 56 -20zM856 1667q25 -22 25 -49q0 -36 -37 -70l-209 -196q-17 -17 -43 -17h-94q-19 0 -19 15q0 11 13 28l206 293q29 45 70 45q32 0 55 -20z" />
    <glyph glyph-name="uhungarumlaut" unicode="&#x171;" horiz-adv-x="1073" 
d="M731 88q-131 -108 -289 -108q-175 0 -263.5 99t-88.5 269v457q0 9 13 22t22 13h192q9 0 22 -13t13 -22v-445q0 -75 38.5 -117t101.5 -42q72 0 135 42.5t86 98.5v463q0 9 13 22t22 13h192q9 0 22 -13t13 -22v-770q0 -9 -13 -22t-22 -13h-143q-23 0 -37 37l-21 51h-8z
M1008 1356q24 -21 24 -49q0 -36 -37 -70l-209 -197q-16 -16 -43 -16h-94q-18 0 -18 14q0 13 12 29l207 293q29 45 70 45q31 0 55 -21zM649 1356q25 -22 25 -49q0 -36 -37 -70l-209 -197q-16 -16 -43 -16h-94q-19 0 -19 14q0 12 13 29l207 293q29 45 69 45q31 0 55 -21z" />
    <glyph glyph-name="Uogonek" unicode="&#x172;" horiz-adv-x="1515" 
d="M1106 1204q0 9 7.5 17t16.5 8h230q9 0 16.5 -8t7.5 -17v-616q0 -292 -168.5 -450t-457.5 -158t-458 158t-169 450v616q0 9 8 17t17 8h229q9 0 17 -8t8 -17v-614q0 -188 89.5 -282.5t258.5 -94.5t258.5 94.5t89.5 282.5v614zM1024 -297q12 -50 12 -86q0 -24 -24 -33
q-49 -18 -121 -18q-106 0 -167.5 52t-61.5 138q0 59 33 124t91 120h175q-113 -120 -113 -211q0 -72 82 -72q12 0 34 4.5t25 4.5q11 2 21.5 -4t13.5 -19z" />
    <glyph glyph-name="uogonek" unicode="&#x173;" horiz-adv-x="1073" 
d="M731 88q-131 -108 -289 -108q-175 0 -263.5 99t-88.5 269v457q0 9 13 22t22 13h192q9 0 22 -13t13 -22v-445q0 -75 38.5 -117t101.5 -42q72 0 135 42.5t86 98.5v463q0 9 13 22t22 13h192q9 0 22 -13t13 -22v-770q0 -9 -13 -22t-22 -13h-143q-23 0 -37 37l-21 51h-8z
M1020 -297q12 -50 12 -86q0 -24 -24 -33q-49 -18 -121 -18q-106 0 -168 52t-62 138q0 59 33.5 124t91.5 120h174q-112 -119 -112 -211q0 -72 82 -72q12 0 34 4.5t25 4.5q11 2 21.5 -4t13.5 -19z" />
    <glyph glyph-name="Wcircumflex" unicode="&#x174;" horiz-adv-x="2121" 
d="M1546 0h-170l-282 672l-31 86h-4q-15 -51 -29 -86l-285 -672h-170l-546 1192q-9 18 -9 25q0 12 17 12h246q20 0 26 -4t15 -23l276 -588q14 -28 30.5 -72.5t25.5 -75.5l10 -30h8q20 78 49 144l272 649h131l273 -649q13 -30 25 -66t18 -57l6 -21h8q35 115 66 178l276 588
q9 19 15.5 23t25.5 4h246q16 0 16 -12q0 -9 -8 -25zM1069 1702q45 0 84 -39l240 -231q20 -20 20 -37q0 -19 -18 -31l-43 -31q-18 -12 -33 -12q-18 0 -47 20l-211 148l-211 -148q-29 -20 -47 -20q-15 0 -33 12l-43 31q-18 12 -18 31q0 17 20 37l240 231q39 39 84 39h16z" />
    <glyph glyph-name="wcircumflex" unicode="&#x175;" horiz-adv-x="1435" 
d="M430 500q6 -16 13 -44t11 -48l3 -21h8q15 68 31 109l141 344h162l141 -344q7 -18 15.5 -45.5t12.5 -45.5l5 -18h8q13 78 27 113l125 311q9 20 15.5 24.5t25.5 4.5h219q16 0 16 -15q0 -8 -4 -18l-334 -807h-174l-141 344l-35 115h-6q-19 -78 -35 -115l-141 -344h-174
l-334 807q-4 10 -4 18q0 15 16 15h219q19 0 26.5 -4.5t14.5 -24.5zM727 1395q45 0 84 -39l240 -232q20 -20 20 -37q0 -18 -18 -30l-43 -31q-18 -12 -33 -12q-18 0 -47 20l-211 148l-211 -148q-29 -20 -47 -20q-15 0 -33 12l-43 31q-18 12 -18 30q0 17 20 37l240 232
q39 39 84 39h16z" />
    <glyph glyph-name="Ycircumflex" unicode="&#x176;" horiz-adv-x="1318" 
d="M31 1194q-11 16 -11 23q0 12 13 12h260q19 0 29 -5t20 -20l211 -297q20 -27 45.5 -68.5t41.5 -69.5l15 -28h9q55 100 102 166l211 297q17 25 49 25h260q12 0 12 -12q0 -8 -10 -23l-489 -702v-467q0 -9 -8 -17t-17 -8h-229q-9 0 -17 8t-8 17v467zM670 1702q45 0 84 -39
l239 -231q21 -21 21 -37q0 -18 -19 -31l-43 -31q-18 -12 -32 -12q-19 0 -48 20l-210 148l-211 -148q-29 -20 -48 -20q-14 0 -32 12l-43 31q-19 13 -19 31q0 16 21 37l239 231q39 39 84 39h17z" />
    <glyph glyph-name="ycircumflex" unicode="&#x177;" horiz-adv-x="1062" 
d="M508 -487q-6 -15 -14.5 -20t-30.5 -5h-219q-6 0 -11.5 4.5t-5.5 11.5q0 8 11 35l190 469l-391 785q-10 20 -10 30q0 7 6 12t12 5h221q21 0 31 -6t18 -21l195 -391q13 -24 23.5 -50t14.5 -40l5 -13h4l199 494q6 16 15 21.5t30 5.5h219q6 0 11 -5t5 -12q0 -8 -10 -35z
M549 1395q45 0 84 -39l239 -232q21 -21 21 -37q0 -17 -19 -30l-43 -31q-18 -12 -32 -12q-18 0 -47 20l-211 148l-211 -148q-29 -20 -47 -20q-15 0 -33 12l-43 31q-19 13 -19 30q0 16 21 37l240 232q39 39 83 39h17z" />
    <glyph glyph-name="Ydieresis" unicode="&#x178;" horiz-adv-x="1318" 
d="M31 1194q-11 16 -11 23q0 12 13 12h260q19 0 29 -5t20 -20l211 -297q20 -27 45.5 -68.5t41.5 -69.5l15 -28h9q55 100 102 166l211 297q17 25 49 25h260q12 0 12 -12q0 -8 -10 -23l-489 -702v-467q0 -9 -8 -17t-17 -8h-229q-9 0 -17 8t-8 17v467zM328 1477q0 57 39 96
t96 39t96 -39t39 -96t-39 -96.5t-96 -39.5t-96 39.5t-39 96.5zM721 1477q0 57 39 96t96 39t96 -39t39 -96t-39 -96.5t-96 -39.5t-96 39.5t-39 96.5z" />
    <glyph glyph-name="Zacute" unicode="&#x179;" horiz-adv-x="1380" 
d="M721 868q22 28 48 58t41 46l15 17v6h-704q-9 0 -19 10t-10 19v176q0 9 10 19t19 10h1208v-4l-690 -889q-19 -24 -41 -48.5t-34 -37.5l-13 -12v-5h729q9 0 19 -9.5t10 -18.5v-176q0 -9 -10 -19t-19 -10h-1229v4zM1004 1653q22 -22 22 -49q0 -38 -33 -66l-227 -190
q-16 -13 -41 -13h-98q-19 0 -19 15q0 10 13 28l206 293q29 45 74 45q34 0 57 -20z" />
    <glyph glyph-name="zacute" unicode="&#x17a;" horiz-adv-x="933" 
d="M41 0v8l336 496q17 25 38.5 52t34.5 42l13 14v6h-367q-9 0 -18.5 10t-9.5 19v164q0 9 9.5 19t18.5 10h797v-15l-342 -503q-18 -26 -38.5 -50.5t-32.5 -35.5l-11 -11v-4h379q9 0 19 -9.5t10 -18.5v-164q0 -9 -10 -19t-19 -10h-807zM784 1341q23 -23 23 -49q0 -37 -33 -65
l-227 -191q-14 -12 -41 -12h-98q-19 0 -19 14q0 12 12 29l207 293q29 45 74 45q33 0 57 -21z" />
    <glyph glyph-name="Zdotaccent" unicode="&#x17b;" horiz-adv-x="1380" 
d="M721 868q22 28 48 58t41 46l15 17v6h-704q-9 0 -19 10t-10 19v176q0 9 10 19t19 10h1208v-4l-690 -889q-19 -24 -41 -48.5t-34 -37.5l-13 -12v-5h729q9 0 19 -9.5t10 -18.5v-176q0 -9 -10 -19t-19 -10h-1229v4zM569 1477q0 57 39.5 96t96.5 39t96 -39t39 -96t-39 -96.5
t-96 -39.5t-96.5 39.5t-39.5 96.5z" />
    <glyph glyph-name="zdotaccent" unicode="&#x17c;" horiz-adv-x="933" 
d="M41 0v8l336 496q17 25 38.5 52t34.5 42l13 14v6h-367q-9 0 -18.5 10t-9.5 19v164q0 9 9.5 19t18.5 10h797v-15l-342 -503q-18 -26 -38.5 -50.5t-32.5 -35.5l-11 -11v-4h379q9 0 19 -9.5t10 -18.5v-164q0 -9 -10 -19t-19 -10h-807zM367 1141q0 57 39 96t96 39t96 -39
t39 -96t-39 -96t-96 -39t-96 39t-39 96z" />
    <glyph glyph-name="Zcaron" unicode="&#x17d;" horiz-adv-x="1380" 
d="M721 868q22 28 48 58t41 46l15 17v6h-704q-9 0 -19 10t-10 19v176q0 9 10 19t19 10h1208v-4l-690 -889q-19 -24 -41 -48.5t-34 -37.5l-13 -12v-5h729q9 0 19 -9.5t10 -18.5v-176q0 -9 -10 -19t-19 -10h-1229v4zM694 1327q-49 0 -90 41l-229 221q-21 21 -21 37q0 18 19 31
l43 31q18 12 33 12q17 0 47 -21l211 -147l211 147q30 21 47 21q14 0 32 -12l43 -31q19 -13 19 -31q0 -16 -21 -37l-229 -221q-41 -41 -90 -41h-25z" />
    <glyph glyph-name="zcaron" unicode="&#x17e;" horiz-adv-x="933" 
d="M41 0v8l336 496q17 25 38.5 52t34.5 42l13 14v6h-367q-9 0 -18.5 10t-9.5 19v164q0 9 9.5 19t18.5 10h797v-15l-342 -503q-18 -26 -38.5 -50.5t-32.5 -35.5l-11 -11v-4h379q9 0 19 -9.5t10 -18.5v-164q0 -9 -10 -19t-19 -10h-807zM471 1010q-49 0 -90 41l-229 221
q-21 21 -21 37q0 17 19 30l43 31q18 12 32 12q18 0 47 -20l211 -148l211 148q29 20 47 20q15 0 33 -12l43 -31q19 -13 19 -30q0 -16 -21 -37l-229 -221q-41 -41 -90 -41h-25z" />
    <glyph glyph-name="florin" unicode="&#x192;" horiz-adv-x="921" 
d="M758 840q9 0 18.5 -10t9.5 -19v-164q0 -9 -9.5 -19t-18.5 -10h-234l-149 -768q-47 -208 -135.5 -295t-247.5 -87q-55 0 -114.5 19.5t-100.5 47.5q-33 22 -33 37q0 11 8 27l55 114q11 25 33 25q12 0 27 -10q53 -37 104 -37q62 0 94 46t52 146l143 735h-121q-9 0 -18.5 10
t-9.5 19v164q0 9 9.5 19t18.5 10h164l37 178q36 171 137 262.5t244 91.5q106 0 182 -37q41 -21 41 -43q0 -12 -8 -30l-47 -107q-12 -27 -33 -27q-6 0 -27 7q-46 16 -77 16q-72 0 -105 -44.5t-53 -137.5l-27 -129h191z" />
    <glyph glyph-name="AEacute" unicode="&#x1fc;" horiz-adv-x="1847" 
d="M326 27q-9 -18 -16.5 -22.5t-26.5 -4.5h-244q-8 0 -13.5 4.5t-5.5 9.5t11 27l565 1141q23 47 72 47h1065q9 0 18.5 -10t9.5 -19v-176q0 -9 -9.5 -19t-18.5 -10h-654v-250h592q9 0 19 -9.5t10 -18.5v-176q0 -9 -10 -19t-19 -10h-592v-279h668q9 0 19 -9.5t10 -18.5v-176
q0 -9 -10 -19t-19 -10h-922q-9 0 -16.5 8t-7.5 17v186h-385zM524 430h277v555h-19q-43 -125 -90 -219zM1405 1653q22 -22 22 -49q0 -39 -32 -66l-228 -190q-16 -13 -41 -13h-98q-18 0 -18 15q0 11 12 28l207 293q29 45 74 45q34 0 57 -20z" />
    <glyph glyph-name="aeacute" unicode="&#x1fd;" horiz-adv-x="1732" 
d="M975 336q20 -65 87 -100t169 -35q119 0 256 78q26 16 47 16q26 0 37 -23l51 -100q10 -20 10 -33q0 -21 -26 -41q-150 -118 -385 -118q-251 0 -390 133h-8q-84 -68 -177.5 -100.5t-215.5 -32.5q-158 0 -251 71.5t-93 188.5q0 112 87.5 184t268.5 72h269v10
q0 68 -46.5 106.5t-142.5 38.5q-138 0 -141 -86v-4q-3 -18 -35 -18h-192q-9 0 -22 13t-13 22v8q0 122 99.5 198t305.5 76q222 0 332 -110h6q126 110 330 110q222 0 340.5 -110t118.5 -277q0 -32 -3.5 -66.5t-6.5 -52.5l-3 -18h-663zM1194 659q-85 0 -143.5 -36.5
t-71.5 -116.5h410q-3 72 -52.5 112.5t-142.5 40.5zM463 180q79 0 140 21.5t126 66.5q-13 38 -18 68h-248q-62 0 -88.5 -22t-26.5 -54q0 -36 31.5 -58t83.5 -22zM1194 1341q23 -23 23 -49q0 -37 -33 -65l-228 -191q-14 -12 -41 -12h-98q-18 0 -18 14q0 12 12 29l207 293
q29 45 74 45q32 0 57 -21z" />
    <glyph glyph-name="Oslashacute" unicode="&#x1fe;" horiz-adv-x="1519" 
d="M760 1249q231 0 411 -125l125 125l99 -98l-117 -117q160 -178 160 -420q0 -187 -93 -333.5t-246.5 -223.5t-338.5 -77q-239 0 -414 122l-127 -129l-98 99l121 121q-160 170 -160 421q0 139 54 258.5t146.5 201.5t216 128.5t261.5 46.5zM760 1016q-168 0 -284 -110.5
t-116 -291.5q0 -135 68 -235l565 567q-103 70 -233 70zM1159 614q0 136 -67 234l-566 -567q100 -68 234 -68q168 0 283.5 110t115.5 291zM1083 1653q23 -23 23 -49q0 -38 -33 -66l-227 -190q-16 -13 -41 -13h-98q-19 0 -19 15q0 11 12 28l207 293q29 45 74 45q34 0 57 -20z
" />
    <glyph glyph-name="oslashacute" unicode="&#x1ff;" horiz-adv-x="1130" 
d="M180 135q-98 116 -98 285q0 137 66.5 238.5t175 151.5t241.5 50q151 0 273 -67l80 79l98 -98l-70 -69q103 -118 103 -285q0 -137 -67 -238.5t-175.5 -151.5t-241.5 -50q-157 0 -276 67l-80 -80l-98 99zM786 420q0 56 -20 100h-4l-299 -299q41 -20 102 -20q98 0 159.5 61
t61.5 158zM344 420q0 -54 18 -98h5l297 296q-44 21 -99 21q-98 0 -159.5 -61.5t-61.5 -157.5zM868 1341q23 -23 23 -49q0 -37 -33 -65l-227 -191q-14 -12 -41 -12h-98q-19 0 -19 14q0 12 12 29l207 293q29 45 74 45q33 0 57 -21z" />
    <glyph glyph-name="uni0200" unicode="&#x200;" horiz-adv-x="1425" 
d="M1010 213h-598l-88 -186q-9 -18 -16.5 -22.5t-26.5 -4.5h-244q-17 0 -17 14q0 7 9 25l577 1190h213l578 -1190q8 -16 8 -25q0 -14 -16 -14h-244q-19 0 -26.5 4.5t-16.5 22.5zM510 430h405l-110 227q-19 39 -40.5 94t-33.5 91l-12 35h-12q-43 -132 -86 -220zM305 1696
q23 20 55 20q41 0 70 -45l207 -293q12 -16 12 -28q0 -15 -18 -15h-94q-26 0 -43 17l-209 196q-37 34 -37 70q0 28 24 49zM664 1696q23 20 55 20q40 0 69 -45l207 -293q13 -17 13 -28q0 -15 -19 -15h-94q-26 0 -43 17l-209 196q-37 34 -37 70q0 27 25 49z" />
    <glyph glyph-name="uni0201" unicode="&#x201;" horiz-adv-x="1062" 
d="M721 84q-139 -104 -320 -104q-153 0 -234 74t-81 186t87.5 184t268.5 72q54 0 120 -4t106 -8l39 -3l4 2v23q0 68 -46.5 106.5t-142.5 38.5q-138 0 -141 -86v-4q-3 -18 -35 -18h-192q-9 0 -22 13t-13 22v8q0 122 99.5 198t305.5 76q227 0 338 -106t111 -279v-440
q0 -9 -13 -22t-22 -13h-152q-22 0 -34 27l-25 57h-6zM446 180q72 0 146.5 21t118.5 51v63h-248q-115 0 -115 -69q0 -29 24.5 -47.5t73.5 -18.5zM147 1384q24 21 56 21q40 0 69 -45l207 -293q13 -17 13 -29q0 -14 -19 -14h-94q-27 0 -43 16l-209 197q-37 34 -37 70
q0 27 25 49zM506 1384q24 21 55 21q41 0 70 -45l207 -293q12 -16 12 -29q0 -14 -19 -14h-94q-27 0 -43 16l-209 197q-36 34 -36 70q0 28 24 49z" />
    <glyph glyph-name="uni0202" unicode="&#x202;" horiz-adv-x="1425" 
d="M1010 213h-598l-88 -186q-9 -18 -16.5 -22.5t-26.5 -4.5h-244q-17 0 -17 14q0 7 9 25l577 1190h213l578 -1190q8 -16 8 -25q0 -14 -16 -14h-244q-19 0 -26.5 4.5t-16.5 22.5zM510 430h405l-110 227q-19 39 -40.5 94t-33.5 91l-12 35h-12q-43 -132 -86 -220zM711 1634
q137 0 216 -75t79 -197q0 -11 -8.5 -19t-18.5 -8h-123q-9 0 -15.5 6.5t-6.5 14.5q0 54 -34 87.5t-89 33.5t-89 -33.5t-34 -87.5q0 -8 -7 -14.5t-16 -6.5h-123q-10 0 -18 8t-8 19q0 122 79 197t216 75z" />
    <glyph glyph-name="uni0203" unicode="&#x203;" horiz-adv-x="1062" 
d="M721 84q-139 -104 -320 -104q-153 0 -234 74t-81 186t87.5 184t268.5 72q54 0 120 -4t106 -8l39 -3l4 2v23q0 68 -46.5 106.5t-142.5 38.5q-138 0 -141 -86v-4q-3 -18 -35 -18h-192q-9 0 -22 13t-13 22v8q0 122 99.5 198t305.5 76q227 0 338 -106t111 -279v-440
q0 -9 -13 -22t-22 -13h-152q-22 0 -34 27l-25 57h-6zM446 180q72 0 146.5 21t118.5 51v63h-248q-115 0 -115 -69q0 -29 24.5 -47.5t73.5 -18.5zM535 1307q137 0 215.5 -75.5t78.5 -197.5q0 -11 -8 -18.5t-18 -7.5h-123q-9 0 -16 6t-7 14q0 54 -33.5 87.5t-88.5 33.5
t-89 -33.5t-34 -87.5q0 -8 -7 -14t-16 -6h-123q-10 0 -18 7.5t-8 18.5q0 122 79 197.5t216 75.5z" />
    <glyph glyph-name="uni0204" unicode="&#x204;" horiz-adv-x="1245" 
d="M424 512v-279h721q9 0 19 -9.5t10 -18.5v-176q0 -9 -10 -19t-19 -10h-975q-9 0 -17 8t-8 17v1179q0 9 8 17t17 8h963q9 0 18.5 -10t9.5 -19v-176q0 -9 -9.5 -19t-18.5 -10h-709v-250h647q9 0 19 -9.5t10 -18.5v-176q0 -9 -10 -19t-19 -10h-647zM244 1669q24 21 55 21
q41 0 70 -45l206 -293q13 -17 13 -29q0 -14 -19 -14h-94q-27 0 -43 16l-209 197q-37 34 -37 69q0 27 25 49zM602 1669q24 21 55 21q41 0 70 -45l207 -293q12 -16 12 -29q0 -14 -18 -14h-94q-27 0 -43 16l-209 197q-37 34 -37 69q0 28 24 49z" />
    <glyph glyph-name="uni0205" unicode="&#x205;" horiz-adv-x="1110" 
d="M352 348q11 -76 79.5 -111.5t176.5 -35.5q125 0 256 78q26 16 47 16q25 0 37 -23l51 -100q11 -22 11 -33q0 -20 -27 -41q-150 -118 -385 -118q-147 0 -262.5 50t-184.5 151t-69 239q0 190 132.5 315t354.5 125t340.5 -110t118.5 -277q0 -28 -2.5 -59.5t-5.5 -48.5l-2 -17
h-666zM571 659q-78 0 -137.5 -35t-77.5 -100h410q-3 58 -53.5 96.5t-141.5 38.5zM160 1384q24 21 55 21q41 0 70 -45l207 -293q12 -16 12 -29q0 -14 -19 -14h-94q-27 0 -43 16l-209 197q-37 34 -37 70q0 27 25 49zM518 1384q24 21 55 21q41 0 70 -45l207 -293q12 -16 12 -29
q0 -14 -18 -14h-94q-27 0 -43 16l-209 197q-37 34 -37 70q0 28 24 49z" />
    <glyph glyph-name="uni0206" unicode="&#x206;" horiz-adv-x="1245" 
d="M424 512v-279h721q9 0 19 -9.5t10 -18.5v-176q0 -9 -10 -19t-19 -10h-975q-9 0 -17 8t-8 17v1179q0 9 8 17t17 8h963q9 0 18.5 -10t9.5 -19v-176q0 -9 -9.5 -19t-18.5 -10h-709v-250h647q9 0 19 -9.5t10 -18.5v-176q0 -9 -10 -19t-19 -10h-647zM649 1583q137 0 216 -75
t79 -197q0 -11 -8 -19t-18 -8h-123q-9 0 -16 6.5t-7 14.5q0 54 -34 87t-89 33t-89 -33t-34 -87q0 -8 -6.5 -14.5t-15.5 -6.5h-123q-10 0 -18.5 8t-8.5 19q0 122 79 197t216 75z" />
    <glyph glyph-name="uni0207" unicode="&#x207;" horiz-adv-x="1110" 
d="M352 348q11 -76 79.5 -111.5t176.5 -35.5q125 0 256 78q26 16 47 16q25 0 37 -23l51 -100q11 -22 11 -33q0 -20 -27 -41q-150 -118 -385 -118q-147 0 -262.5 50t-184.5 151t-69 239q0 190 132.5 315t354.5 125t340.5 -110t118.5 -277q0 -28 -2.5 -59.5t-5.5 -48.5l-2 -17
h-666zM571 659q-78 0 -137.5 -35t-77.5 -100h410q-3 58 -53.5 96.5t-141.5 38.5zM567 1307q137 0 216 -75.5t79 -197.5q0 -11 -8 -18.5t-18 -7.5h-123q-9 0 -16 6t-7 14q0 54 -34 87.5t-89 33.5t-89 -33.5t-34 -87.5q0 -8 -6.5 -14t-15.5 -6h-123q-10 0 -18.5 7.5t-8.5 18.5
q0 122 79 197.5t216 75.5z" />
    <glyph glyph-name="uni0208" unicode="&#x208;" horiz-adv-x="569" 
d="M424 25q0 -9 -8 -17t-17 -8h-229q-9 0 -17 8t-8 17v1179q0 9 8 17t17 8h229q9 0 17 -8t8 -17v-1179zM-125 1696q23 20 55 20q41 0 70 -45l207 -293q12 -16 12 -28q0 -15 -18 -15h-95q-26 0 -43 17l-208 196q-37 34 -37 70q0 28 24 49zM233 1696q23 20 56 20q40 0 69 -45
l207 -293q13 -17 13 -28q0 -15 -19 -15h-94q-26 0 -43 17l-209 196q-37 34 -37 70q0 27 25 49z" />
    <glyph glyph-name="uni0209" unicode="&#x209;" horiz-adv-x="458" 
d="M360 35q0 -9 -12.5 -22t-21.5 -13h-193q-9 0 -22 13t-13 22v770q0 9 13 22t22 13h193q9 0 21.5 -13t12.5 -22v-770zM-207 1384q24 21 55 21q41 0 70 -45l207 -293q12 -16 12 -29q0 -14 -18 -14h-94q-27 0 -43 16l-209 197q-37 34 -37 70q0 28 24 49zM152 1384
q24 21 55 21q40 0 69 -45l207 -293q13 -17 13 -29q0 -14 -19 -14h-94q-27 0 -43 16l-209 197q-37 34 -37 70q0 27 25 49z" />
    <glyph glyph-name="uni020A" unicode="&#x20a;" horiz-adv-x="569" 
d="M424 25q0 -9 -8 -17t-17 -8h-229q-9 0 -17 8t-8 17v1179q0 9 8 17t17 8h229q9 0 17 -8t8 -17v-1179zM285 1634q137 0 216 -75t79 -197q0 -11 -8.5 -19t-18.5 -8h-123q-9 0 -15.5 6.5t-6.5 14.5q0 54 -34 87.5t-89 33.5t-89 -33.5t-34 -87.5q0 -8 -7 -14.5t-16 -6.5h-123
q-10 0 -18 8t-8 19q0 122 79 197t216 75z" />
    <glyph glyph-name="uni020B" unicode="&#x20b;" horiz-adv-x="458" 
d="M360 35q0 -9 -12.5 -22t-21.5 -13h-193q-9 0 -22 13t-13 22v770q0 9 13 22t22 13h193q9 0 21.5 -13t12.5 -22v-770zM229 1307q137 0 216 -75.5t79 -197.5q0 -11 -8 -18.5t-18 -7.5h-123q-9 0 -16 6t-7 14q0 54 -34 87.5t-89 33.5t-89 -33.5t-34 -87.5q0 -8 -6.5 -14
t-15.5 -6h-123q-10 0 -18.5 7.5t-8.5 18.5q0 122 79 197.5t216 75.5z" />
    <glyph glyph-name="uni020C" unicode="&#x20c;" horiz-adv-x="1519" 
d="M760 1249q138 0 261.5 -46.5t216 -128.5t146.5 -201.5t54 -258.5q0 -187 -93 -333.5t-246.5 -223.5t-338.5 -77t-338.5 77t-246.5 223.5t-93 333.5q0 139 54 258.5t146.5 201.5t216 128.5t261.5 46.5zM760 1016q-168 0 -284 -110.5t-116 -291.5t116 -291t284 -110
t283.5 110t115.5 291t-115.5 291.5t-283.5 110.5zM311 1696q23 20 56 20q40 0 69 -45l207 -293q12 -16 12 -28q0 -15 -18 -15h-94q-26 0 -43 17l-209 196q-37 34 -37 70q0 27 25 49zM670 1696q23 20 55 20q41 0 70 -45l206 -293q13 -17 13 -28q0 -15 -19 -15h-94
q-26 0 -43 17l-209 196q-37 34 -37 70q0 27 25 49z" />
    <glyph glyph-name="uni020D" unicode="&#x20d;" horiz-adv-x="1130" 
d="M565 860q133 0 241.5 -50t175.5 -151.5t67 -238.5t-67 -238.5t-175.5 -151.5t-241.5 -50t-241.5 50t-175 151.5t-66.5 238.5t66.5 238.5t175 151.5t241.5 50zM786 420q0 96 -61.5 157.5t-159.5 61.5t-159.5 -61.5t-61.5 -157.5q0 -97 61.5 -158t159.5 -61t159.5 61
t61.5 158zM127 1384q24 21 55 21q41 0 70 -45l207 -293q12 -16 12 -29q0 -14 -18 -14h-95q-27 0 -43 16l-209 197q-36 34 -36 70q0 28 24 49zM485 1384q24 21 56 21q40 0 69 -45l207 -293q12 -16 12 -29q0 -14 -18 -14h-94q-27 0 -43 16l-209 197q-37 34 -37 70q0 27 25 49z
" />
    <glyph glyph-name="uni020E" unicode="&#x20e;" horiz-adv-x="1519" 
d="M760 1249q138 0 261.5 -46.5t216 -128.5t146.5 -201.5t54 -258.5q0 -187 -93 -333.5t-246.5 -223.5t-338.5 -77t-338.5 77t-246.5 223.5t-93 333.5q0 139 54 258.5t146.5 201.5t216 128.5t261.5 46.5zM760 1016q-168 0 -284 -110.5t-116 -291.5t116 -291t284 -110
t283.5 110t115.5 291t-115.5 291.5t-283.5 110.5zM760 1634q137 0 216 -75t79 -197q0 -11 -8.5 -19t-18.5 -8h-123q-9 0 -15.5 6.5t-6.5 14.5q0 54 -34 87.5t-89 33.5t-89 -33.5t-34 -87.5q0 -8 -7 -14.5t-16 -6.5h-122q-10 0 -18.5 8t-8.5 19q0 122 79 197t216 75z" />
    <glyph glyph-name="uni020F" unicode="&#x20f;" horiz-adv-x="1130" 
d="M565 860q133 0 241.5 -50t175.5 -151.5t67 -238.5t-67 -238.5t-175.5 -151.5t-241.5 -50t-241.5 50t-175 151.5t-66.5 238.5t66.5 238.5t175 151.5t241.5 50zM786 420q0 96 -61.5 157.5t-159.5 61.5t-159.5 -61.5t-61.5 -157.5q0 -97 61.5 -158t159.5 -61t159.5 61
t61.5 158zM563 1307q137 0 216 -75.5t79 -197.5q0 -11 -8.5 -18.5t-18.5 -7.5h-122q-9 0 -16 6t-7 14q0 54 -34 87.5t-89 33.5t-89 -33.5t-34 -87.5q0 -8 -6.5 -14t-15.5 -6h-123q-10 0 -18.5 7.5t-8.5 18.5q0 122 79 197.5t216 75.5z" />
    <glyph glyph-name="uni0210" unicode="&#x210;" horiz-adv-x="1335" 
d="M145 1204q0 9 8 17t17 8h569q228 0 370 -116t142 -314q0 -135 -74 -230t-202 -139v-4q36 -39 65 -82l207 -303q13 -18 13 -27q0 -14 -17 -14h-272q-20 0 -33 20l-250 365h-264v-360q0 -9 -8 -17t-17 -8h-229q-9 0 -17 8t-8 17v1179zM424 995v-389h297q116 0 184 51.5
t68 141.5q0 91 -68 143.5t-184 52.5h-297zM186 1696q23 20 56 20q40 0 69 -45l207 -293q12 -16 12 -28q0 -15 -18 -15h-94q-26 0 -43 17l-209 196q-37 34 -37 70q0 27 25 49zM545 1696q23 20 55 20q41 0 70 -45l207 -293q12 -16 12 -28q0 -15 -19 -15h-94q-26 0 -43 17
l-209 196q-37 34 -37 70q0 27 25 49z" />
    <glyph glyph-name="uni0211" unicode="&#x211;" horiz-adv-x="929" 
d="M362 723q105 137 269 137q121 0 189.5 -75t68.5 -212v-86q0 -9 -13 -21.5t-22 -12.5h-192q-9 0 -22 12.5t-13 21.5v50q0 49 -25.5 75.5t-66.5 26.5q-53 0 -103.5 -43.5t-71.5 -103.5v-457q0 -9 -12.5 -22t-21.5 -13h-193q-9 0 -22 13t-13 22v770q0 9 13 22t22 13h160
q9 0 16.5 -7.5t14 -21.5t11 -27.5t10 -32.5t9.5 -28h8zM51 1384q24 21 55 21q41 0 70 -45l207 -293q12 -16 12 -29q0 -14 -18 -14h-94q-27 0 -43 16l-209 197q-37 34 -37 70q0 28 24 49zM410 1384q24 21 55 21q41 0 70 -45l206 -293q13 -17 13 -29q0 -14 -19 -14h-94
q-27 0 -43 16l-209 197q-37 34 -37 70q0 27 25 49z" />
    <glyph glyph-name="uni0212" unicode="&#x212;" horiz-adv-x="1335" 
d="M145 1204q0 9 8 17t17 8h569q228 0 370 -116t142 -314q0 -135 -74 -230t-202 -139v-4q36 -39 65 -82l207 -303q13 -18 13 -27q0 -14 -17 -14h-272q-20 0 -33 20l-250 365h-264v-360q0 -9 -8 -17t-17 -8h-229q-9 0 -17 8t-8 17v1179zM424 995v-389h297q116 0 184 51.5
t68 141.5q0 91 -68 143.5t-184 52.5h-297zM623 1634q137 0 216 -75t79 -197q0 -11 -8.5 -19t-18.5 -8h-123q-9 0 -16 6.5t-7 14.5q0 54 -33.5 87.5t-88.5 33.5t-89 -33.5t-34 -87.5q0 -8 -7 -14.5t-16 -6.5h-123q-10 0 -18 8t-8 19q0 122 79 197t216 75z" />
    <glyph glyph-name="uni0213" unicode="&#x213;" horiz-adv-x="929" 
d="M362 723q105 137 269 137q121 0 189.5 -75t68.5 -212v-86q0 -9 -13 -21.5t-22 -12.5h-192q-9 0 -22 12.5t-13 21.5v50q0 49 -25.5 75.5t-66.5 26.5q-53 0 -103.5 -43.5t-71.5 -103.5v-457q0 -9 -12.5 -22t-21.5 -13h-193q-9 0 -22 13t-13 22v770q0 9 13 22t22 13h160
q9 0 16.5 -7.5t14 -21.5t11 -27.5t10 -32.5t9.5 -28h8zM451 1307q137 0 215.5 -75.5t78.5 -197.5q0 -11 -8 -18.5t-18 -7.5h-123q-9 0 -16 6t-7 14q0 54 -33.5 87.5t-88.5 33.5t-89 -33.5t-34 -87.5q0 -8 -7 -14t-16 -6h-123q-10 0 -18 7.5t-8 18.5q0 122 79 197.5t216 75.5
z" />
    <glyph glyph-name="uni0214" unicode="&#x214;" horiz-adv-x="1515" 
d="M1106 1204q0 9 7.5 17t16.5 8h230q9 0 16.5 -8t7.5 -17v-616q0 -292 -168.5 -450t-457.5 -158t-458 158t-169 450v616q0 9 8 17t17 8h229q9 0 17 -8t8 -17v-614q0 -188 89.5 -282.5t258.5 -94.5t258.5 94.5t89.5 282.5v614zM330 1696q23 20 55 20q41 0 70 -45l207 -293
q12 -16 12 -28q0 -15 -19 -15h-94q-26 0 -43 17l-209 196q-37 34 -37 70q0 27 25 49zM688 1696q23 20 55 20q41 0 70 -45l207 -293q12 -16 12 -28q0 -15 -18 -15h-94q-26 0 -43 17l-209 196q-37 34 -37 70q0 28 24 49z" />
    <glyph glyph-name="uni0215" unicode="&#x215;" horiz-adv-x="1073" 
d="M731 88q-131 -108 -289 -108q-175 0 -263.5 99t-88.5 269v457q0 9 13 22t22 13h192q9 0 22 -13t13 -22v-445q0 -75 38.5 -117t101.5 -42q72 0 135 42.5t86 98.5v463q0 9 13 22t22 13h192q9 0 22 -13t13 -22v-770q0 -9 -13 -22t-22 -13h-143q-23 0 -37 37l-21 51h-8z
M111 1384q24 21 55 21q41 0 70 -45l206 -293q13 -17 13 -29q0 -14 -19 -14h-94q-27 0 -43 16l-209 197q-37 34 -37 70q0 27 25 49zM469 1384q24 21 55 21q41 0 70 -45l207 -293q12 -16 12 -29q0 -14 -18 -14h-95q-27 0 -43 16l-208 197q-37 34 -37 70q0 28 24 49z" />
    <glyph glyph-name="uni0216" unicode="&#x216;" horiz-adv-x="1515" 
d="M1106 1204q0 9 7.5 17t16.5 8h230q9 0 16.5 -8t7.5 -17v-616q0 -292 -168.5 -450t-457.5 -158t-458 158t-169 450v616q0 9 8 17t17 8h229q9 0 17 -8t8 -17v-614q0 -188 89.5 -282.5t258.5 -94.5t258.5 94.5t89.5 282.5v614zM756 1634q137 0 216 -75t79 -197
q0 -11 -8.5 -19t-18.5 -8h-123q-9 0 -15.5 6.5t-6.5 14.5q0 54 -34 87.5t-89 33.5t-89 -33.5t-34 -87.5q0 -8 -7 -14.5t-16 -6.5h-123q-10 0 -18 8t-8 19q0 122 79 197t216 75z" />
    <glyph glyph-name="uni0217" unicode="&#x217;" horiz-adv-x="1073" 
d="M731 88q-131 -108 -289 -108q-175 0 -263.5 99t-88.5 269v457q0 9 13 22t22 13h192q9 0 22 -13t13 -22v-445q0 -75 38.5 -117t101.5 -42q72 0 135 42.5t86 98.5v463q0 9 13 22t22 13h192q9 0 22 -13t13 -22v-770q0 -9 -13 -22t-22 -13h-143q-23 0 -37 37l-21 51h-8z
M530 1307q137 0 216 -75.5t79 -197.5q0 -11 -8 -18.5t-18 -7.5h-123q-9 0 -16 6t-7 14q0 54 -34 87.5t-89 33.5t-88.5 -33.5t-33.5 -87.5q0 -8 -7 -14t-16 -6h-123q-10 0 -18 7.5t-8 18.5q0 122 78.5 197.5t215.5 75.5z" />
    <glyph glyph-name="uni0218" unicode="&#x218;" horiz-adv-x="1308" 
d="M319 414q35 0 41 -31q33 -170 304 -170q140 0 212 45.5t72 116.5q0 47 -39 79.5t-125 39.5l-319 26q-186 15 -284.5 98t-98.5 222q0 81 35.5 154t102.5 130t173.5 91t237.5 34q136 0 241.5 -30t169 -81.5t95.5 -117t32 -141.5q0 -14 -10.5 -24.5t-28.5 -10.5h-202
q-32 0 -37 30q-10 61 -73.5 101.5t-188.5 40.5t-197 -45t-72 -115q0 -93 150 -104l317 -27q204 -18 302 -109.5t98 -228.5q0 -75 -33 -145.5t-98.5 -130t-177 -95.5t-254.5 -36q-270 0 -426 110t-156 270v17q0 15 11 26t28 11h198zM555 -217q0 51 36 86t87 35
q58 0 96.5 -41.5t38.5 -124.5q0 -105 -47.5 -181t-136.5 -108q-33 -10 -47 -10q-15 0 -23 14l-27 68q-4 8 -1 15.5t10 10.5q60 22 85 46t29 69v4q-43 6 -71.5 39t-28.5 78z" />
    <glyph glyph-name="uni0219" unicode="&#x219;" horiz-adv-x="1017" 
d="M301 281q32 0 41 -29q10 -37 48.5 -54.5t129.5 -17.5q78 0 116 22t38 56q0 25 -23.5 39t-83.5 20l-202 19q-283 26 -283 233q0 119 106.5 205t305.5 86q192 0 296.5 -71.5t104.5 -178.5q0 -11 -9.5 -21.5t-23.5 -10.5h-176q-19 0 -29.5 6.5t-19.5 23.5q-28 51 -143 51
q-75 0 -112.5 -23.5t-37.5 -53.5q0 -44 80 -52l203 -18q170 -16 239.5 -78.5t69.5 -167.5q0 -54 -23 -103t-70.5 -91t-130.5 -67t-192 -25q-220 0 -329 76.5t-109 185.5q0 17 11 28t30 11h178zM399 -242q0 57 39.5 96.5t96.5 39.5q65 0 108 -47t43 -138q0 -116 -53.5 -200
t-153.5 -119q-37 -13 -51 -13q-16 0 -25 17l-30 74q-4 9 -1 18t11 12q67 24 95 50.5t32 76.5v4q-48 8 -79.5 43.5t-31.5 85.5z" />
    <glyph glyph-name="circumflex" unicode="&#x2c6;" horiz-adv-x="1705" 
d="M815 1395q45 0 84 -39l240 -232q20 -20 20 -37q0 -18 -18 -30l-43 -31q-18 -12 -33 -12q-18 0 -47 20l-211 148l-211 -148q-29 -20 -47 -20q-15 0 -33 12l-43 31q-18 12 -18 30q0 17 20 37l240 232q39 39 84 39h16z" />
    <glyph glyph-name="caron" unicode="&#x2c7;" horiz-adv-x="1705" 
d="M795 1010q-49 0 -90 41l-230 221q-20 20 -20 37q0 18 18 30l43 31q18 12 33 12q18 0 47 -20l211 -148l211 148q29 20 47 20q15 0 33 -12l43 -31q18 -12 18 -30q0 -17 -20 -37l-230 -221q-41 -41 -90 -41h-24z" />
    <glyph glyph-name="breve" unicode="&#x2d8;" horiz-adv-x="831" 
d="M414 1008q-137 0 -216 75t-79 197q0 11 8 19t18 8h123q9 0 16 -6.5t7 -14.5q0 -54 34 -87.5t89 -33.5t89 33.5t34 87.5q0 8 6.5 14.5t15.5 6.5h123q10 0 18.5 -8t8.5 -19q0 -122 -79 -197t-216 -75z" />
    <glyph glyph-name="dotaccent" unicode="&#x2d9;" horiz-adv-x="471" 
d="M100 1169q0 57 39.5 96.5t96.5 39.5t96 -39.5t39 -96.5t-39 -96t-96 -39t-96.5 39t-39.5 96z" />
    <glyph glyph-name="ring" unicode="&#x2da;" horiz-adv-x="552" 
d="M41 1237q0 90 66 152.5t169 62.5q102 0 169 -63t67 -152q0 -91 -66.5 -154t-169.5 -63q-104 0 -169.5 63t-65.5 154zM190 1237q0 -38 24.5 -62t61.5 -24t61.5 24t24.5 62q0 35 -24.5 59.5t-61.5 24.5t-61.5 -24.5t-24.5 -59.5z" />
    <glyph glyph-name="ogonek" unicode="&#x2db;" horiz-adv-x="626" 
d="M473 -297q12 -50 12 -86q0 -24 -24 -33q-49 -18 -121 -18q-106 0 -167.5 52t-61.5 138q0 59 33.5 124t91.5 120h174q-113 -120 -113 -211q0 -72 82 -72q12 0 34 4.5t25 4.5q11 2 21.5 -4t13.5 -19z" />
    <glyph glyph-name="tilde" unicode="&#x2dc;" horiz-adv-x="974" 
d="M170 1028q-39 0 -39 33q0 260 199 260q80 0 141 -43l78 -55q47 -35 82 -35q33 0 48 25t15 81q0 12 8.5 19.5t22.5 7.5h88q39 0 39 -33q0 -260 -199 -260q-80 0 -141 43l-78 55q-51 35 -82 35q-33 0 -48 -25t-15 -81q0 -12 -8.5 -19.5t-22.5 -7.5h-88z" />
    <glyph glyph-name="hungarumlaut" unicode="&#x2dd;" horiz-adv-x="962" 
d="M852 1356q25 -22 25 -49q0 -36 -37 -70l-209 -197q-16 -16 -43 -16h-94q-19 0 -19 14q0 13 12 29l207 293q29 45 70 45q31 0 55 -21zM494 1356q24 -21 24 -49q0 -36 -37 -70l-209 -197q-16 -16 -43 -16h-94q-18 0 -18 14q0 13 12 29l207 293q29 45 70 45q31 0 55 -21z
" />
    <glyph glyph-name="uni0311" unicode="&#x311;" horiz-adv-x="0" 
d="M414 1307q137 0 216 -75.5t79 -197.5q0 -11 -8.5 -18.5t-18.5 -7.5h-123q-9 0 -15.5 6t-6.5 14q0 54 -34 87.5t-89 33.5t-89 -33.5t-34 -87.5q0 -8 -7 -14t-16 -6h-123q-10 0 -18 7.5t-8 18.5q0 122 79 197.5t216 75.5z" />
    <glyph glyph-name="pi" unicode="&#x3c0;" horiz-adv-x="1355" 
d="M537 35q0 -9 -13 -22t-22 -13h-193q-9 0 -22 13t-13 22v583h-190q-9 0 -19 10t-10 19v164q0 9 10 19t19 10h1165q9 0 19 -10t10 -19v-164q0 -9 -10 -19t-19 -10h-200v-288q0 -129 96 -129q32 0 72 16q38 12 45 -18l26 -103q6 -24 6 -41q0 -21 -28 -39q-61 -36 -172 -36
q-141 0 -224.5 81t-83.5 248v309h-249v-583z" />
    <glyph glyph-name="uni0E3F" unicode="&#xe3f;" horiz-adv-x="1331" 
d="M170 0q-9 0 -17 8t-8 17v1179q0 9 8 17t17 8h436v164h139v-164h52q202 0 314 -96.5t112 -245.5q0 -143 -111 -230v-4q73 -42 115.5 -116t42.5 -168q0 -176 -122.5 -272.5t-344.5 -96.5h-58v-164h-139v164h-436zM745 541v-328h46q217 0 217 164t-222 164h-41zM606 213v328
h-198v-328h198zM408 737h198v279h-198v-279zM745 1016v-279h58q87 0 122.5 37.5t35.5 102.5q0 63 -43.5 101t-141.5 38h-31z" />
    <glyph glyph-name="Wgrave" unicode="&#x1e80;" horiz-adv-x="2121" 
d="M1546 0h-170l-282 672l-31 86h-4q-15 -51 -29 -86l-285 -672h-170l-546 1192q-9 18 -9 25q0 12 17 12h246q20 0 26 -4t15 -23l276 -588q14 -28 30.5 -72.5t25.5 -75.5l10 -30h8q20 78 49 144l272 649h131l273 -649q13 -30 25 -66t18 -57l6 -21h8q35 115 66 178l276 588
q9 19 15.5 23t25.5 4h246q16 0 16 -12q0 -9 -8 -25zM774 1696q23 20 57 20q45 0 74 -45l207 -293q12 -17 12 -28q0 -15 -18 -15h-98q-25 0 -41 13l-228 190q-32 27 -32 66q0 27 22 49z" />
    <glyph glyph-name="wgrave" unicode="&#x1e81;" horiz-adv-x="1435" 
d="M430 500q6 -16 13 -44t11 -48l3 -21h8q15 68 31 109l141 344h162l141 -344q7 -18 15.5 -45.5t12.5 -45.5l5 -18h8q13 78 27 113l125 311q9 20 15.5 24.5t25.5 4.5h219q16 0 16 -15q0 -8 -4 -18l-334 -807h-174l-141 344l-35 115h-6q-19 -78 -35 -115l-141 -344h-174
l-334 807q-4 10 -4 18q0 15 16 15h219q19 0 26.5 -4.5t14.5 -24.5zM459 1384q24 21 57 21q45 0 74 -45l207 -293q12 -17 12 -29q0 -14 -18 -14h-99q-27 0 -41 12l-227 191q-33 28 -33 65q0 26 23 49z" />
    <glyph glyph-name="Wacute" unicode="&#x1e82;" horiz-adv-x="2121" 
d="M1546 0h-170l-282 672l-31 86h-4q-15 -51 -29 -86l-285 -672h-170l-546 1192q-9 18 -9 25q0 12 17 12h246q20 0 26 -4t15 -23l276 -588q14 -28 30.5 -72.5t25.5 -75.5l10 -30h8q20 78 49 144l272 649h131l273 -649q13 -30 25 -66t18 -57l6 -21h8q35 115 66 178l276 588
q9 19 15.5 23t25.5 4h246q16 0 16 -12q0 -9 -8 -25zM1395 1653q22 -22 22 -49q0 -38 -33 -66l-227 -190q-16 -13 -41 -13h-98q-19 0 -19 15q0 10 13 28l207 293q29 45 73 45q35 0 58 -20z" />
    <glyph glyph-name="wacute" unicode="&#x1e83;" horiz-adv-x="1435" 
d="M430 500q6 -16 13 -44t11 -48l3 -21h8q15 68 31 109l141 344h162l141 -344q7 -18 15.5 -45.5t12.5 -45.5l5 -18h8q13 78 27 113l125 311q9 20 15.5 24.5t25.5 4.5h219q16 0 16 -15q0 -8 -4 -18l-334 -807h-174l-141 344l-35 115h-6q-19 -78 -35 -115l-141 -344h-174
l-334 807q-4 10 -4 18q0 15 16 15h219q19 0 26.5 -4.5t14.5 -24.5zM1006 1341q22 -22 22 -49q0 -37 -33 -65l-227 -191q-14 -12 -41 -12h-98q-19 0 -19 14q0 11 13 29l206 293q29 45 74 45q33 0 58 -21z" />
    <glyph glyph-name="Wdieresis" unicode="&#x1e84;" horiz-adv-x="2121" 
d="M1546 0h-170l-282 672l-31 86h-4q-15 -51 -29 -86l-285 -672h-170l-546 1192q-9 18 -9 25q0 12 17 12h246q20 0 26 -4t15 -23l276 -588q14 -28 30.5 -72.5t25.5 -75.5l10 -30h8q20 78 49 144l272 649h131l273 -649q13 -30 25 -66t18 -57l6 -21h8q35 115 66 178l276 588
q9 19 15.5 23t25.5 4h246q16 0 16 -12q0 -9 -8 -25zM729 1477q0 57 39 96t96 39t96 -39t39 -96t-39 -96.5t-96 -39.5t-96 39.5t-39 96.5zM1122 1477q0 57 39 96t96 39t96.5 -39t39.5 -96t-39.5 -96.5t-96.5 -39.5t-96 39.5t-39 96.5z" />
    <glyph glyph-name="wdieresis" unicode="&#x1e85;" horiz-adv-x="1435" 
d="M430 500q6 -16 13 -44t11 -48l3 -21h8q15 68 31 109l141 344h162l141 -344q7 -18 15.5 -45.5t12.5 -45.5l5 -18h8q13 78 27 113l125 311q9 20 15.5 24.5t25.5 4.5h219q16 0 16 -15q0 -8 -4 -18l-334 -807h-174l-141 344l-35 115h-6q-19 -78 -35 -115l-141 -344h-174
l-334 807q-4 10 -4 18q0 15 16 15h219q19 0 26.5 -4.5t14.5 -24.5zM385 1143q0 57 39 96t96 39t96 -39t39 -96t-39 -96t-96 -39t-96 39t-39 96zM778 1143q0 57 39 96t96 39t96.5 -39t39.5 -96t-39.5 -96t-96.5 -39t-96 39t-39 96z" />
    <glyph glyph-name="Ygrave" unicode="&#x1ef2;" horiz-adv-x="1318" 
d="M31 1194q-11 16 -11 23q0 12 13 12h260q19 0 29 -5t20 -20l211 -297q20 -27 45.5 -68.5t41.5 -69.5l15 -28h9q55 100 102 166l211 297q17 25 49 25h260q12 0 12 -12q0 -8 -10 -23l-489 -702v-467q0 -9 -8 -17t-17 -8h-229q-9 0 -17 8t-8 17v467zM414 1696q23 20 57 20
q45 0 74 -45l207 -293q12 -17 12 -28q0 -15 -19 -15h-98q-25 0 -41 13l-227 190q-33 28 -33 66q0 26 23 49z" />
    <glyph glyph-name="ygrave" unicode="&#x1ef3;" horiz-adv-x="1062" 
d="M508 -487q-6 -15 -14.5 -20t-30.5 -5h-219q-6 0 -11.5 4.5t-5.5 11.5q0 8 11 35l190 469l-391 785q-10 20 -10 30q0 7 6 12t12 5h221q21 0 31 -6t18 -21l195 -391q13 -24 23.5 -50t14.5 -40l5 -13h4l199 494q6 16 15 21.5t30 5.5h219q6 0 11 -5t5 -12q0 -8 -10 -35z
M279 1384q24 21 57 21q45 0 74 -45l206 -293q13 -18 13 -29q0 -14 -19 -14h-98q-27 0 -41 12l-227 191q-33 28 -33 65q0 27 22 49z" />
    <glyph glyph-name="endash" unicode="&#x2013;" horiz-adv-x="1024" 
d="M102 381v188h820v-188h-820z" />
    <glyph glyph-name="emdash" unicode="&#x2014;" horiz-adv-x="1536" 
d="M102 381v188h1332v-188h-1332z" />
    <glyph glyph-name="quoteleft" unicode="&#x2018;" horiz-adv-x="454" 
d="M371 868q0 -56 -39 -95.5t-96 -39.5q-66 0 -110 45t-44 131q0 99 40 183t122 139q27 18 43 18t30 -14l41 -45q15 -15 15 -29q0 -13 -11 -20q-46 -33 -71.5 -64t-28.5 -76v-6q46 -6 77.5 -42t31.5 -85z" />
    <glyph glyph-name="quoteright" unicode="&#x2019;" horiz-adv-x="454" 
d="M84 1114q0 56 39 95.5t96 39.5q66 0 110 -45t44 -131q0 -212 -162 -321q-29 -19 -43 -19q-16 0 -31 15l-41 45q-14 14 -14 28t10 21q30 22 48 37.5t34.5 43t18.5 58.5v6q-46 6 -77.5 42t-31.5 85z" />
    <glyph glyph-name="quotesinglbase" unicode="&#x201a;" horiz-adv-x="454" 
d="M84 115q0 56 39 95.5t96 39.5q66 0 110 -45t44 -131q0 -99 -40 -183t-122 -139q-27 -18 -43 -18q-17 0 -31 14l-41 45q-14 14 -14 29q0 13 10 20q46 33 72 64.5t29 75.5v6q-46 6 -77.5 42t-31.5 85z" />
    <glyph glyph-name="quotedblleft" unicode="&#x201c;" horiz-adv-x="817" 
d="M733 868q0 -56 -39 -95.5t-96 -39.5q-66 0 -110 45t-44 131q0 99 40 183t122 139q27 18 43 18q17 0 31 -14l41 -45q14 -14 14 -29q0 -13 -10 -20q-46 -33 -71.5 -64t-28.5 -76v-6q46 -6 77 -42t31 -85zM371 868q0 -56 -39 -95.5t-96 -39.5q-66 0 -110 45t-44 131
q0 99 40 183t122 139q27 18 43 18t30 -14l41 -45q15 -15 15 -29q0 -13 -11 -20q-46 -33 -71.5 -64t-28.5 -76v-6q46 -6 77.5 -42t31.5 -85z" />
    <glyph glyph-name="quotedblright" unicode="&#x201d;" horiz-adv-x="817" 
d="M84 1114q0 56 39 95.5t96 39.5q66 0 110 -45t44 -131q0 -212 -162 -321q-29 -19 -43 -19q-16 0 -31 15l-41 45q-14 14 -14 28t10 21q30 22 48 37.5t34.5 43t18.5 58.5v6q-46 6 -77.5 42t-31.5 85zM446 1114q0 56 39.5 95.5t96.5 39.5q66 0 109.5 -45t43.5 -131
q0 -212 -162 -321q-29 -19 -43 -19q-15 0 -30 15l-41 45q-15 15 -15 28q0 14 11 21q30 21 48 37.5t34 43.5t18 58v6q-46 6 -77.5 42t-31.5 85z" />
    <glyph glyph-name="quotedblbase" unicode="&#x201e;" horiz-adv-x="817" 
d="M84 115q0 56 39 95.5t96 39.5q66 0 110 -45t44 -131q0 -99 -40 -183t-122 -139q-27 -18 -43 -18q-17 0 -31 14l-41 45q-14 14 -14 29q0 13 10 20q46 33 72 64.5t29 75.5v6q-46 6 -77.5 42t-31.5 85zM446 115q0 56 39.5 95.5t96.5 39.5q66 0 109.5 -45t43.5 -131
q0 -99 -40 -183t-122 -139q-27 -18 -43 -18t-30 14l-41 45q-15 15 -15 29q0 13 11 20q46 33 71.5 64t28.5 76v6q-46 6 -77.5 42t-31.5 85z" />
    <glyph glyph-name="dagger" unicode="&#x2020;" horiz-adv-x="1040" 
d="M930 688q0 -35 -12 -48t-46 -13h-96l-184 26l10 -172v-184l-12 -399h-139l-13 399v184l11 172l-185 -26h-98q-33 0 -44 14.5t-11 46.5v78q0 35 10.5 48t44.5 13h98l185 -28l-27 245v134q0 28 12 39.5t43 11.5h86q32 0 43.5 -11.5t11.5 -39.5v-134l-26 -245l184 28h96
q33 0 45.5 -15t12.5 -46v-78z" />
    <glyph glyph-name="daggerdbl" unicode="&#x2021;" horiz-adv-x="1040" 
d="M111 389q0 35 11.5 48.5t45.5 13.5h96l185 -27l-11 108v62l11 108l-185 -26h-98q-33 0 -44 14.5t-11 46.5v76q0 35 10.5 48t44.5 13h98l185 -26l-27 211v119q0 28 12 39.5t43 11.5h86q32 0 43.5 -11.5t11.5 -39.5v-119l-26 -211l184 26h96q33 0 45.5 -15t12.5 -46v-76
q0 -35 -12 -48t-46 -13h-96l-184 26l10 -108v-62l-10 -108l184 27h98q33 0 44.5 -15t11.5 -47v-76q0 -35 -11 -48t-45 -13h-98l-184 27l26 -211v-119q0 -28 -12 -39.5t-43 -11.5h-86q-32 0 -43.5 11.5t-11.5 39.5v119l27 211l-185 -27h-96q-33 0 -45 14.5t-12 46.5v76z" />
    <glyph glyph-name="bullet" unicode="&#x2022;" horiz-adv-x="679" 
d="M147 512q0 80 56.5 136.5t136.5 56.5q79 0 135.5 -56.5t56.5 -136.5t-56.5 -136.5t-135.5 -56.5q-80 0 -136.5 56.5t-56.5 136.5z" />
    <glyph glyph-name="ellipsis" unicode="&#x2026;" horiz-adv-x="1191" 
d="M88 115q0 57 39 96t96 39t96 -39t39 -96t-39 -96t-96 -39t-96 39t-39 96zM461 115q0 57 39 96t96 39t96 -39t39 -96t-39 -96t-96 -39t-96 39t-39 96zM834 115q0 57 39 96t96 39t96 -39t39 -96t-39 -96t-96 -39t-96 39t-39 96z" />
    <glyph glyph-name="perthousand" unicode="&#x2030;" horiz-adv-x="2250" 
d="M68 952q0 127 87 212t218 85t219 -85t88 -212t-88 -211t-219 -84t-218 84t-87 211zM248 952q0 -58 35 -96.5t90 -38.5t91 39t36 96q0 58 -36 98t-91 40t-90 -40t-35 -98zM1186 1315l129 -98l-977 -1303l-129 98zM844 274q0 127 87 212t218 85t219 -85t88 -212t-88 -210.5
t-219 -83.5t-218 83.5t-87 210.5zM1024 274q0 -58 35 -96.5t90 -38.5t91 39t36 96q0 58 -36 98t-91 40t-90 -40t-35 -98zM1571 274q0 127 87 212t218 85t219 -85t88 -212t-88 -210.5t-219 -83.5t-218 83.5t-87 210.5zM1751 274q0 -58 35 -96.5t90 -38.5t91 39t36 96
q0 58 -36 98t-91 40t-90 -40t-35 -98z" />
    <glyph glyph-name="guilsinglleft" unicode="&#x2039;" horiz-adv-x="589" 
d="M76 451q0 21 30 55l287 350q15 18 31 18q10 0 25 -6l63 -28q16 -8 16 -23q0 -9 -12 -33l-170 -333l170 -334q12 -24 12 -35q0 -13 -16 -21l-61 -28q-15 -6 -27 -6q-18 0 -31 16l-287 350q-30 37 -30 58z" />
    <glyph glyph-name="guilsinglright" unicode="&#x203a;" horiz-adv-x="589" 
d="M514 451q0 -20 -31 -58l-286 -350q-13 -16 -31 -16q-12 0 -27 6l-61 28q-17 9 -17 21q0 9 13 35l170 334l-170 333q-13 26 -13 33q0 15 17 23l63 28q15 6 25 6q16 0 31 -18l286 -350q31 -36 31 -55z" />
    <glyph glyph-name="fraction" unicode="&#x2044;" horiz-adv-x="950" 
d="M899 1315l129 -98l-977 -1303l-129 98z" />
    <glyph glyph-name="uni2070" unicode="&#x2070;" horiz-adv-x="862" 
d="M55 836q0 184 103 298.5t272 114.5q171 0 274 -114.5t103 -298.5t-103 -299t-274 -115q-169 0 -272 115t-103 299zM268 836q0 -107 44 -172.5t118 -65.5t119 66t45 172t-44.5 171.5t-119.5 65.5q-74 0 -118 -65t-44 -172z" />
    <glyph glyph-name="uni2074" unicode="&#x2074;" horiz-adv-x="856" 
d="M711 459q0 -6 -7.5 -13.5t-13.5 -7.5h-172q-6 0 -13 7.5t-7 13.5v125h-457v151l426 514h244v-489h92q6 0 12 -6.5t6 -12.5v-139q0 -6 -6 -12t-12 -6h-92v-125zM498 928l6 96l-8 2q-31 -53 -54 -80l-118 -143q-9 -10 -21 -21t-19 -16l-8 -6l3 -4q36 4 63 4h156v168z" />
    <glyph glyph-name="uni2075" unicode="&#x2075;" horiz-adv-x="833" 
d="M309 1053l-14 -113l4 -2q74 35 166 35q147 0 230 -74.5t83 -193.5t-93 -201t-259 -82q-144 0 -239 61.5t-115 149.5q-4 16 -4 29q0 9 7.5 16.5t16.5 7.5h144q22 0 30 -14q43 -74 160 -74q73 0 106 29t33 73q0 40 -34.5 68.5t-104.5 28.5q-59 0 -162 -35q-35 -12 -59 0
l-111 55q-18 9 -18 27q0 1 4 37l47 348h565q6 0 12.5 -6.5t6.5 -12.5v-139q0 -6 -6.5 -12t-12.5 -6h-383z" />
    <glyph glyph-name="uni2076" unicode="&#x2076;" horiz-adv-x="839" 
d="M430 422q-187 0 -282 109t-95 290q0 205 103.5 316.5t271.5 111.5q151 0 237.5 -67.5t86.5 -153.5q0 -22 -23 -22h-162q-19 0 -28 18q-22 49 -111 49q-66 0 -111 -43t-51 -135h4q63 63 187 63q153 0 240 -72t87 -181q0 -124 -96.5 -203.5t-257.5 -79.5zM430 784
q-68 0 -107.5 -23.5t-39.5 -60.5q0 -46 37 -74t104 -28q73 0 110 27.5t37 72.5q0 38 -37 62t-104 24z" />
    <glyph glyph-name="uni2077" unicode="&#x2077;" horiz-adv-x="706" 
d="M41 1053q-6 0 -12 6t-6 12v139q0 6 6 12.5t12 6.5h661v-17l-368 -757q-8 -17 -31 -17h-194q-13 0 -13 11q0 4 8 20l287 580l-2 4h-348z" />
    <glyph glyph-name="uni2078" unicode="&#x2078;" horiz-adv-x="833" 
d="M418 1249q154 0 245 -68.5t91 -172.5q0 -44 -26 -85t-66 -67v-2q54 -29 86 -76t32 -104q0 -117 -100.5 -184.5t-261.5 -67.5t-262 67.5t-101 184.5q0 56 33 103.5t86 76.5v2q-40 26 -66 67t-26 85q0 104 91.5 172.5t244.5 68.5zM567 678q0 40 -40 66t-109 26
t-109.5 -26.5t-40.5 -65.5t39 -63.5t111 -24.5t110.5 25t38.5 63zM545 1006q0 30 -32.5 52.5t-94.5 22.5t-94.5 -22.5t-32.5 -52.5q0 -32 32 -54t95 -22t95 22t32 54z" />
    <glyph glyph-name="uni2079" unicode="&#x2079;" horiz-adv-x="839" 
d="M408 1249q186 0 281 -109t95 -290q0 -205 -103 -316.5t-271 -111.5q-151 0 -237.5 67.5t-86.5 153.5q0 23 23 23h163q21 0 27 -19q19 -49 111 -49q67 0 111 41t50 137h-4q-63 -63 -186 -63q-154 0 -241 70t-87 178q0 124 97 206t258 82zM408 887q68 0 107.5 23.5
t39.5 60.5q0 46 -37 74t-104 28q-73 0 -110.5 -28.5t-37.5 -73.5q0 -38 37.5 -61t104.5 -23z" />
    <glyph glyph-name="uni207D" unicode="&#x207d;" horiz-adv-x="450" 
d="M274 844q0 -126 15 -209.5t40 -130t70 -94.5q17 -17 17 -33q0 -14 -27.5 -42t-42.5 -28q-21 0 -45 17q-50 37 -85.5 76t-67.5 99t-48 146t-16 199t16 200t47.5 148t67.5 101.5t86 76.5q22 16 41 16q15 0 44.5 -27.5t29.5 -41.5q0 -13 -17 -33q-43 -51 -67.5 -97t-41 -132
t-16.5 -211z" />
    <glyph glyph-name="uni207E" unicode="&#x207e;" horiz-adv-x="450" 
d="M176 844q0 125 -16.5 211t-41 132t-67.5 97q-16 19 -16 33t29.5 41.5t44.5 27.5q19 0 41 -16q50 -36 86 -76.5t67.5 -101.5t47.5 -148t16 -200t-16 -199t-48 -146t-67.5 -99t-85.5 -76q-24 -17 -46 -17q-15 0 -42 28t-27 42q0 17 16 33q45 48 70 94.5t40 130t15 209.5z
" />
    <glyph glyph-name="uni2080" unicode="&#x2080;" horiz-adv-x="862" 
d="M55 233q0 184 103 299t272 115q171 0 274 -115t103 -299t-103 -298.5t-274 -114.5q-169 0 -272 114.5t-103 298.5zM268 233q0 -107 44 -172t118 -65q75 0 119.5 65.5t44.5 171.5t-45 172t-119 66t-118 -65.5t-44 -172.5z" />
    <glyph glyph-name="uni2081" unicode="&#x2081;" horiz-adv-x="610" 
d="M512 -145q0 -5 -7 -12t-13 -7h-173q-6 0 -13 7t-7 12v503l-4 2l-139 -104q-6 -5 -15.5 -4.5t-13.5 6.5l-82 113q-10 15 4 26l334 250h129v-792z" />
    <glyph glyph-name="uni2082" unicode="&#x2082;" horiz-adv-x="843" 
d="M444 219q58 38 85.5 73.5t27.5 76.5q0 42 -36.5 72t-100.5 30q-67 0 -104 -33.5t-37 -93.5q0 -25 -21 -25h-170q-22 0 -22 19q0 63 21 117.5t63 98t111.5 68.5t158.5 25q161 0 255.5 -82t94.5 -194q0 -81 -45 -142.5t-145 -130.5l-76 -51l-58 -31v-4h318q6 0 12 -6t6 -12
v-139q0 -6 -6 -12.5t-12 -6.5h-696v129z" />
    <glyph glyph-name="uni2083" unicode="&#x2083;" horiz-adv-x="837" 
d="M326 162q-5 0 -12 6t-7 12v121q0 6 7.5 12t13.5 6h98q111 0 111 76q0 32 -33 54t-92 22q-58 0 -90 -20t-37 -54q-3 -22 -23 -22h-170q-10 0 -15 5.5t-5 12.5q0 107 90.5 180.5t251.5 73.5q163 0 249.5 -69.5t86.5 -169.5q0 -44 -23 -83.5t-61 -62.5v-4q116 -51 116 -174
q0 -111 -95.5 -187.5t-274.5 -76.5q-174 0 -267.5 75.5t-93.5 186.5q0 18 23 18h162q23 0 28 -20q20 -84 152 -84q75 0 114 25t39 67q0 34 -28 54t-84 20h-131z" />
    <glyph glyph-name="uni2084" unicode="&#x2084;" horiz-adv-x="856" 
d="M711 -143q0 -6 -7.5 -13.5t-13.5 -7.5h-172q-6 0 -13 7.5t-7 13.5v125h-457v151l426 514h244v-489h92q6 0 12 -6.5t6 -12.5v-139q0 -6 -6 -12t-12 -6h-92v-125zM498 326l6 96l-8 2q-31 -53 -54 -80l-118 -143q-9 -10 -21 -21t-19 -16l-8 -6l3 -4q36 4 63 4h156v168z" />
    <glyph glyph-name="uni2085" unicode="&#x2085;" horiz-adv-x="833" 
d="M309 451l-14 -113l4 -2q74 35 166 35q147 0 230 -75t83 -194t-93 -200.5t-259 -81.5q-144 0 -239 61.5t-115 149.5q-4 16 -4 28q0 9 7.5 17t16.5 8h144q22 0 30 -14q43 -74 160 -74q73 0 106 29t33 73q0 40 -34.5 68.5t-104.5 28.5q-59 0 -162 -35q-35 -12 -59 0l-111 55
q-18 9 -18 27q0 1 4 37l47 348h565q6 0 12.5 -6.5t6.5 -12.5v-139q0 -6 -6.5 -12t-12.5 -6h-383z" />
    <glyph glyph-name="uni2086" unicode="&#x2086;" horiz-adv-x="839" 
d="M430 -180q-187 0 -282 109t-95 290q0 205 103.5 316.5t271.5 111.5q151 0 237.5 -67.5t86.5 -153.5q0 -23 -23 -23h-162q-19 0 -28 19q-22 49 -111 49q-66 0 -111 -43t-51 -135h4q63 63 187 63q153 0 240 -72.5t87 -181.5q0 -124 -96 -203t-258 -79zM430 182
q-68 0 -107.5 -23.5t-39.5 -60.5q0 -46 37 -74t104 -28q73 0 110 27.5t37 72.5q0 38 -37 62t-104 24z" />
    <glyph glyph-name="uni2087" unicode="&#x2087;" horiz-adv-x="706" 
d="M41 451q-6 0 -12 6t-6 12v139q0 6 6 12.5t12 6.5h661v-17l-368 -757q-8 -17 -31 -17h-194q-13 0 -13 10q0 5 8 21l287 579l-2 5h-348z" />
    <glyph glyph-name="uni2088" unicode="&#x2088;" horiz-adv-x="833" 
d="M418 647q154 0 245 -68.5t91 -172.5q0 -44 -26 -85t-66 -67v-2q54 -29 86 -76t32 -104q0 -117 -100.5 -184.5t-261.5 -67.5t-262 67.5t-101 184.5q0 56 33 103.5t86 76.5v2q-40 26 -66 67t-26 85q0 104 91.5 172.5t244.5 68.5zM567 76q0 40 -40 66t-109 26t-109.5 -26.5
t-40.5 -65.5t39 -63.5t111 -24.5t110.5 25t38.5 63zM545 403q0 30 -32.5 53t-94.5 23t-94.5 -23t-32.5 -53q0 -32 32 -53.5t95 -21.5t95 21.5t32 53.5z" />
    <glyph glyph-name="uni2089" unicode="&#x2089;" horiz-adv-x="839" 
d="M408 647q186 0 281 -109t95 -290q0 -205 -103 -316.5t-271 -111.5q-151 0 -237.5 67.5t-86.5 153.5q0 22 23 22h163q21 0 27 -18q19 -49 111 -49q67 0 111 41t50 137h-4q-63 -63 -186 -63q-154 0 -241 69.5t-87 177.5q0 124 97 206.5t258 82.5zM408 285q68 0 107.5 23.5
t39.5 60.5q0 46 -37 74t-104 28q-73 0 -110.5 -28.5t-37.5 -73.5q0 -38 37.5 -61t104.5 -23z" />
    <glyph glyph-name="uni208D" unicode="&#x208d;" horiz-adv-x="450" 
d="M274 242q0 -126 15 -209.5t40 -130.5t70 -95q17 -17 17 -32q0 -14 -27.5 -42t-42.5 -28q-23 0 -45 16q-50 37 -85.5 76.5t-67.5 99.5t-48 146t-16 199t16 200t47.5 148t67.5 101.5t86 76.5q22 16 41 16q15 0 44.5 -27.5t29.5 -41.5q0 -13 -17 -33q-43 -51 -67.5 -97
t-41 -132t-16.5 -211z" />
    <glyph glyph-name="uni208E" unicode="&#x208e;" horiz-adv-x="450" 
d="M176 242q0 125 -16.5 211t-41 132t-67.5 97q-16 19 -16 33t29.5 41.5t44.5 27.5q19 0 41 -16q50 -36 86 -76.5t67.5 -101.5t47.5 -148t16 -200t-16 -199t-48 -146t-67.5 -99.5t-85.5 -76.5q-22 -16 -46 -16q-15 0 -42 28t-27 42q0 16 16 32q45 48 70 95t40 130.5
t15 209.5z" />
    <glyph glyph-name="colonmonetary" unicode="&#x20a1;" horiz-adv-x="1439" 
d="M354 84q-127 82 -199.5 218.5t-72.5 311.5q0 144 50.5 264.5t139 201t208.5 125t259 44.5l41 -2l60 160l118 -43l-49 -133q59 -13 103 -29l45 127l119 -45l-50 -135q109 -68 170.5 -172.5t61.5 -214.5q0 -29 -31 -29h-194q-18 0 -27 7.5t-10 27.5q-10 88 -56 139h-2
l-258 -702l2 -2q137 6 215.5 68.5t96.5 166.5q3 23 11.5 31t27.5 8h192q31 0 31 -33q0 -89 -40 -171t-114.5 -148t-194.5 -105.5t-268 -39.5q-29 0 -41 2l-57 -158l-119 43q31 86 47 129q-36 8 -100 33l-45 -125l-119 45zM344 614q0 -168 100 -276h5l247 680l-2 2
q-155 -14 -252.5 -121.5t-97.5 -284.5zM549 244q56 -26 98 -35l287 780q-45 22 -103 31q-47 -129 -141 -388t-141 -388z" />
    <glyph glyph-name="uni20A2" unicode="&#x20a2;" horiz-adv-x="1429" 
d="M1122 801q-18 0 -27 6.5t-16 26.5q-32 80 -116.5 137t-217.5 57q-173 0 -287 -112t-114 -302q0 -135 59.5 -232t161.5 -142v471q0 9 13 21.5t22 12.5h113q21 0 30 -28l17 -53h8q28 51 74.5 76.5t99.5 25.5q94 0 145.5 -60.5t51.5 -162.5v-21q0 -9 -13 -22t-22 -13h-125
q-9 0 -22 12t-13 21v8q0 32 -16 50t-45 18q-34 0 -63 -26.5t-46 -73.5v-291q100 0 186.5 44.5t118.5 123.5q9 22 18 29.5t29 7.5h191q13 0 22 -8.5t9 -22.5q0 -35 -18 -82t-63 -104t-110.5 -103.5t-173.5 -78t-238 -31.5q-187 0 -337 76t-238 221.5t-88 336.5q0 143 51 263
t140 201t210.5 126t261.5 45q118 0 220 -29t170 -74.5t117 -102.5t71.5 -112t22.5 -104q0 -26 -33 -26h-191z" />
    <glyph glyph-name="franc" unicode="&#x20a3;" horiz-adv-x="1218" 
d="M41 375h143v829q0 9 8 17t17 8h919q9 0 19 -10t10 -19v-164q0 -9 -10 -18.5t-19 -9.5h-682v-260h615q9 0 19 -10t10 -19v-156q0 -9 -10 -18.5t-19 -9.5h-615v-160h357v-142h-357v-208q0 -9 -7.5 -17t-16.5 -8h-213q-9 0 -17 8t-8 17v208h-143v142z" />
    <glyph glyph-name="uni20A6" unicode="&#x20a6;" horiz-adv-x="1699" 
d="M1270 0l-396 414h-387v-389q0 -9 -7.5 -17t-16.5 -8h-213q-9 0 -17 8t-8 17v389h-184v139h184v123h-184v139h184v389q0 9 8 17t17 8h182l395 -414h385v389q0 9 8 17t17 8h213q9 0 17 -8t8 -17v-389h184v-139h-184v-123h184v-139h-184v-389q0 -9 -8 -17t-17 -8h-180z
M487 553h256l-81 86q-41 43 -83 90t-63 73l-22 25h-7v-274zM1212 401v275h-251l73 -78q42 -44 84.5 -93t63.5 -77l22 -27h8z" />
    <glyph glyph-name="peseta" unicode="&#x20a7;" horiz-adv-x="1376" 
d="M35 836h123v368q0 9 7.5 17t16.5 8h525q204 0 342 -106.5t161 -286.5h109v-140h-111q-24 -177 -162.5 -279t-338.5 -102h-287v-290q0 -9 -8 -17t-17 -8h-213q-9 0 -16.5 8t-7.5 17v671h-123v140zM420 1008v-172h524q-19 79 -88 125.5t-168 46.5h-268zM688 524
q99 0 168 46.5t86 125.5h-522v-172h268z" />
    <glyph glyph-name="uni20A8" unicode="&#x20a8;" horiz-adv-x="1314" 
d="M137 1229h1116l-53 -213h-201q54 -67 68 -146h154l-33 -139h-117q-14 -98 -76 -173t-151 -114t-191 -43l-2 -6q47 -32 88 -73l273 -269q28 -28 28 -39q0 -14 -18 -14h-274q-28 0 -44 7.5t-42 33.5l-512 506v28h389q101 0 171.5 41.5t90.5 114.5h-713l33 139h678
q-42 146 -252 146h-463z" />
    <glyph glyph-name="uni20A9" unicode="&#x20a9;" horiz-adv-x="2174" 
d="M1942 864h172v-139h-236l-59 -131h295v-139h-359l-209 -455h-141l-193 455h-249l-193 -455h-141l-209 455h-359v139h295l-61 131h-234v139h170l-149 328q-8 16 -8 25q0 12 16 12h232q20 0 25.5 -3.5t14.5 -23.5l158 -338h361l153 365h107l151 -365h361l159 338
q9 19 15.5 23t25.5 4h232q16 0 16 -12q0 -9 -8 -25zM1470 436q35 115 66 178l51 111h-235l61 -145q13 -30 25 -66t18 -57l6 -21h8zM713 436q20 78 49 144l61 145h-237l53 -111q14 -28 30.5 -72.5t26.5 -75.5l9 -30h8zM1022 594h133l-16 41l-45 151h-13q-29 -114 -43 -151z
" />
    <glyph glyph-name="uni20AA" unicode="&#x20aa;" horiz-adv-x="1708" 
d="M928 502q0 83 -34 114t-126 31h-387v-647h-250v840h711q169 0 252.5 -76t83.5 -242v-215h-250v195zM1577 332q0 -175 -87.5 -253.5t-258.5 -78.5h-701v532h250v-339h385q91 0 126.5 35t35.5 118v494h250v-508z" />
    <glyph glyph-name="Euro" unicode="&#x20ac;" horiz-adv-x="1394" 
d="M248 805q58 207 229 325.5t404 118.5q89 0 194.5 -23t175.5 -63q27 -15 27 -37q0 -10 -6 -34l-31 -125q-7 -27 -27 -27q-14 0 -30 8q-156 80 -293 80q-124 0 -221.5 -59t-141.5 -164h668q-6 -24 -18.5 -72t-18.5 -71h-672q-2 -25 -2 -48l2 -49h650q-6 -23 -17.5 -71.5
t-17.5 -71.5h-574q42 -105 139.5 -163t223.5 -58q140 0 258 88q15 12 31 12q20 0 34 -20l68 -97q12 -17 12 -32q0 -22 -16 -35q-152 -137 -397 -137q-233 0 -404 117t-229 325h-180l34 143h123q-2 26 -2 49l2 48h-157l34 143h146z" />
    <glyph glyph-name="uni2113" unicode="&#x2113;" horiz-adv-x="901" 
d="M195 311l-2 2l-87 -26q-36 -11 -45 20l-28 107q-6 21 -6 32q0 23 28 31l133 43v320q0 210 82.5 309.5t247.5 99.5q141 0 224 -87t83 -253q0 -147 -38 -247.5t-105.5 -159t-177.5 -99.5l-62 -22v-27q0 -96 36.5 -128.5t117.5 -32.5q33 0 68.5 7t37.5 7q12 0 20.5 -7
t8.5 -16v-141q0 -33 -43 -45q-67 -18 -133 -18q-168 0 -264 87t-96 232v12zM469 618q62 24 95.5 90t35.5 158v43q0 73 -21 102t-63 29q-78 0 -78 -122v-312z" />
    <glyph glyph-name="trademark" unicode="&#x2122;" horiz-adv-x="1568" 
d="M55 1253q-4 0 -9 5t-5 10v69q0 5 5 10t9 5h598q5 0 10 -5t5 -10v-69q0 -4 -5 -9.5t-10 -5.5h-241v-520q0 -6 -6 -11t-11 -5h-82q-5 0 -10.5 5t-5.5 11v520h-242zM1430 1352q4 0 10 -6t6 -11v-604q0 -4 -5.5 -9t-10.5 -5h-82q-5 0 -11 5t-6 9v422h-4q-28 -55 -51 -88
l-186 -268l-189 268l-53 88h-4v-422q0 -4 -5 -9t-10 -5h-84q-5 0 -10.5 5t-5.5 9v604q0 5 6 11t10 6h62q13 0 20 -11l258 -366h7l258 366q7 11 18 11h62z" />
    <glyph glyph-name="uni2126" unicode="&#x2126;" horiz-adv-x="1507" 
d="M258 233l66 -4q0 1 1 3.5t1 3.5q-106 58 -175 168t-69 251q0 166 86.5 302t241 214t344.5 78q192 0 346 -78t239.5 -214t85.5 -302q0 -144 -67.5 -254.5t-173.5 -164.5q0 -1 1 -3.5t1 -3.5q40 4 63 4h148q9 0 18.5 -9.5t9.5 -18.5v-176q0 -9 -9.5 -19t-18.5 -10h-555v291
q141 40 223 138t82 226q0 155 -113 258t-280 103q-163 0 -278.5 -103.5t-115.5 -257.5q0 -126 83 -225t223 -139v-291h-553q-9 0 -19 10t-10 19v176q0 9 10 18.5t19 9.5h145z" />
    <glyph glyph-name="estimated" unicode="&#x212e;" horiz-adv-x="1601" 
d="M1255 987q0 23 -20 43q-85 85 -196.5 132.5t-235.5 47.5q-125 0 -237 -49t-199 -137q-17 -26 -17 -45v-342q0 -10 10 -10h885q10 0 10 10v350zM360 592q-10 0 -10 -8v-348q0 -24 17 -41q83 -89 196.5 -139t239.5 -50q136 0 255.5 55.5t203.5 155.5h104
q-98 -117 -246.5 -183.5t-318.5 -66.5q-194 0 -358 85.5t-259.5 233t-95.5 322.5q0 174 95.5 321.5t260 233.5t357.5 86t357 -86t259.5 -233.5t95.5 -321.5v-16h-1153z" />
    <glyph glyph-name="uni2153" unicode="&#x2153;" horiz-adv-x="1816" 
d="M512 457q0 -5 -7 -12t-13 -7h-173q-6 0 -13 7t-7 12v504l-4 2l-139 -105q-6 -5 -15.5 -4.5t-13.5 6.5l-82 113q-10 15 4 26l334 250h129v-792zM1251 1315l129 -98l-977 -1303l-129 98zM1305 326q-5 0 -12 6t-7 12v121q0 6 7.5 12t13.5 6h98q111 0 111 76q0 32 -33 54
t-92 22q-58 0 -90 -20t-37 -54q-3 -22 -23 -22h-170q-10 0 -15 5.5t-5 12.5q0 107 90.5 180.5t251.5 73.5q163 0 249.5 -70t86.5 -170q0 -44 -22.5 -83t-61.5 -62v-4q116 -51 116 -174q0 -111 -95.5 -187.5t-274.5 -76.5q-174 0 -267.5 75.5t-93.5 186.5q0 18 23 18h161
q24 0 29 -20q20 -84 152 -84q75 0 114 25t39 67q0 34 -28 54t-84 20h-131z" />
    <glyph glyph-name="uni2154" unicode="&#x2154;" horiz-adv-x="2052" 
d="M444 821q58 38 85.5 73.5t27.5 76.5q0 42 -36.5 72t-100.5 30q-67 0 -104 -33.5t-37 -93.5q0 -24 -21 -24h-170q-22 0 -22 18q0 63 21 117.5t63 98t111.5 68.5t158.5 25q161 0 255.5 -82t94.5 -194q0 -81 -45 -142.5t-145 -130.5l-76 -51l-58 -31v-4h318q6 0 12 -6t6 -12
v-139q0 -6 -6 -12.5t-12 -6.5h-696v129zM1485 1315l129 -98l-977 -1303l-129 98zM1540 326q-5 0 -11.5 6t-6.5 12v121q0 6 7 12t13 6h98q111 0 111 76q0 32 -33 54t-92 22q-58 0 -90 -20t-37 -54q-3 -22 -22 -22h-170q-10 0 -15.5 5.5t-5.5 12.5q0 107 90.5 180.5
t251.5 73.5q163 0 249.5 -70t86.5 -170q0 -44 -22.5 -83t-61.5 -62v-4q117 -51 117 -174q0 -111 -96 -187.5t-275 -76.5q-174 0 -267 75t-93 187q0 18 22 18h162q24 0 29 -20q20 -84 151 -84q75 0 114.5 25.5t39.5 66.5q0 34 -28.5 54t-84.5 20h-131z" />
    <glyph glyph-name="oneeighth" unicode="&#x215b;" horiz-adv-x="1802" 
d="M512 457q0 -5 -7 -12t-13 -7h-173q-6 0 -13 7t-7 12v504l-4 2l-139 -105q-6 -5 -15.5 -4.5t-13.5 6.5l-82 113q-10 15 4 26l334 250h129v-792zM1237 1315l129 -98l-977 -1303l-129 98zM1386 811q154 0 245 -69t91 -173q0 -44 -26 -84.5t-66 -66.5v-2q54 -29 86.5 -76
t32.5 -104q0 -117 -101 -184.5t-262 -67.5t-261.5 67.5t-100.5 184.5q0 56 33 103.5t86 76.5v2q-40 26 -66 66.5t-26 84.5q0 104 91 173t244 69zM1536 240q0 39 -40.5 65.5t-109.5 26.5t-109 -26t-40 -66q0 -39 38.5 -63.5t110.5 -24.5t111 25.5t39 62.5zM1513 567
q0 30 -32.5 53t-94.5 23t-94 -23t-32 -53q0 -32 31.5 -53.5t94.5 -21.5t95 21.5t32 53.5z" />
    <glyph glyph-name="threeeighths" unicode="&#x215c;" horiz-adv-x="1961" 
d="M326 764q-5 0 -12 6t-7 12v121q0 6 7.5 12.5t13.5 6.5h98q111 0 111 75q0 32 -33 54t-92 22q-58 0 -90 -20t-37 -54q-3 -22 -23 -22h-170q-10 0 -15 5.5t-5 12.5q0 107 90.5 180.5t251.5 73.5q163 0 249.5 -69.5t86.5 -169.5q0 -44 -23 -83.5t-61 -62.5v-4
q116 -51 116 -174q0 -111 -95.5 -187.5t-274.5 -76.5q-174 0 -267.5 75.5t-93.5 186.5q0 18 23 18h162q23 0 28 -20q20 -84 152 -84q75 0 114 25t39 67q0 34 -28 54t-84 20h-131zM1546 811q154 0 245 -69t91 -173q0 -44 -26 -84.5t-66 -66.5v-2q54 -29 86.5 -76t32.5 -104
q0 -117 -101 -184.5t-262 -67.5t-261.5 67.5t-100.5 184.5q0 56 33 103.5t86 76.5v2q-40 26 -66.5 66.5t-26.5 84.5q0 104 91.5 173t244.5 69zM1696 240q0 39 -40.5 65.5t-109.5 26.5t-109 -26t-40 -66q0 -39 38.5 -63.5t110.5 -24.5t111 25.5t39 62.5zM1673 567
q0 30 -32.5 53t-94.5 23t-94.5 -23t-32.5 -53q0 -32 32 -53.5t95 -21.5t95 21.5t32 53.5zM1403 1315l129 -98l-977 -1303l-129 98z" />
    <glyph glyph-name="fiveeighths" unicode="&#x215d;" horiz-adv-x="1951" 
d="M309 1053l-14 -113l4 -2q74 35 166 35q147 0 230 -74.5t83 -193.5t-93 -201t-259 -82q-144 0 -239 61.5t-115 149.5q-4 16 -4 29q0 9 7.5 16.5t16.5 7.5h144q22 0 30 -14q43 -74 160 -74q73 0 106 29t33 73q0 40 -34.5 68.5t-104.5 28.5q-59 0 -162 -35q-35 -12 -59 0
l-111 55q-18 9 -18 27q0 1 4 37l47 348h565q6 0 12.5 -6.5t6.5 -12.5v-139q0 -6 -6.5 -12t-12.5 -6h-383zM1393 1315l129 -98l-977 -1303l-129 98zM1538 811q154 0 245 -69t91 -173q0 -44 -26 -84.5t-66 -66.5v-2q54 -29 86.5 -76t32.5 -104q0 -117 -101 -184.5t-262 -67.5
t-261.5 67.5t-100.5 184.5q0 57 32.5 104t85.5 76v2q-40 26 -66 66.5t-26 84.5q0 104 91.5 173t244.5 69zM1688 240q0 39 -40.5 65.5t-109.5 26.5t-109 -26t-40 -66q0 -39 38.5 -63.5t110.5 -24.5t111 25.5t39 62.5zM1665 567q0 30 -32.5 53t-94.5 23t-94.5 -23t-32.5 -53
q0 -32 32 -53.5t95 -21.5t95 21.5t32 53.5z" />
    <glyph glyph-name="seveneighths" unicode="&#x215e;" horiz-adv-x="1710" 
d="M41 1053q-6 0 -12 6t-6 12v139q0 6 6 12.5t12 6.5h661v-17l-368 -757q-8 -17 -31 -17h-194q-13 0 -13 11q0 4 8 20l287 580l-2 4h-348zM1128 1315l129 -98l-976 -1303l-129 98zM1294 811q154 0 245 -69t91 -173q0 -44 -26 -84.5t-66 -66.5v-2q54 -29 86.5 -76t32.5 -104
q0 -117 -101 -184.5t-262 -67.5t-261.5 67.5t-100.5 184.5q0 56 33 103.5t86 76.5v2q-40 26 -66.5 66.5t-26.5 84.5q0 104 91.5 173t244.5 69zM1444 240q0 39 -40.5 65.5t-109.5 26.5t-109 -26t-40 -66q0 -39 38.5 -63.5t110.5 -24.5t111 25.5t39 62.5zM1421 567
q0 30 -32.5 53t-94.5 23t-94.5 -23t-32.5 -53q0 -32 32 -53.5t95 -21.5t95 21.5t32 53.5z" />
    <glyph glyph-name="partialdiff" unicode="&#x2202;" horiz-adv-x="1134" 
d="M782 418q0 107 -63.5 164t-161.5 57q-93 0 -153 -61.5t-60 -157.5q0 -95 60.5 -157t158.5 -62q45 0 82.5 14.5t62 37.5t42 52.5t25 58t7.5 54.5zM1053 508q0 -235 -133 -381.5t-357 -146.5q-214 0 -347.5 119.5t-133.5 320.5q0 101 37.5 186t99.5 139.5t141 84.5t164 30
q123 0 211 -57l6 4q-55 130 -183 224.5t-363 154.5q-31 7 -23 45l27 115q6 26 30 26t64 -8q187 -40 334 -124t239 -198t139.5 -249.5t47.5 -284.5z" />
    <glyph glyph-name="uni2206" unicode="&#x2206;" horiz-adv-x="1425" 
d="M37 0q-17 0 -17 14q0 7 9 25l589 1190h189l590 -1190q8 -16 8 -25q0 -14 -16 -14h-1352zM424 233h577l-206 424q-19 39 -38.5 84.5t-29.5 70.5l-10 26h-8q-35 -93 -78 -181z" />
    <glyph glyph-name="product" unicode="&#x220f;" horiz-adv-x="1486" 
d="M1341 25q0 -9 -7.5 -17t-16.5 -8h-230q-9 0 -16.5 8t-7.5 17v970h-639v-970q0 -9 -8 -17t-17 -8h-229q-9 0 -17 8t-8 17v1179q0 9 8 17t17 8h1147q9 0 16.5 -8t7.5 -17v-1179z" />
    <glyph glyph-name="summation" unicode="&#x2211;" horiz-adv-x="1378" 
d="M655 326q-22 -24 -46.5 -46t-38.5 -32l-13 -10l2 -5h719q9 0 19 -9.5t10 -18.5v-176q0 -9 -10 -19t-19 -10h-1217v51l498 563l-498 560v55h1196q9 0 19 -10t10 -19v-176q0 -9 -10 -19t-19 -10h-692v-6q35 -26 72 -67l274 -306z" />
    <glyph glyph-name="minus" unicode="&#x2212;" horiz-adv-x="1024" 
d="M102 483v189h820v-189h-820z" />
    <glyph glyph-name="radical" unicode="&#x221a;" horiz-adv-x="1183" 
d="M926 1552h426v-176h-273l-346 -1601h-274l-197 751h-221v179h371l131 -494q10 -36 19 -85.5t12 -80.5l4 -31h26q15 121 31 197z" />
    <glyph glyph-name="infinity" unicode="&#x221e;" horiz-adv-x="1624" 
d="M430 154q-61 0 -119 21t-108 62.5t-80.5 113t-30.5 161.5q0 91 30.5 163t80.5 114t108 63.5t119 21.5q105 0 187.5 -47t195.5 -174q112 127 193 174t186 47q49 0 96.5 -13t92 -41.5t78 -69.5t53.5 -101.5t20 -132.5q0 -74 -20 -135.5t-53.5 -103t-78 -69.5t-92 -41
t-96.5 -13q-105 0 -186 47t-193 174q-111 -126 -194.5 -173.5t-188.5 -47.5zM1184 694q-46 0 -87.5 -22t-76.5 -56t-90 -100q84 -100 136.5 -141t117.5 -41q66 0 112.5 45.5t46.5 136.5q0 88 -47 133t-112 45zM438 334q66 0 116.5 40t135.5 142q-80 95 -135 136.5t-117 41.5
q-64 0 -110.5 -46t-46.5 -136q0 -89 46.5 -133.5t110.5 -44.5z" />
    <glyph glyph-name="integral" unicode="&#x222b;" horiz-adv-x="540" 
d="M156 1337q0 140 68 214.5t202 74.5q36 0 70 -4.5t50 -9.5l15 -4v-131q0 -25 -24 -25q-1 0 -26 2t-46 2q-121 0 -121 -135v-1466q0 -144 -69 -216.5t-201 -72.5q-36 0 -69.5 4.5t-49.5 9.5l-16 4v133q0 9 6 16t16 7q3 0 28.5 -1t45.5 -1q59 0 90 30.5t31 102.5v1466z" />
    <glyph glyph-name="approxequal" unicode="&#x2248;" horiz-adv-x="1024" 
d="M342 729q-111 0 -195 -113l-86 148q45 58 118.5 106t156.5 48q47 0 87 -14t68.5 -34.5t55.5 -41t61.5 -34.5t73.5 -14q38 0 74.5 14.5t62.5 36.5t39.5 36t20.5 24l82 -148q-45 -56 -117 -103.5t-154 -47.5q-58 0 -107 21.5t-78 47t-72.5 47t-90.5 21.5zM342 385
q-111 0 -195 -113l-86 148q45 58 118.5 105.5t156.5 47.5q58 0 106.5 -21.5t77.5 -47t72 -47t90 -21.5q38 0 74.5 14.5t62.5 36.5t39.5 36t20.5 24l82 -148q-45 -56 -117 -103.5t-154 -47.5q-58 0 -107 21.5t-78 47t-72.5 47t-90.5 21.5z" />
    <glyph glyph-name="notequal" unicode="&#x2260;" horiz-adv-x="1024" 
d="M625 643l-45 -123h342v-188h-412l-113 -307l-151 55l92 252h-236v188h306l45 123h-351v188h420l115 310l151 -56l-94 -254h228v-188h-297z" />
    <glyph glyph-name="lessequal" unicode="&#x2264;" horiz-adv-x="1024" 
d="M141 0v164h742v-164h-742zM883 254h-84l-658 412v77l680 433h62v-170l-469 -297v-4l469 -293v-158z" />
    <glyph glyph-name="greaterequal" unicode="&#x2265;" horiz-adv-x="1024" 
d="M141 0v164h742v-164h-742zM141 412l469 293v4l-469 297v170h62l680 -433v-77l-658 -412h-84v158z" />
    <glyph glyph-name="lozenge" unicode="&#x25ca;" horiz-adv-x="1040" 
d="M600 -82h-158l-360 655l362 656h154l360 -656zM518 164h6l217 409l-219 410h-2l-223 -410z" />
    <glyph glyph-name="uniF639" unicode="&#xf639;" 
d="M68 614q0 285 146.5 460t399.5 175t400 -175t147 -460t-147 -459.5t-400 -174.5t-399.5 174.5t-146.5 459.5zM346 614q0 -185 70 -293t198 -108t198.5 108t70.5 293t-70.5 293.5t-198.5 108.5t-198 -108.5t-70 -293.5z" />
    <glyph glyph-name="uniF63A" unicode="&#xf63a;" 
d="M664 557q95 63 137.5 123.5t42.5 138.5q0 87 -61 142t-169 55q-233 0 -233 -244q0 -39 -33 -39h-211q-16 0 -25.5 9t-9.5 20q0 82 18 153t57.5 133t98.5 106t145 69.5t193 25.5q123 0 222 -36.5t160 -97.5t93.5 -137t32.5 -159q0 -125 -69 -227t-217 -201l-164 -110
l-78 -39v-9h518q9 0 19 -9.5t10 -18.5v-176q0 -9 -10 -19t-19 -10h-1030v166z" />
    <glyph glyph-name="uniF63B" unicode="&#xf63b;" 
d="M475 518q-9 0 -19 10t-10 19v155q0 9 10 19t19 10h135q107 0 155 35.5t48 103.5q0 64 -52.5 105t-156.5 41q-201 0 -215 -154q-3 -33 -31 -33h-213q-16 0 -25 8.5t-9 18.5q0 76 31 145t90 125t154 89.5t214 33.5q129 0 227.5 -31.5t154.5 -85t83 -116.5t27 -133
q0 -71 -33.5 -130t-93.5 -94v-6q87 -37 132.5 -110.5t45.5 -161.5q0 -81 -32 -152t-95.5 -127.5t-168 -89t-239.5 -32.5q-133 0 -236 32t-165.5 88t-94.5 126.5t-32 152.5q0 13 9 21t26 8h211q15 0 23 -7.5t9 -25.5q5 -73 68.5 -124.5t181.5 -51.5q125 0 190.5 50.5
t65.5 131.5q0 137 -215 137h-174z" />
    <glyph glyph-name="uniF63C" unicode="&#xf63c;" 
d="M991 31q0 -9 -10.5 -20t-19.5 -11h-224q-9 0 -19.5 11t-10.5 20v207h-676v204l657 787h303v-758h127q9 0 19 -10t10 -19v-176q0 -9 -10 -18.5t-19 -9.5h-127v-207zM713 788l8 127l-6 3q-43 -68 -74 -105l-244 -291q-15 -16 -29.5 -29.5t-21.5 -18.5l-8 -5l2 -4q51 6 80 6
h293v317z" />
    </font>
</defs>
</svg>
